%TF.GenerationSoftware,KiCad,Pcbnew,7.0.1*%
%TF.CreationDate,2025-03-04T19:41:26-05:00*%
%TF.ProjectId,front_panel,66726f6e-745f-4706-916e-656c2e6b6963,rev?*%
%TF.SameCoordinates,Original*%
%TF.FileFunction,Soldermask,Top*%
%TF.FilePolarity,Negative*%
%FSLAX46Y46*%
G04 Gerber Fmt 4.6, Leading zero omitted, Abs format (unit mm)*
G04 Created by KiCad (PCBNEW 7.0.1) date 2025-03-04 19:41:26*
%MOMM*%
%LPD*%
G01*
G04 APERTURE LIST*
%ADD10O,1.800000X1.800000*%
%ADD11O,1.500000X1.500000*%
%ADD12O,1.700000X1.700000*%
%ADD13R,1.700000X3.500000*%
%ADD14R,1.700000X1.700000*%
%ADD15R,3.500000X1.700000*%
%ADD16O,1.850000X3.048000*%
%ADD17C,1.600000*%
%ADD18O,1.600000X1.600000*%
%ADD19O,1.524000X2.524000*%
%ADD20R,1.524000X2.524000*%
G04 APERTURE END LIST*
D10*
%TO.C,U3*%
X115710000Y-81265000D03*
D11*
X112680000Y-81565000D03*
X112680000Y-86415000D03*
D10*
X115710000Y-86715000D03*
D12*
X115840000Y-75100000D03*
D13*
X115840000Y-74200000D03*
D12*
X113300000Y-75100000D03*
D13*
X113300000Y-74200000D03*
D14*
X110760000Y-75100000D03*
D13*
X110760000Y-74200000D03*
D12*
X108220000Y-75100000D03*
D13*
X108220000Y-74200000D03*
D12*
X105680000Y-75100000D03*
D13*
X105680000Y-74200000D03*
D12*
X103140000Y-75100000D03*
D13*
X103140000Y-74200000D03*
D12*
X100600000Y-75100000D03*
D13*
X100600000Y-74200000D03*
D14*
X98060000Y-75100000D03*
D13*
X98060000Y-74200000D03*
D12*
X95520000Y-75100000D03*
D13*
X95520000Y-74200000D03*
D12*
X92980000Y-75100000D03*
D13*
X92980000Y-74200000D03*
D12*
X90440000Y-75100000D03*
D13*
X90440000Y-74200000D03*
D12*
X87900000Y-75100000D03*
D13*
X87900000Y-74200000D03*
D14*
X85360000Y-75100000D03*
D13*
X85360000Y-74200000D03*
D12*
X82820000Y-75100000D03*
D13*
X82820000Y-74200000D03*
D12*
X80280000Y-75100000D03*
D13*
X80280000Y-74200000D03*
D12*
X77740000Y-75100000D03*
D13*
X77740000Y-74200000D03*
D12*
X75200000Y-75100000D03*
D13*
X75200000Y-74200000D03*
D14*
X72660000Y-75100000D03*
D13*
X72660000Y-74200000D03*
D12*
X70120000Y-75100000D03*
D13*
X70120000Y-74200000D03*
D12*
X67580000Y-75100000D03*
D13*
X67580000Y-74200000D03*
D12*
X67580000Y-92880000D03*
D13*
X67580000Y-93780000D03*
D12*
X70120000Y-92880000D03*
D13*
X70120000Y-93780000D03*
D14*
X72660000Y-92880000D03*
D13*
X72660000Y-93780000D03*
D12*
X75200000Y-92880000D03*
D13*
X75200000Y-93780000D03*
D12*
X77740000Y-92880000D03*
D13*
X77740000Y-93780000D03*
D12*
X80280000Y-92880000D03*
D13*
X80280000Y-93780000D03*
D12*
X82820000Y-92880000D03*
D13*
X82820000Y-93780000D03*
D14*
X85360000Y-92880000D03*
D13*
X85360000Y-93780000D03*
D12*
X87900000Y-92880000D03*
D13*
X87900000Y-93780000D03*
D12*
X90440000Y-92880000D03*
D13*
X90440000Y-93780000D03*
D12*
X92980000Y-92880000D03*
D13*
X92980000Y-93780000D03*
D12*
X95520000Y-92880000D03*
D13*
X95520000Y-93780000D03*
D14*
X98060000Y-92880000D03*
D13*
X98060000Y-93780000D03*
D12*
X100600000Y-92880000D03*
D13*
X100600000Y-93780000D03*
D12*
X103140000Y-92880000D03*
D13*
X103140000Y-93780000D03*
D12*
X105680000Y-92880000D03*
D13*
X105680000Y-93780000D03*
D12*
X108220000Y-92880000D03*
D13*
X108220000Y-93780000D03*
D14*
X110760000Y-92880000D03*
D13*
X110760000Y-93780000D03*
D12*
X113300000Y-92880000D03*
D13*
X113300000Y-93780000D03*
D12*
X115840000Y-92880000D03*
D13*
X115840000Y-93780000D03*
D12*
X67810000Y-81450000D03*
D15*
X66910000Y-81450000D03*
D14*
X67810000Y-83990000D03*
D15*
X66910000Y-83990000D03*
D12*
X67810000Y-86530000D03*
D15*
X66910000Y-86530000D03*
%TD*%
D16*
%TO.C,SW2*%
X94000000Y-56000000D03*
X94000000Y-43500000D03*
X89000000Y-56000000D03*
X89000000Y-43500000D03*
%TD*%
D14*
%TO.C,J1*%
X82540000Y-66000000D03*
D12*
X80000000Y-66000000D03*
X77460000Y-66000000D03*
X74920000Y-66000000D03*
X72380000Y-66000000D03*
X69840000Y-66000000D03*
%TD*%
D17*
%TO.C,R1*%
X101500000Y-51120000D03*
D18*
X101500000Y-43500000D03*
%TD*%
D14*
%TO.C,J2*%
X97100000Y-66080000D03*
D12*
X97100000Y-63540000D03*
X97100000Y-61000000D03*
%TD*%
D19*
%TO.C,U1*%
X116380000Y-42500000D03*
X113840000Y-42500000D03*
X111300000Y-42500000D03*
X108760000Y-42500000D03*
X106220000Y-42500000D03*
X106220000Y-57740000D03*
X108760000Y-57740000D03*
X111300000Y-57740000D03*
X113840000Y-57740000D03*
D20*
X116380000Y-57740000D03*
%TD*%
%TO.C,U2*%
X129280000Y-57740000D03*
D19*
X126740000Y-57740000D03*
X124200000Y-57740000D03*
X121660000Y-57740000D03*
X119120000Y-57740000D03*
X119120000Y-42500000D03*
X121660000Y-42500000D03*
X124200000Y-42500000D03*
X126740000Y-42500000D03*
X129280000Y-42500000D03*
%TD*%
D16*
%TO.C,SW1*%
X72600000Y-56000000D03*
X72600000Y-43500000D03*
X67600000Y-56000000D03*
X67600000Y-43500000D03*
%TD*%
M02*
