%TF.GenerationSoftware,KiCad,Pcbnew,7.0.1*%
%TF.CreationDate,2025-03-04T19:41:51-05:00*%
%TF.ProjectId,front_panel,66726f6e-745f-4706-916e-656c2e6b6963,rev?*%
%TF.SameCoordinates,Original*%
%TF.FileFunction,Drillmap*%
%TF.FilePolarity,Positive*%
%FSLAX45Y45*%
G04 Gerber Fmt 4.5, Leading zero omitted, Abs format (unit mm)*
G04 Created by KiCad (PCBNEW 7.0.1) date 2025-03-04 19:41:51*
%MOMM*%
%LPD*%
G01*
G04 APERTURE LIST*
%ADD10C,0.100000*%
%ADD11C,0.200000*%
%ADD12C,0.150000*%
%ADD13C,0.180000*%
G04 APERTURE END LIST*
D10*
X12727475Y-9900000D02*
G75*
G03*
X12727475Y-9900000I-127476J0D01*
G01*
X10227476Y-3900000D02*
G75*
G03*
X10227476Y-3900000I-127476J0D01*
G01*
X6727475Y-9900000D02*
G75*
G03*
X6727475Y-9900000I-127476J0D01*
G01*
X6360000Y-3670000D02*
X13140000Y-3670000D01*
X13140000Y-10195000D01*
X6360000Y-10195000D01*
X6360000Y-3670000D01*
X6727475Y-3900000D02*
G75*
G03*
X6727475Y-3900000I-127476J0D01*
G01*
D11*
D12*
X11193000Y-8081500D02*
X11343000Y-8231500D01*
X11343000Y-8081500D02*
X11193000Y-8231500D01*
X11193000Y-8566500D02*
X11343000Y-8716500D01*
X11343000Y-8566500D02*
X11193000Y-8716500D01*
D13*
X11661000Y-8126500D02*
G75*
G03*
X11661000Y-8126500I-90000J0D01*
G01*
X11661000Y-8671500D02*
G75*
G03*
X11661000Y-8671500I-90000J0D01*
G01*
D11*
X6602619Y-10512524D02*
X6602619Y-10312524D01*
X6602619Y-10312524D02*
X6650238Y-10312524D01*
X6650238Y-10312524D02*
X6678809Y-10322048D01*
X6678809Y-10322048D02*
X6697857Y-10341095D01*
X6697857Y-10341095D02*
X6707381Y-10360143D01*
X6707381Y-10360143D02*
X6716905Y-10398238D01*
X6716905Y-10398238D02*
X6716905Y-10426810D01*
X6716905Y-10426810D02*
X6707381Y-10464905D01*
X6707381Y-10464905D02*
X6697857Y-10483952D01*
X6697857Y-10483952D02*
X6678809Y-10503000D01*
X6678809Y-10503000D02*
X6650238Y-10512524D01*
X6650238Y-10512524D02*
X6602619Y-10512524D01*
X6802619Y-10512524D02*
X6802619Y-10379190D01*
X6802619Y-10417286D02*
X6812143Y-10398238D01*
X6812143Y-10398238D02*
X6821667Y-10388714D01*
X6821667Y-10388714D02*
X6840714Y-10379190D01*
X6840714Y-10379190D02*
X6859762Y-10379190D01*
X6926428Y-10512524D02*
X6926428Y-10379190D01*
X6926428Y-10312524D02*
X6916905Y-10322048D01*
X6916905Y-10322048D02*
X6926428Y-10331571D01*
X6926428Y-10331571D02*
X6935952Y-10322048D01*
X6935952Y-10322048D02*
X6926428Y-10312524D01*
X6926428Y-10312524D02*
X6926428Y-10331571D01*
X7050238Y-10512524D02*
X7031190Y-10503000D01*
X7031190Y-10503000D02*
X7021667Y-10483952D01*
X7021667Y-10483952D02*
X7021667Y-10312524D01*
X7155000Y-10512524D02*
X7135952Y-10503000D01*
X7135952Y-10503000D02*
X7126428Y-10483952D01*
X7126428Y-10483952D02*
X7126428Y-10312524D01*
X7383571Y-10512524D02*
X7383571Y-10312524D01*
X7383571Y-10312524D02*
X7450238Y-10455381D01*
X7450238Y-10455381D02*
X7516905Y-10312524D01*
X7516905Y-10312524D02*
X7516905Y-10512524D01*
X7697857Y-10512524D02*
X7697857Y-10407762D01*
X7697857Y-10407762D02*
X7688333Y-10388714D01*
X7688333Y-10388714D02*
X7669286Y-10379190D01*
X7669286Y-10379190D02*
X7631190Y-10379190D01*
X7631190Y-10379190D02*
X7612143Y-10388714D01*
X7697857Y-10503000D02*
X7678809Y-10512524D01*
X7678809Y-10512524D02*
X7631190Y-10512524D01*
X7631190Y-10512524D02*
X7612143Y-10503000D01*
X7612143Y-10503000D02*
X7602619Y-10483952D01*
X7602619Y-10483952D02*
X7602619Y-10464905D01*
X7602619Y-10464905D02*
X7612143Y-10445857D01*
X7612143Y-10445857D02*
X7631190Y-10436333D01*
X7631190Y-10436333D02*
X7678809Y-10436333D01*
X7678809Y-10436333D02*
X7697857Y-10426810D01*
X7793095Y-10379190D02*
X7793095Y-10579190D01*
X7793095Y-10388714D02*
X7812143Y-10379190D01*
X7812143Y-10379190D02*
X7850238Y-10379190D01*
X7850238Y-10379190D02*
X7869286Y-10388714D01*
X7869286Y-10388714D02*
X7878809Y-10398238D01*
X7878809Y-10398238D02*
X7888333Y-10417286D01*
X7888333Y-10417286D02*
X7888333Y-10474429D01*
X7888333Y-10474429D02*
X7878809Y-10493476D01*
X7878809Y-10493476D02*
X7869286Y-10503000D01*
X7869286Y-10503000D02*
X7850238Y-10512524D01*
X7850238Y-10512524D02*
X7812143Y-10512524D01*
X7812143Y-10512524D02*
X7793095Y-10503000D01*
X7974048Y-10493476D02*
X7983571Y-10503000D01*
X7983571Y-10503000D02*
X7974048Y-10512524D01*
X7974048Y-10512524D02*
X7964524Y-10503000D01*
X7964524Y-10503000D02*
X7974048Y-10493476D01*
X7974048Y-10493476D02*
X7974048Y-10512524D01*
X7974048Y-10388714D02*
X7983571Y-10398238D01*
X7983571Y-10398238D02*
X7974048Y-10407762D01*
X7974048Y-10407762D02*
X7964524Y-10398238D01*
X7964524Y-10398238D02*
X7974048Y-10388714D01*
X7974048Y-10388714D02*
X7974048Y-10407762D01*
D12*
X6205000Y-10765000D02*
X6355000Y-10915000D01*
X6355000Y-10765000D02*
X6205000Y-10915000D01*
D11*
X6707381Y-10932524D02*
X6593095Y-10932524D01*
X6650238Y-10932524D02*
X6650238Y-10732524D01*
X6650238Y-10732524D02*
X6631190Y-10761095D01*
X6631190Y-10761095D02*
X6612143Y-10780143D01*
X6612143Y-10780143D02*
X6593095Y-10789667D01*
X6793095Y-10913476D02*
X6802619Y-10923000D01*
X6802619Y-10923000D02*
X6793095Y-10932524D01*
X6793095Y-10932524D02*
X6783571Y-10923000D01*
X6783571Y-10923000D02*
X6793095Y-10913476D01*
X6793095Y-10913476D02*
X6793095Y-10932524D01*
X6983571Y-10732524D02*
X6888333Y-10732524D01*
X6888333Y-10732524D02*
X6878809Y-10827762D01*
X6878809Y-10827762D02*
X6888333Y-10818238D01*
X6888333Y-10818238D02*
X6907381Y-10808714D01*
X6907381Y-10808714D02*
X6955000Y-10808714D01*
X6955000Y-10808714D02*
X6974048Y-10818238D01*
X6974048Y-10818238D02*
X6983571Y-10827762D01*
X6983571Y-10827762D02*
X6993095Y-10846810D01*
X6993095Y-10846810D02*
X6993095Y-10894429D01*
X6993095Y-10894429D02*
X6983571Y-10913476D01*
X6983571Y-10913476D02*
X6974048Y-10923000D01*
X6974048Y-10923000D02*
X6955000Y-10932524D01*
X6955000Y-10932524D02*
X6907381Y-10932524D01*
X6907381Y-10932524D02*
X6888333Y-10923000D01*
X6888333Y-10923000D02*
X6878809Y-10913476D01*
X7116905Y-10732524D02*
X7135952Y-10732524D01*
X7135952Y-10732524D02*
X7155000Y-10742048D01*
X7155000Y-10742048D02*
X7164524Y-10751571D01*
X7164524Y-10751571D02*
X7174048Y-10770619D01*
X7174048Y-10770619D02*
X7183571Y-10808714D01*
X7183571Y-10808714D02*
X7183571Y-10856333D01*
X7183571Y-10856333D02*
X7174048Y-10894429D01*
X7174048Y-10894429D02*
X7164524Y-10913476D01*
X7164524Y-10913476D02*
X7155000Y-10923000D01*
X7155000Y-10923000D02*
X7135952Y-10932524D01*
X7135952Y-10932524D02*
X7116905Y-10932524D01*
X7116905Y-10932524D02*
X7097857Y-10923000D01*
X7097857Y-10923000D02*
X7088333Y-10913476D01*
X7088333Y-10913476D02*
X7078809Y-10894429D01*
X7078809Y-10894429D02*
X7069286Y-10856333D01*
X7069286Y-10856333D02*
X7069286Y-10808714D01*
X7069286Y-10808714D02*
X7078809Y-10770619D01*
X7078809Y-10770619D02*
X7088333Y-10751571D01*
X7088333Y-10751571D02*
X7097857Y-10742048D01*
X7097857Y-10742048D02*
X7116905Y-10732524D01*
X7307381Y-10732524D02*
X7326429Y-10732524D01*
X7326429Y-10732524D02*
X7345476Y-10742048D01*
X7345476Y-10742048D02*
X7355000Y-10751571D01*
X7355000Y-10751571D02*
X7364524Y-10770619D01*
X7364524Y-10770619D02*
X7374048Y-10808714D01*
X7374048Y-10808714D02*
X7374048Y-10856333D01*
X7374048Y-10856333D02*
X7364524Y-10894429D01*
X7364524Y-10894429D02*
X7355000Y-10913476D01*
X7355000Y-10913476D02*
X7345476Y-10923000D01*
X7345476Y-10923000D02*
X7326429Y-10932524D01*
X7326429Y-10932524D02*
X7307381Y-10932524D01*
X7307381Y-10932524D02*
X7288333Y-10923000D01*
X7288333Y-10923000D02*
X7278809Y-10913476D01*
X7278809Y-10913476D02*
X7269286Y-10894429D01*
X7269286Y-10894429D02*
X7259762Y-10856333D01*
X7259762Y-10856333D02*
X7259762Y-10808714D01*
X7259762Y-10808714D02*
X7269286Y-10770619D01*
X7269286Y-10770619D02*
X7278809Y-10751571D01*
X7278809Y-10751571D02*
X7288333Y-10742048D01*
X7288333Y-10742048D02*
X7307381Y-10732524D01*
X7459762Y-10932524D02*
X7459762Y-10799190D01*
X7459762Y-10818238D02*
X7469286Y-10808714D01*
X7469286Y-10808714D02*
X7488333Y-10799190D01*
X7488333Y-10799190D02*
X7516905Y-10799190D01*
X7516905Y-10799190D02*
X7535952Y-10808714D01*
X7535952Y-10808714D02*
X7545476Y-10827762D01*
X7545476Y-10827762D02*
X7545476Y-10932524D01*
X7545476Y-10827762D02*
X7555000Y-10808714D01*
X7555000Y-10808714D02*
X7574048Y-10799190D01*
X7574048Y-10799190D02*
X7602619Y-10799190D01*
X7602619Y-10799190D02*
X7621667Y-10808714D01*
X7621667Y-10808714D02*
X7631190Y-10827762D01*
X7631190Y-10827762D02*
X7631190Y-10932524D01*
X7726429Y-10932524D02*
X7726429Y-10799190D01*
X7726429Y-10818238D02*
X7735952Y-10808714D01*
X7735952Y-10808714D02*
X7755000Y-10799190D01*
X7755000Y-10799190D02*
X7783571Y-10799190D01*
X7783571Y-10799190D02*
X7802619Y-10808714D01*
X7802619Y-10808714D02*
X7812143Y-10827762D01*
X7812143Y-10827762D02*
X7812143Y-10932524D01*
X7812143Y-10827762D02*
X7821667Y-10808714D01*
X7821667Y-10808714D02*
X7840714Y-10799190D01*
X7840714Y-10799190D02*
X7869286Y-10799190D01*
X7869286Y-10799190D02*
X7888333Y-10808714D01*
X7888333Y-10808714D02*
X7897857Y-10827762D01*
X7897857Y-10827762D02*
X7897857Y-10932524D01*
X8288333Y-10723000D02*
X8116905Y-10980143D01*
X8545476Y-10732524D02*
X8564524Y-10732524D01*
X8564524Y-10732524D02*
X8583572Y-10742048D01*
X8583572Y-10742048D02*
X8593095Y-10751571D01*
X8593095Y-10751571D02*
X8602619Y-10770619D01*
X8602619Y-10770619D02*
X8612143Y-10808714D01*
X8612143Y-10808714D02*
X8612143Y-10856333D01*
X8612143Y-10856333D02*
X8602619Y-10894429D01*
X8602619Y-10894429D02*
X8593095Y-10913476D01*
X8593095Y-10913476D02*
X8583572Y-10923000D01*
X8583572Y-10923000D02*
X8564524Y-10932524D01*
X8564524Y-10932524D02*
X8545476Y-10932524D01*
X8545476Y-10932524D02*
X8526429Y-10923000D01*
X8526429Y-10923000D02*
X8516905Y-10913476D01*
X8516905Y-10913476D02*
X8507381Y-10894429D01*
X8507381Y-10894429D02*
X8497857Y-10856333D01*
X8497857Y-10856333D02*
X8497857Y-10808714D01*
X8497857Y-10808714D02*
X8507381Y-10770619D01*
X8507381Y-10770619D02*
X8516905Y-10751571D01*
X8516905Y-10751571D02*
X8526429Y-10742048D01*
X8526429Y-10742048D02*
X8545476Y-10732524D01*
X8697857Y-10913476D02*
X8707381Y-10923000D01*
X8707381Y-10923000D02*
X8697857Y-10932524D01*
X8697857Y-10932524D02*
X8688334Y-10923000D01*
X8688334Y-10923000D02*
X8697857Y-10913476D01*
X8697857Y-10913476D02*
X8697857Y-10932524D01*
X8831191Y-10732524D02*
X8850238Y-10732524D01*
X8850238Y-10732524D02*
X8869286Y-10742048D01*
X8869286Y-10742048D02*
X8878810Y-10751571D01*
X8878810Y-10751571D02*
X8888334Y-10770619D01*
X8888334Y-10770619D02*
X8897857Y-10808714D01*
X8897857Y-10808714D02*
X8897857Y-10856333D01*
X8897857Y-10856333D02*
X8888334Y-10894429D01*
X8888334Y-10894429D02*
X8878810Y-10913476D01*
X8878810Y-10913476D02*
X8869286Y-10923000D01*
X8869286Y-10923000D02*
X8850238Y-10932524D01*
X8850238Y-10932524D02*
X8831191Y-10932524D01*
X8831191Y-10932524D02*
X8812143Y-10923000D01*
X8812143Y-10923000D02*
X8802619Y-10913476D01*
X8802619Y-10913476D02*
X8793095Y-10894429D01*
X8793095Y-10894429D02*
X8783572Y-10856333D01*
X8783572Y-10856333D02*
X8783572Y-10808714D01*
X8783572Y-10808714D02*
X8793095Y-10770619D01*
X8793095Y-10770619D02*
X8802619Y-10751571D01*
X8802619Y-10751571D02*
X8812143Y-10742048D01*
X8812143Y-10742048D02*
X8831191Y-10732524D01*
X9078810Y-10732524D02*
X8983572Y-10732524D01*
X8983572Y-10732524D02*
X8974048Y-10827762D01*
X8974048Y-10827762D02*
X8983572Y-10818238D01*
X8983572Y-10818238D02*
X9002619Y-10808714D01*
X9002619Y-10808714D02*
X9050238Y-10808714D01*
X9050238Y-10808714D02*
X9069286Y-10818238D01*
X9069286Y-10818238D02*
X9078810Y-10827762D01*
X9078810Y-10827762D02*
X9088334Y-10846810D01*
X9088334Y-10846810D02*
X9088334Y-10894429D01*
X9088334Y-10894429D02*
X9078810Y-10913476D01*
X9078810Y-10913476D02*
X9069286Y-10923000D01*
X9069286Y-10923000D02*
X9050238Y-10932524D01*
X9050238Y-10932524D02*
X9002619Y-10932524D01*
X9002619Y-10932524D02*
X8983572Y-10923000D01*
X8983572Y-10923000D02*
X8974048Y-10913476D01*
X9183572Y-10932524D02*
X9221667Y-10932524D01*
X9221667Y-10932524D02*
X9240715Y-10923000D01*
X9240715Y-10923000D02*
X9250238Y-10913476D01*
X9250238Y-10913476D02*
X9269286Y-10884905D01*
X9269286Y-10884905D02*
X9278810Y-10846810D01*
X9278810Y-10846810D02*
X9278810Y-10770619D01*
X9278810Y-10770619D02*
X9269286Y-10751571D01*
X9269286Y-10751571D02*
X9259762Y-10742048D01*
X9259762Y-10742048D02*
X9240715Y-10732524D01*
X9240715Y-10732524D02*
X9202619Y-10732524D01*
X9202619Y-10732524D02*
X9183572Y-10742048D01*
X9183572Y-10742048D02*
X9174048Y-10751571D01*
X9174048Y-10751571D02*
X9164524Y-10770619D01*
X9164524Y-10770619D02*
X9164524Y-10818238D01*
X9164524Y-10818238D02*
X9174048Y-10837286D01*
X9174048Y-10837286D02*
X9183572Y-10846810D01*
X9183572Y-10846810D02*
X9202619Y-10856333D01*
X9202619Y-10856333D02*
X9240715Y-10856333D01*
X9240715Y-10856333D02*
X9259762Y-10846810D01*
X9259762Y-10846810D02*
X9269286Y-10837286D01*
X9269286Y-10837286D02*
X9278810Y-10818238D01*
X9469286Y-10932524D02*
X9355000Y-10932524D01*
X9412143Y-10932524D02*
X9412143Y-10732524D01*
X9412143Y-10732524D02*
X9393095Y-10761095D01*
X9393095Y-10761095D02*
X9374048Y-10780143D01*
X9374048Y-10780143D02*
X9355000Y-10789667D01*
X9545476Y-10732524D02*
X9545476Y-10770619D01*
X9621667Y-10732524D02*
X9621667Y-10770619D01*
X9916905Y-11008714D02*
X9907381Y-10999190D01*
X9907381Y-10999190D02*
X9888334Y-10970619D01*
X9888334Y-10970619D02*
X9878810Y-10951571D01*
X9878810Y-10951571D02*
X9869286Y-10923000D01*
X9869286Y-10923000D02*
X9859762Y-10875381D01*
X9859762Y-10875381D02*
X9859762Y-10837286D01*
X9859762Y-10837286D02*
X9869286Y-10789667D01*
X9869286Y-10789667D02*
X9878810Y-10761095D01*
X9878810Y-10761095D02*
X9888334Y-10742048D01*
X9888334Y-10742048D02*
X9907381Y-10713476D01*
X9907381Y-10713476D02*
X9916905Y-10703952D01*
X9983572Y-10751571D02*
X9993096Y-10742048D01*
X9993096Y-10742048D02*
X10012143Y-10732524D01*
X10012143Y-10732524D02*
X10059762Y-10732524D01*
X10059762Y-10732524D02*
X10078810Y-10742048D01*
X10078810Y-10742048D02*
X10088334Y-10751571D01*
X10088334Y-10751571D02*
X10097857Y-10770619D01*
X10097857Y-10770619D02*
X10097857Y-10789667D01*
X10097857Y-10789667D02*
X10088334Y-10818238D01*
X10088334Y-10818238D02*
X9974048Y-10932524D01*
X9974048Y-10932524D02*
X10097857Y-10932524D01*
X10335953Y-10932524D02*
X10335953Y-10732524D01*
X10421667Y-10932524D02*
X10421667Y-10827762D01*
X10421667Y-10827762D02*
X10412143Y-10808714D01*
X10412143Y-10808714D02*
X10393096Y-10799190D01*
X10393096Y-10799190D02*
X10364524Y-10799190D01*
X10364524Y-10799190D02*
X10345477Y-10808714D01*
X10345477Y-10808714D02*
X10335953Y-10818238D01*
X10545477Y-10932524D02*
X10526429Y-10923000D01*
X10526429Y-10923000D02*
X10516905Y-10913476D01*
X10516905Y-10913476D02*
X10507381Y-10894429D01*
X10507381Y-10894429D02*
X10507381Y-10837286D01*
X10507381Y-10837286D02*
X10516905Y-10818238D01*
X10516905Y-10818238D02*
X10526429Y-10808714D01*
X10526429Y-10808714D02*
X10545477Y-10799190D01*
X10545477Y-10799190D02*
X10574048Y-10799190D01*
X10574048Y-10799190D02*
X10593096Y-10808714D01*
X10593096Y-10808714D02*
X10602619Y-10818238D01*
X10602619Y-10818238D02*
X10612143Y-10837286D01*
X10612143Y-10837286D02*
X10612143Y-10894429D01*
X10612143Y-10894429D02*
X10602619Y-10913476D01*
X10602619Y-10913476D02*
X10593096Y-10923000D01*
X10593096Y-10923000D02*
X10574048Y-10932524D01*
X10574048Y-10932524D02*
X10545477Y-10932524D01*
X10726429Y-10932524D02*
X10707381Y-10923000D01*
X10707381Y-10923000D02*
X10697858Y-10903952D01*
X10697858Y-10903952D02*
X10697858Y-10732524D01*
X10878810Y-10923000D02*
X10859762Y-10932524D01*
X10859762Y-10932524D02*
X10821667Y-10932524D01*
X10821667Y-10932524D02*
X10802619Y-10923000D01*
X10802619Y-10923000D02*
X10793096Y-10903952D01*
X10793096Y-10903952D02*
X10793096Y-10827762D01*
X10793096Y-10827762D02*
X10802619Y-10808714D01*
X10802619Y-10808714D02*
X10821667Y-10799190D01*
X10821667Y-10799190D02*
X10859762Y-10799190D01*
X10859762Y-10799190D02*
X10878810Y-10808714D01*
X10878810Y-10808714D02*
X10888334Y-10827762D01*
X10888334Y-10827762D02*
X10888334Y-10846810D01*
X10888334Y-10846810D02*
X10793096Y-10865857D01*
X10964524Y-10923000D02*
X10983572Y-10932524D01*
X10983572Y-10932524D02*
X11021667Y-10932524D01*
X11021667Y-10932524D02*
X11040715Y-10923000D01*
X11040715Y-10923000D02*
X11050239Y-10903952D01*
X11050239Y-10903952D02*
X11050239Y-10894429D01*
X11050239Y-10894429D02*
X11040715Y-10875381D01*
X11040715Y-10875381D02*
X11021667Y-10865857D01*
X11021667Y-10865857D02*
X10993096Y-10865857D01*
X10993096Y-10865857D02*
X10974048Y-10856333D01*
X10974048Y-10856333D02*
X10964524Y-10837286D01*
X10964524Y-10837286D02*
X10964524Y-10827762D01*
X10964524Y-10827762D02*
X10974048Y-10808714D01*
X10974048Y-10808714D02*
X10993096Y-10799190D01*
X10993096Y-10799190D02*
X11021667Y-10799190D01*
X11021667Y-10799190D02*
X11040715Y-10808714D01*
X11116905Y-11008714D02*
X11126429Y-10999190D01*
X11126429Y-10999190D02*
X11145477Y-10970619D01*
X11145477Y-10970619D02*
X11155000Y-10951571D01*
X11155000Y-10951571D02*
X11164524Y-10923000D01*
X11164524Y-10923000D02*
X11174048Y-10875381D01*
X11174048Y-10875381D02*
X11174048Y-10837286D01*
X11174048Y-10837286D02*
X11164524Y-10789667D01*
X11164524Y-10789667D02*
X11155000Y-10761095D01*
X11155000Y-10761095D02*
X11145477Y-10742048D01*
X11145477Y-10742048D02*
X11126429Y-10713476D01*
X11126429Y-10713476D02*
X11116905Y-10703952D01*
X11478810Y-11008714D02*
X11469286Y-10999190D01*
X11469286Y-10999190D02*
X11450238Y-10970619D01*
X11450238Y-10970619D02*
X11440715Y-10951571D01*
X11440715Y-10951571D02*
X11431191Y-10923000D01*
X11431191Y-10923000D02*
X11421667Y-10875381D01*
X11421667Y-10875381D02*
X11421667Y-10837286D01*
X11421667Y-10837286D02*
X11431191Y-10789667D01*
X11431191Y-10789667D02*
X11440715Y-10761095D01*
X11440715Y-10761095D02*
X11450238Y-10742048D01*
X11450238Y-10742048D02*
X11469286Y-10713476D01*
X11469286Y-10713476D02*
X11478810Y-10703952D01*
X11555000Y-10799190D02*
X11555000Y-10932524D01*
X11555000Y-10818238D02*
X11564524Y-10808714D01*
X11564524Y-10808714D02*
X11583572Y-10799190D01*
X11583572Y-10799190D02*
X11612143Y-10799190D01*
X11612143Y-10799190D02*
X11631191Y-10808714D01*
X11631191Y-10808714D02*
X11640715Y-10827762D01*
X11640715Y-10827762D02*
X11640715Y-10932524D01*
X11764524Y-10932524D02*
X11745477Y-10923000D01*
X11745477Y-10923000D02*
X11735953Y-10913476D01*
X11735953Y-10913476D02*
X11726429Y-10894429D01*
X11726429Y-10894429D02*
X11726429Y-10837286D01*
X11726429Y-10837286D02*
X11735953Y-10818238D01*
X11735953Y-10818238D02*
X11745477Y-10808714D01*
X11745477Y-10808714D02*
X11764524Y-10799190D01*
X11764524Y-10799190D02*
X11793096Y-10799190D01*
X11793096Y-10799190D02*
X11812143Y-10808714D01*
X11812143Y-10808714D02*
X11821667Y-10818238D01*
X11821667Y-10818238D02*
X11831191Y-10837286D01*
X11831191Y-10837286D02*
X11831191Y-10894429D01*
X11831191Y-10894429D02*
X11821667Y-10913476D01*
X11821667Y-10913476D02*
X11812143Y-10923000D01*
X11812143Y-10923000D02*
X11793096Y-10932524D01*
X11793096Y-10932524D02*
X11764524Y-10932524D01*
X11888334Y-10799190D02*
X11964524Y-10799190D01*
X11916905Y-10732524D02*
X11916905Y-10903952D01*
X11916905Y-10903952D02*
X11926429Y-10923000D01*
X11926429Y-10923000D02*
X11945477Y-10932524D01*
X11945477Y-10932524D02*
X11964524Y-10932524D01*
X12183572Y-10799190D02*
X12183572Y-10999190D01*
X12183572Y-10808714D02*
X12202619Y-10799190D01*
X12202619Y-10799190D02*
X12240715Y-10799190D01*
X12240715Y-10799190D02*
X12259762Y-10808714D01*
X12259762Y-10808714D02*
X12269286Y-10818238D01*
X12269286Y-10818238D02*
X12278810Y-10837286D01*
X12278810Y-10837286D02*
X12278810Y-10894429D01*
X12278810Y-10894429D02*
X12269286Y-10913476D01*
X12269286Y-10913476D02*
X12259762Y-10923000D01*
X12259762Y-10923000D02*
X12240715Y-10932524D01*
X12240715Y-10932524D02*
X12202619Y-10932524D01*
X12202619Y-10932524D02*
X12183572Y-10923000D01*
X12393096Y-10932524D02*
X12374048Y-10923000D01*
X12374048Y-10923000D02*
X12364524Y-10903952D01*
X12364524Y-10903952D02*
X12364524Y-10732524D01*
X12555000Y-10932524D02*
X12555000Y-10827762D01*
X12555000Y-10827762D02*
X12545477Y-10808714D01*
X12545477Y-10808714D02*
X12526429Y-10799190D01*
X12526429Y-10799190D02*
X12488334Y-10799190D01*
X12488334Y-10799190D02*
X12469286Y-10808714D01*
X12555000Y-10923000D02*
X12535953Y-10932524D01*
X12535953Y-10932524D02*
X12488334Y-10932524D01*
X12488334Y-10932524D02*
X12469286Y-10923000D01*
X12469286Y-10923000D02*
X12459762Y-10903952D01*
X12459762Y-10903952D02*
X12459762Y-10884905D01*
X12459762Y-10884905D02*
X12469286Y-10865857D01*
X12469286Y-10865857D02*
X12488334Y-10856333D01*
X12488334Y-10856333D02*
X12535953Y-10856333D01*
X12535953Y-10856333D02*
X12555000Y-10846810D01*
X12621667Y-10799190D02*
X12697858Y-10799190D01*
X12650239Y-10732524D02*
X12650239Y-10903952D01*
X12650239Y-10903952D02*
X12659762Y-10923000D01*
X12659762Y-10923000D02*
X12678810Y-10932524D01*
X12678810Y-10932524D02*
X12697858Y-10932524D01*
X12840715Y-10923000D02*
X12821667Y-10932524D01*
X12821667Y-10932524D02*
X12783572Y-10932524D01*
X12783572Y-10932524D02*
X12764524Y-10923000D01*
X12764524Y-10923000D02*
X12755000Y-10903952D01*
X12755000Y-10903952D02*
X12755000Y-10827762D01*
X12755000Y-10827762D02*
X12764524Y-10808714D01*
X12764524Y-10808714D02*
X12783572Y-10799190D01*
X12783572Y-10799190D02*
X12821667Y-10799190D01*
X12821667Y-10799190D02*
X12840715Y-10808714D01*
X12840715Y-10808714D02*
X12850239Y-10827762D01*
X12850239Y-10827762D02*
X12850239Y-10846810D01*
X12850239Y-10846810D02*
X12755000Y-10865857D01*
X13021667Y-10932524D02*
X13021667Y-10732524D01*
X13021667Y-10923000D02*
X13002620Y-10932524D01*
X13002620Y-10932524D02*
X12964524Y-10932524D01*
X12964524Y-10932524D02*
X12945477Y-10923000D01*
X12945477Y-10923000D02*
X12935953Y-10913476D01*
X12935953Y-10913476D02*
X12926429Y-10894429D01*
X12926429Y-10894429D02*
X12926429Y-10837286D01*
X12926429Y-10837286D02*
X12935953Y-10818238D01*
X12935953Y-10818238D02*
X12945477Y-10808714D01*
X12945477Y-10808714D02*
X12964524Y-10799190D01*
X12964524Y-10799190D02*
X13002620Y-10799190D01*
X13002620Y-10799190D02*
X13021667Y-10808714D01*
X13097858Y-11008714D02*
X13107381Y-10999190D01*
X13107381Y-10999190D02*
X13126429Y-10970619D01*
X13126429Y-10970619D02*
X13135953Y-10951571D01*
X13135953Y-10951571D02*
X13145477Y-10923000D01*
X13145477Y-10923000D02*
X13155000Y-10875381D01*
X13155000Y-10875381D02*
X13155000Y-10837286D01*
X13155000Y-10837286D02*
X13145477Y-10789667D01*
X13145477Y-10789667D02*
X13135953Y-10761095D01*
X13135953Y-10761095D02*
X13126429Y-10742048D01*
X13126429Y-10742048D02*
X13107381Y-10713476D01*
X13107381Y-10713476D02*
X13097858Y-10703952D01*
D13*
X6355000Y-11110000D02*
G75*
G03*
X6355000Y-11110000I-90000J0D01*
G01*
D11*
X6707381Y-11202524D02*
X6593095Y-11202524D01*
X6650238Y-11202524D02*
X6650238Y-11002524D01*
X6650238Y-11002524D02*
X6631190Y-11031095D01*
X6631190Y-11031095D02*
X6612143Y-11050143D01*
X6612143Y-11050143D02*
X6593095Y-11059667D01*
X6793095Y-11183476D02*
X6802619Y-11193000D01*
X6802619Y-11193000D02*
X6793095Y-11202524D01*
X6793095Y-11202524D02*
X6783571Y-11193000D01*
X6783571Y-11193000D02*
X6793095Y-11183476D01*
X6793095Y-11183476D02*
X6793095Y-11202524D01*
X6916905Y-11088238D02*
X6897857Y-11078714D01*
X6897857Y-11078714D02*
X6888333Y-11069190D01*
X6888333Y-11069190D02*
X6878809Y-11050143D01*
X6878809Y-11050143D02*
X6878809Y-11040619D01*
X6878809Y-11040619D02*
X6888333Y-11021571D01*
X6888333Y-11021571D02*
X6897857Y-11012048D01*
X6897857Y-11012048D02*
X6916905Y-11002524D01*
X6916905Y-11002524D02*
X6955000Y-11002524D01*
X6955000Y-11002524D02*
X6974048Y-11012048D01*
X6974048Y-11012048D02*
X6983571Y-11021571D01*
X6983571Y-11021571D02*
X6993095Y-11040619D01*
X6993095Y-11040619D02*
X6993095Y-11050143D01*
X6993095Y-11050143D02*
X6983571Y-11069190D01*
X6983571Y-11069190D02*
X6974048Y-11078714D01*
X6974048Y-11078714D02*
X6955000Y-11088238D01*
X6955000Y-11088238D02*
X6916905Y-11088238D01*
X6916905Y-11088238D02*
X6897857Y-11097762D01*
X6897857Y-11097762D02*
X6888333Y-11107286D01*
X6888333Y-11107286D02*
X6878809Y-11126333D01*
X6878809Y-11126333D02*
X6878809Y-11164429D01*
X6878809Y-11164429D02*
X6888333Y-11183476D01*
X6888333Y-11183476D02*
X6897857Y-11193000D01*
X6897857Y-11193000D02*
X6916905Y-11202524D01*
X6916905Y-11202524D02*
X6955000Y-11202524D01*
X6955000Y-11202524D02*
X6974048Y-11193000D01*
X6974048Y-11193000D02*
X6983571Y-11183476D01*
X6983571Y-11183476D02*
X6993095Y-11164429D01*
X6993095Y-11164429D02*
X6993095Y-11126333D01*
X6993095Y-11126333D02*
X6983571Y-11107286D01*
X6983571Y-11107286D02*
X6974048Y-11097762D01*
X6974048Y-11097762D02*
X6955000Y-11088238D01*
X7116905Y-11002524D02*
X7135952Y-11002524D01*
X7135952Y-11002524D02*
X7155000Y-11012048D01*
X7155000Y-11012048D02*
X7164524Y-11021571D01*
X7164524Y-11021571D02*
X7174048Y-11040619D01*
X7174048Y-11040619D02*
X7183571Y-11078714D01*
X7183571Y-11078714D02*
X7183571Y-11126333D01*
X7183571Y-11126333D02*
X7174048Y-11164429D01*
X7174048Y-11164429D02*
X7164524Y-11183476D01*
X7164524Y-11183476D02*
X7155000Y-11193000D01*
X7155000Y-11193000D02*
X7135952Y-11202524D01*
X7135952Y-11202524D02*
X7116905Y-11202524D01*
X7116905Y-11202524D02*
X7097857Y-11193000D01*
X7097857Y-11193000D02*
X7088333Y-11183476D01*
X7088333Y-11183476D02*
X7078809Y-11164429D01*
X7078809Y-11164429D02*
X7069286Y-11126333D01*
X7069286Y-11126333D02*
X7069286Y-11078714D01*
X7069286Y-11078714D02*
X7078809Y-11040619D01*
X7078809Y-11040619D02*
X7088333Y-11021571D01*
X7088333Y-11021571D02*
X7097857Y-11012048D01*
X7097857Y-11012048D02*
X7116905Y-11002524D01*
X7307381Y-11002524D02*
X7326429Y-11002524D01*
X7326429Y-11002524D02*
X7345476Y-11012048D01*
X7345476Y-11012048D02*
X7355000Y-11021571D01*
X7355000Y-11021571D02*
X7364524Y-11040619D01*
X7364524Y-11040619D02*
X7374048Y-11078714D01*
X7374048Y-11078714D02*
X7374048Y-11126333D01*
X7374048Y-11126333D02*
X7364524Y-11164429D01*
X7364524Y-11164429D02*
X7355000Y-11183476D01*
X7355000Y-11183476D02*
X7345476Y-11193000D01*
X7345476Y-11193000D02*
X7326429Y-11202524D01*
X7326429Y-11202524D02*
X7307381Y-11202524D01*
X7307381Y-11202524D02*
X7288333Y-11193000D01*
X7288333Y-11193000D02*
X7278809Y-11183476D01*
X7278809Y-11183476D02*
X7269286Y-11164429D01*
X7269286Y-11164429D02*
X7259762Y-11126333D01*
X7259762Y-11126333D02*
X7259762Y-11078714D01*
X7259762Y-11078714D02*
X7269286Y-11040619D01*
X7269286Y-11040619D02*
X7278809Y-11021571D01*
X7278809Y-11021571D02*
X7288333Y-11012048D01*
X7288333Y-11012048D02*
X7307381Y-11002524D01*
X7459762Y-11202524D02*
X7459762Y-11069190D01*
X7459762Y-11088238D02*
X7469286Y-11078714D01*
X7469286Y-11078714D02*
X7488333Y-11069190D01*
X7488333Y-11069190D02*
X7516905Y-11069190D01*
X7516905Y-11069190D02*
X7535952Y-11078714D01*
X7535952Y-11078714D02*
X7545476Y-11097762D01*
X7545476Y-11097762D02*
X7545476Y-11202524D01*
X7545476Y-11097762D02*
X7555000Y-11078714D01*
X7555000Y-11078714D02*
X7574048Y-11069190D01*
X7574048Y-11069190D02*
X7602619Y-11069190D01*
X7602619Y-11069190D02*
X7621667Y-11078714D01*
X7621667Y-11078714D02*
X7631190Y-11097762D01*
X7631190Y-11097762D02*
X7631190Y-11202524D01*
X7726429Y-11202524D02*
X7726429Y-11069190D01*
X7726429Y-11088238D02*
X7735952Y-11078714D01*
X7735952Y-11078714D02*
X7755000Y-11069190D01*
X7755000Y-11069190D02*
X7783571Y-11069190D01*
X7783571Y-11069190D02*
X7802619Y-11078714D01*
X7802619Y-11078714D02*
X7812143Y-11097762D01*
X7812143Y-11097762D02*
X7812143Y-11202524D01*
X7812143Y-11097762D02*
X7821667Y-11078714D01*
X7821667Y-11078714D02*
X7840714Y-11069190D01*
X7840714Y-11069190D02*
X7869286Y-11069190D01*
X7869286Y-11069190D02*
X7888333Y-11078714D01*
X7888333Y-11078714D02*
X7897857Y-11097762D01*
X7897857Y-11097762D02*
X7897857Y-11202524D01*
X8288333Y-10993000D02*
X8116905Y-11250143D01*
X8545476Y-11002524D02*
X8564524Y-11002524D01*
X8564524Y-11002524D02*
X8583572Y-11012048D01*
X8583572Y-11012048D02*
X8593095Y-11021571D01*
X8593095Y-11021571D02*
X8602619Y-11040619D01*
X8602619Y-11040619D02*
X8612143Y-11078714D01*
X8612143Y-11078714D02*
X8612143Y-11126333D01*
X8612143Y-11126333D02*
X8602619Y-11164429D01*
X8602619Y-11164429D02*
X8593095Y-11183476D01*
X8593095Y-11183476D02*
X8583572Y-11193000D01*
X8583572Y-11193000D02*
X8564524Y-11202524D01*
X8564524Y-11202524D02*
X8545476Y-11202524D01*
X8545476Y-11202524D02*
X8526429Y-11193000D01*
X8526429Y-11193000D02*
X8516905Y-11183476D01*
X8516905Y-11183476D02*
X8507381Y-11164429D01*
X8507381Y-11164429D02*
X8497857Y-11126333D01*
X8497857Y-11126333D02*
X8497857Y-11078714D01*
X8497857Y-11078714D02*
X8507381Y-11040619D01*
X8507381Y-11040619D02*
X8516905Y-11021571D01*
X8516905Y-11021571D02*
X8526429Y-11012048D01*
X8526429Y-11012048D02*
X8545476Y-11002524D01*
X8697857Y-11183476D02*
X8707381Y-11193000D01*
X8707381Y-11193000D02*
X8697857Y-11202524D01*
X8697857Y-11202524D02*
X8688334Y-11193000D01*
X8688334Y-11193000D02*
X8697857Y-11183476D01*
X8697857Y-11183476D02*
X8697857Y-11202524D01*
X8831191Y-11002524D02*
X8850238Y-11002524D01*
X8850238Y-11002524D02*
X8869286Y-11012048D01*
X8869286Y-11012048D02*
X8878810Y-11021571D01*
X8878810Y-11021571D02*
X8888334Y-11040619D01*
X8888334Y-11040619D02*
X8897857Y-11078714D01*
X8897857Y-11078714D02*
X8897857Y-11126333D01*
X8897857Y-11126333D02*
X8888334Y-11164429D01*
X8888334Y-11164429D02*
X8878810Y-11183476D01*
X8878810Y-11183476D02*
X8869286Y-11193000D01*
X8869286Y-11193000D02*
X8850238Y-11202524D01*
X8850238Y-11202524D02*
X8831191Y-11202524D01*
X8831191Y-11202524D02*
X8812143Y-11193000D01*
X8812143Y-11193000D02*
X8802619Y-11183476D01*
X8802619Y-11183476D02*
X8793095Y-11164429D01*
X8793095Y-11164429D02*
X8783572Y-11126333D01*
X8783572Y-11126333D02*
X8783572Y-11078714D01*
X8783572Y-11078714D02*
X8793095Y-11040619D01*
X8793095Y-11040619D02*
X8802619Y-11021571D01*
X8802619Y-11021571D02*
X8812143Y-11012048D01*
X8812143Y-11012048D02*
X8831191Y-11002524D01*
X8964524Y-11002524D02*
X9097857Y-11002524D01*
X9097857Y-11002524D02*
X9012143Y-11202524D01*
X9212143Y-11002524D02*
X9231191Y-11002524D01*
X9231191Y-11002524D02*
X9250238Y-11012048D01*
X9250238Y-11012048D02*
X9259762Y-11021571D01*
X9259762Y-11021571D02*
X9269286Y-11040619D01*
X9269286Y-11040619D02*
X9278810Y-11078714D01*
X9278810Y-11078714D02*
X9278810Y-11126333D01*
X9278810Y-11126333D02*
X9269286Y-11164429D01*
X9269286Y-11164429D02*
X9259762Y-11183476D01*
X9259762Y-11183476D02*
X9250238Y-11193000D01*
X9250238Y-11193000D02*
X9231191Y-11202524D01*
X9231191Y-11202524D02*
X9212143Y-11202524D01*
X9212143Y-11202524D02*
X9193095Y-11193000D01*
X9193095Y-11193000D02*
X9183572Y-11183476D01*
X9183572Y-11183476D02*
X9174048Y-11164429D01*
X9174048Y-11164429D02*
X9164524Y-11126333D01*
X9164524Y-11126333D02*
X9164524Y-11078714D01*
X9164524Y-11078714D02*
X9174048Y-11040619D01*
X9174048Y-11040619D02*
X9183572Y-11021571D01*
X9183572Y-11021571D02*
X9193095Y-11012048D01*
X9193095Y-11012048D02*
X9212143Y-11002524D01*
X9374048Y-11202524D02*
X9412143Y-11202524D01*
X9412143Y-11202524D02*
X9431191Y-11193000D01*
X9431191Y-11193000D02*
X9440715Y-11183476D01*
X9440715Y-11183476D02*
X9459762Y-11154905D01*
X9459762Y-11154905D02*
X9469286Y-11116810D01*
X9469286Y-11116810D02*
X9469286Y-11040619D01*
X9469286Y-11040619D02*
X9459762Y-11021571D01*
X9459762Y-11021571D02*
X9450238Y-11012048D01*
X9450238Y-11012048D02*
X9431191Y-11002524D01*
X9431191Y-11002524D02*
X9393095Y-11002524D01*
X9393095Y-11002524D02*
X9374048Y-11012048D01*
X9374048Y-11012048D02*
X9364524Y-11021571D01*
X9364524Y-11021571D02*
X9355000Y-11040619D01*
X9355000Y-11040619D02*
X9355000Y-11088238D01*
X9355000Y-11088238D02*
X9364524Y-11107286D01*
X9364524Y-11107286D02*
X9374048Y-11116810D01*
X9374048Y-11116810D02*
X9393095Y-11126333D01*
X9393095Y-11126333D02*
X9431191Y-11126333D01*
X9431191Y-11126333D02*
X9450238Y-11116810D01*
X9450238Y-11116810D02*
X9459762Y-11107286D01*
X9459762Y-11107286D02*
X9469286Y-11088238D01*
X9545476Y-11002524D02*
X9545476Y-11040619D01*
X9621667Y-11002524D02*
X9621667Y-11040619D01*
X9916905Y-11278714D02*
X9907381Y-11269190D01*
X9907381Y-11269190D02*
X9888334Y-11240619D01*
X9888334Y-11240619D02*
X9878810Y-11221571D01*
X9878810Y-11221571D02*
X9869286Y-11193000D01*
X9869286Y-11193000D02*
X9859762Y-11145381D01*
X9859762Y-11145381D02*
X9859762Y-11107286D01*
X9859762Y-11107286D02*
X9869286Y-11059667D01*
X9869286Y-11059667D02*
X9878810Y-11031095D01*
X9878810Y-11031095D02*
X9888334Y-11012048D01*
X9888334Y-11012048D02*
X9907381Y-10983476D01*
X9907381Y-10983476D02*
X9916905Y-10973952D01*
X9983572Y-11021571D02*
X9993096Y-11012048D01*
X9993096Y-11012048D02*
X10012143Y-11002524D01*
X10012143Y-11002524D02*
X10059762Y-11002524D01*
X10059762Y-11002524D02*
X10078810Y-11012048D01*
X10078810Y-11012048D02*
X10088334Y-11021571D01*
X10088334Y-11021571D02*
X10097857Y-11040619D01*
X10097857Y-11040619D02*
X10097857Y-11059667D01*
X10097857Y-11059667D02*
X10088334Y-11088238D01*
X10088334Y-11088238D02*
X9974048Y-11202524D01*
X9974048Y-11202524D02*
X10097857Y-11202524D01*
X10335953Y-11202524D02*
X10335953Y-11002524D01*
X10421667Y-11202524D02*
X10421667Y-11097762D01*
X10421667Y-11097762D02*
X10412143Y-11078714D01*
X10412143Y-11078714D02*
X10393096Y-11069190D01*
X10393096Y-11069190D02*
X10364524Y-11069190D01*
X10364524Y-11069190D02*
X10345477Y-11078714D01*
X10345477Y-11078714D02*
X10335953Y-11088238D01*
X10545477Y-11202524D02*
X10526429Y-11193000D01*
X10526429Y-11193000D02*
X10516905Y-11183476D01*
X10516905Y-11183476D02*
X10507381Y-11164429D01*
X10507381Y-11164429D02*
X10507381Y-11107286D01*
X10507381Y-11107286D02*
X10516905Y-11088238D01*
X10516905Y-11088238D02*
X10526429Y-11078714D01*
X10526429Y-11078714D02*
X10545477Y-11069190D01*
X10545477Y-11069190D02*
X10574048Y-11069190D01*
X10574048Y-11069190D02*
X10593096Y-11078714D01*
X10593096Y-11078714D02*
X10602619Y-11088238D01*
X10602619Y-11088238D02*
X10612143Y-11107286D01*
X10612143Y-11107286D02*
X10612143Y-11164429D01*
X10612143Y-11164429D02*
X10602619Y-11183476D01*
X10602619Y-11183476D02*
X10593096Y-11193000D01*
X10593096Y-11193000D02*
X10574048Y-11202524D01*
X10574048Y-11202524D02*
X10545477Y-11202524D01*
X10726429Y-11202524D02*
X10707381Y-11193000D01*
X10707381Y-11193000D02*
X10697858Y-11173952D01*
X10697858Y-11173952D02*
X10697858Y-11002524D01*
X10878810Y-11193000D02*
X10859762Y-11202524D01*
X10859762Y-11202524D02*
X10821667Y-11202524D01*
X10821667Y-11202524D02*
X10802619Y-11193000D01*
X10802619Y-11193000D02*
X10793096Y-11173952D01*
X10793096Y-11173952D02*
X10793096Y-11097762D01*
X10793096Y-11097762D02*
X10802619Y-11078714D01*
X10802619Y-11078714D02*
X10821667Y-11069190D01*
X10821667Y-11069190D02*
X10859762Y-11069190D01*
X10859762Y-11069190D02*
X10878810Y-11078714D01*
X10878810Y-11078714D02*
X10888334Y-11097762D01*
X10888334Y-11097762D02*
X10888334Y-11116810D01*
X10888334Y-11116810D02*
X10793096Y-11135857D01*
X10964524Y-11193000D02*
X10983572Y-11202524D01*
X10983572Y-11202524D02*
X11021667Y-11202524D01*
X11021667Y-11202524D02*
X11040715Y-11193000D01*
X11040715Y-11193000D02*
X11050239Y-11173952D01*
X11050239Y-11173952D02*
X11050239Y-11164429D01*
X11050239Y-11164429D02*
X11040715Y-11145381D01*
X11040715Y-11145381D02*
X11021667Y-11135857D01*
X11021667Y-11135857D02*
X10993096Y-11135857D01*
X10993096Y-11135857D02*
X10974048Y-11126333D01*
X10974048Y-11126333D02*
X10964524Y-11107286D01*
X10964524Y-11107286D02*
X10964524Y-11097762D01*
X10964524Y-11097762D02*
X10974048Y-11078714D01*
X10974048Y-11078714D02*
X10993096Y-11069190D01*
X10993096Y-11069190D02*
X11021667Y-11069190D01*
X11021667Y-11069190D02*
X11040715Y-11078714D01*
X11116905Y-11278714D02*
X11126429Y-11269190D01*
X11126429Y-11269190D02*
X11145477Y-11240619D01*
X11145477Y-11240619D02*
X11155000Y-11221571D01*
X11155000Y-11221571D02*
X11164524Y-11193000D01*
X11164524Y-11193000D02*
X11174048Y-11145381D01*
X11174048Y-11145381D02*
X11174048Y-11107286D01*
X11174048Y-11107286D02*
X11164524Y-11059667D01*
X11164524Y-11059667D02*
X11155000Y-11031095D01*
X11155000Y-11031095D02*
X11145477Y-11012048D01*
X11145477Y-11012048D02*
X11126429Y-10983476D01*
X11126429Y-10983476D02*
X11116905Y-10973952D01*
X11478810Y-11278714D02*
X11469286Y-11269190D01*
X11469286Y-11269190D02*
X11450238Y-11240619D01*
X11450238Y-11240619D02*
X11440715Y-11221571D01*
X11440715Y-11221571D02*
X11431191Y-11193000D01*
X11431191Y-11193000D02*
X11421667Y-11145381D01*
X11421667Y-11145381D02*
X11421667Y-11107286D01*
X11421667Y-11107286D02*
X11431191Y-11059667D01*
X11431191Y-11059667D02*
X11440715Y-11031095D01*
X11440715Y-11031095D02*
X11450238Y-11012048D01*
X11450238Y-11012048D02*
X11469286Y-10983476D01*
X11469286Y-10983476D02*
X11478810Y-10973952D01*
X11555000Y-11069190D02*
X11555000Y-11202524D01*
X11555000Y-11088238D02*
X11564524Y-11078714D01*
X11564524Y-11078714D02*
X11583572Y-11069190D01*
X11583572Y-11069190D02*
X11612143Y-11069190D01*
X11612143Y-11069190D02*
X11631191Y-11078714D01*
X11631191Y-11078714D02*
X11640715Y-11097762D01*
X11640715Y-11097762D02*
X11640715Y-11202524D01*
X11764524Y-11202524D02*
X11745477Y-11193000D01*
X11745477Y-11193000D02*
X11735953Y-11183476D01*
X11735953Y-11183476D02*
X11726429Y-11164429D01*
X11726429Y-11164429D02*
X11726429Y-11107286D01*
X11726429Y-11107286D02*
X11735953Y-11088238D01*
X11735953Y-11088238D02*
X11745477Y-11078714D01*
X11745477Y-11078714D02*
X11764524Y-11069190D01*
X11764524Y-11069190D02*
X11793096Y-11069190D01*
X11793096Y-11069190D02*
X11812143Y-11078714D01*
X11812143Y-11078714D02*
X11821667Y-11088238D01*
X11821667Y-11088238D02*
X11831191Y-11107286D01*
X11831191Y-11107286D02*
X11831191Y-11164429D01*
X11831191Y-11164429D02*
X11821667Y-11183476D01*
X11821667Y-11183476D02*
X11812143Y-11193000D01*
X11812143Y-11193000D02*
X11793096Y-11202524D01*
X11793096Y-11202524D02*
X11764524Y-11202524D01*
X11888334Y-11069190D02*
X11964524Y-11069190D01*
X11916905Y-11002524D02*
X11916905Y-11173952D01*
X11916905Y-11173952D02*
X11926429Y-11193000D01*
X11926429Y-11193000D02*
X11945477Y-11202524D01*
X11945477Y-11202524D02*
X11964524Y-11202524D01*
X12183572Y-11069190D02*
X12183572Y-11269190D01*
X12183572Y-11078714D02*
X12202619Y-11069190D01*
X12202619Y-11069190D02*
X12240715Y-11069190D01*
X12240715Y-11069190D02*
X12259762Y-11078714D01*
X12259762Y-11078714D02*
X12269286Y-11088238D01*
X12269286Y-11088238D02*
X12278810Y-11107286D01*
X12278810Y-11107286D02*
X12278810Y-11164429D01*
X12278810Y-11164429D02*
X12269286Y-11183476D01*
X12269286Y-11183476D02*
X12259762Y-11193000D01*
X12259762Y-11193000D02*
X12240715Y-11202524D01*
X12240715Y-11202524D02*
X12202619Y-11202524D01*
X12202619Y-11202524D02*
X12183572Y-11193000D01*
X12393096Y-11202524D02*
X12374048Y-11193000D01*
X12374048Y-11193000D02*
X12364524Y-11173952D01*
X12364524Y-11173952D02*
X12364524Y-11002524D01*
X12555000Y-11202524D02*
X12555000Y-11097762D01*
X12555000Y-11097762D02*
X12545477Y-11078714D01*
X12545477Y-11078714D02*
X12526429Y-11069190D01*
X12526429Y-11069190D02*
X12488334Y-11069190D01*
X12488334Y-11069190D02*
X12469286Y-11078714D01*
X12555000Y-11193000D02*
X12535953Y-11202524D01*
X12535953Y-11202524D02*
X12488334Y-11202524D01*
X12488334Y-11202524D02*
X12469286Y-11193000D01*
X12469286Y-11193000D02*
X12459762Y-11173952D01*
X12459762Y-11173952D02*
X12459762Y-11154905D01*
X12459762Y-11154905D02*
X12469286Y-11135857D01*
X12469286Y-11135857D02*
X12488334Y-11126333D01*
X12488334Y-11126333D02*
X12535953Y-11126333D01*
X12535953Y-11126333D02*
X12555000Y-11116810D01*
X12621667Y-11069190D02*
X12697858Y-11069190D01*
X12650239Y-11002524D02*
X12650239Y-11173952D01*
X12650239Y-11173952D02*
X12659762Y-11193000D01*
X12659762Y-11193000D02*
X12678810Y-11202524D01*
X12678810Y-11202524D02*
X12697858Y-11202524D01*
X12840715Y-11193000D02*
X12821667Y-11202524D01*
X12821667Y-11202524D02*
X12783572Y-11202524D01*
X12783572Y-11202524D02*
X12764524Y-11193000D01*
X12764524Y-11193000D02*
X12755000Y-11173952D01*
X12755000Y-11173952D02*
X12755000Y-11097762D01*
X12755000Y-11097762D02*
X12764524Y-11078714D01*
X12764524Y-11078714D02*
X12783572Y-11069190D01*
X12783572Y-11069190D02*
X12821667Y-11069190D01*
X12821667Y-11069190D02*
X12840715Y-11078714D01*
X12840715Y-11078714D02*
X12850239Y-11097762D01*
X12850239Y-11097762D02*
X12850239Y-11116810D01*
X12850239Y-11116810D02*
X12755000Y-11135857D01*
X13021667Y-11202524D02*
X13021667Y-11002524D01*
X13021667Y-11193000D02*
X13002620Y-11202524D01*
X13002620Y-11202524D02*
X12964524Y-11202524D01*
X12964524Y-11202524D02*
X12945477Y-11193000D01*
X12945477Y-11193000D02*
X12935953Y-11183476D01*
X12935953Y-11183476D02*
X12926429Y-11164429D01*
X12926429Y-11164429D02*
X12926429Y-11107286D01*
X12926429Y-11107286D02*
X12935953Y-11088238D01*
X12935953Y-11088238D02*
X12945477Y-11078714D01*
X12945477Y-11078714D02*
X12964524Y-11069190D01*
X12964524Y-11069190D02*
X13002620Y-11069190D01*
X13002620Y-11069190D02*
X13021667Y-11078714D01*
X13097858Y-11278714D02*
X13107381Y-11269190D01*
X13107381Y-11269190D02*
X13126429Y-11240619D01*
X13126429Y-11240619D02*
X13135953Y-11221571D01*
X13135953Y-11221571D02*
X13145477Y-11193000D01*
X13145477Y-11193000D02*
X13155000Y-11145381D01*
X13155000Y-11145381D02*
X13155000Y-11107286D01*
X13155000Y-11107286D02*
X13145477Y-11059667D01*
X13145477Y-11059667D02*
X13135953Y-11031095D01*
X13135953Y-11031095D02*
X13126429Y-11012048D01*
X13126429Y-11012048D02*
X13107381Y-10983476D01*
X13107381Y-10983476D02*
X13097858Y-10973952D01*
M02*
