M48
; DRILL file {KiCad 7.0.1} date Tue Mar  4 19:41:49 2025
; FORMAT={-:-/ absolute / inch / decimal}
; #@! TF.CreationDate,2025-03-04T19:41:49-05:00
; #@! TF.GenerationSoftware,Kicad,Pcbnew,7.0.1
; #@! TF.FileFunction,Plated,1,2,PTH
FMAT,2
INCH
; #@! TA.AperFunction,Plated,PTH,ViaDrill
T1C0.0157
; #@! TA.AperFunction,Plated,PTH,ComponentDrill
T2C0.0315
; #@! TA.AperFunction,Plated,PTH,ComponentDrill
T3C0.0394
; #@! TA.AperFunction,Plated,PTH,ComponentDrill
T4C0.0402
; #@! TA.AperFunction,Plated,PTH,ComponentDrill
T5C0.0512
%
G90
G05
T1
X3.4173Y-2.6496
X3.4803Y-3.1457
X3.622Y-3.2402
X3.9803Y-2.2323
X3.9803Y-2.5984
X4.1772Y-2.4803
T2
X3.9961Y-1.7126
X3.9961Y-2.0126
X4.1819Y-1.6732
X4.1819Y-2.2732
X4.2819Y-1.6732
X4.2819Y-2.2732
X4.3819Y-1.6732
X4.3819Y-2.2732
X4.4819Y-1.6732
X4.4819Y-2.2732
X4.5819Y-1.6732
X4.5819Y-2.2732
X4.6898Y-1.6732
X4.6898Y-2.2732
X4.7898Y-1.6732
X4.7898Y-2.2732
X4.8898Y-1.6732
X4.8898Y-2.2732
X4.9898Y-1.6732
X4.9898Y-2.2732
X5.0898Y-1.6732
X5.0898Y-2.2732
T3
X2.7496Y-2.5984
X2.8496Y-2.5984
X2.9496Y-2.5984
X3.0496Y-2.5984
X3.1496Y-2.5984
X3.2496Y-2.5984
X3.8228Y-2.4016
X3.8228Y-2.5016
X3.8228Y-2.6016
T4
X2.6606Y-2.9567
X2.6606Y-3.6567
X2.6697Y-3.2067
X2.6697Y-3.3067
X2.6697Y-3.4067
X2.7606Y-2.9567
X2.7606Y-3.6567
X2.8606Y-2.9567
X2.8606Y-3.6567
X2.9606Y-2.9567
X2.9606Y-3.6567
X3.0606Y-2.9567
X3.0606Y-3.6567
X3.1606Y-2.9567
X3.1606Y-3.6567
X3.2606Y-2.9567
X3.2606Y-3.6567
X3.3606Y-2.9567
X3.3606Y-3.6567
X3.4606Y-2.9567
X3.4606Y-3.6567
X3.5606Y-2.9567
X3.5606Y-3.6567
X3.6606Y-2.9567
X3.6606Y-3.6567
X3.7606Y-2.9567
X3.7606Y-3.6567
X3.8606Y-2.9567
X3.8606Y-3.6567
X3.9606Y-2.9567
X3.9606Y-3.6567
X4.0606Y-2.9567
X4.0606Y-3.6567
X4.1606Y-2.9567
X4.1606Y-3.6567
X4.2606Y-2.9567
X4.2606Y-3.6567
X4.3606Y-2.9567
X4.3606Y-3.6567
X4.4606Y-2.9567
X4.4606Y-3.6567
X4.5606Y-2.9567
X4.5606Y-3.6567
T5
X2.6614Y-1.7126
X2.6614Y-2.2047
X2.8583Y-1.7126
X2.8583Y-2.2047
X3.5039Y-1.7126
X3.5039Y-2.2047
X3.7008Y-1.7126
X3.7008Y-2.2047
T0
M30
