%TF.GenerationSoftware,KiCad,Pcbnew,7.0.1*%
%TF.CreationDate,2025-03-04T19:41:26-05:00*%
%TF.ProjectId,front_panel,66726f6e-745f-4706-916e-656c2e6b6963,rev?*%
%TF.SameCoordinates,Original*%
%TF.FileFunction,Legend,Bot*%
%TF.FilePolarity,Positive*%
%FSLAX46Y46*%
G04 Gerber Fmt 4.6, Leading zero omitted, Abs format (unit mm)*
G04 Created by KiCad (PCBNEW 7.0.1) date 2025-03-04 19:41:26*
%MOMM*%
%LPD*%
G01*
G04 APERTURE LIST*
%ADD10C,0.150000*%
%ADD11C,0.120000*%
G04 APERTURE END LIST*
D10*
%TO.C,SW2*%
X99075000Y-48586667D02*
X99122619Y-48729524D01*
X99122619Y-48729524D02*
X99122619Y-48967619D01*
X99122619Y-48967619D02*
X99075000Y-49062857D01*
X99075000Y-49062857D02*
X99027380Y-49110476D01*
X99027380Y-49110476D02*
X98932142Y-49158095D01*
X98932142Y-49158095D02*
X98836904Y-49158095D01*
X98836904Y-49158095D02*
X98741666Y-49110476D01*
X98741666Y-49110476D02*
X98694047Y-49062857D01*
X98694047Y-49062857D02*
X98646428Y-48967619D01*
X98646428Y-48967619D02*
X98598809Y-48777143D01*
X98598809Y-48777143D02*
X98551190Y-48681905D01*
X98551190Y-48681905D02*
X98503571Y-48634286D01*
X98503571Y-48634286D02*
X98408333Y-48586667D01*
X98408333Y-48586667D02*
X98313095Y-48586667D01*
X98313095Y-48586667D02*
X98217857Y-48634286D01*
X98217857Y-48634286D02*
X98170238Y-48681905D01*
X98170238Y-48681905D02*
X98122619Y-48777143D01*
X98122619Y-48777143D02*
X98122619Y-49015238D01*
X98122619Y-49015238D02*
X98170238Y-49158095D01*
X98122619Y-49491429D02*
X99122619Y-49729524D01*
X99122619Y-49729524D02*
X98408333Y-49920000D01*
X98408333Y-49920000D02*
X99122619Y-50110476D01*
X99122619Y-50110476D02*
X98122619Y-50348572D01*
X98217857Y-50681905D02*
X98170238Y-50729524D01*
X98170238Y-50729524D02*
X98122619Y-50824762D01*
X98122619Y-50824762D02*
X98122619Y-51062857D01*
X98122619Y-51062857D02*
X98170238Y-51158095D01*
X98170238Y-51158095D02*
X98217857Y-51205714D01*
X98217857Y-51205714D02*
X98313095Y-51253333D01*
X98313095Y-51253333D02*
X98408333Y-51253333D01*
X98408333Y-51253333D02*
X98551190Y-51205714D01*
X98551190Y-51205714D02*
X99122619Y-50634286D01*
X99122619Y-50634286D02*
X99122619Y-51253333D01*
%TO.C,U1*%
X118568619Y-49458095D02*
X119378142Y-49458095D01*
X119378142Y-49458095D02*
X119473380Y-49505714D01*
X119473380Y-49505714D02*
X119521000Y-49553333D01*
X119521000Y-49553333D02*
X119568619Y-49648571D01*
X119568619Y-49648571D02*
X119568619Y-49839047D01*
X119568619Y-49839047D02*
X119521000Y-49934285D01*
X119521000Y-49934285D02*
X119473380Y-49981904D01*
X119473380Y-49981904D02*
X119378142Y-50029523D01*
X119378142Y-50029523D02*
X118568619Y-50029523D01*
X119568619Y-51029523D02*
X119568619Y-50458095D01*
X119568619Y-50743809D02*
X118568619Y-50743809D01*
X118568619Y-50743809D02*
X118711476Y-50648571D01*
X118711476Y-50648571D02*
X118806714Y-50553333D01*
X118806714Y-50553333D02*
X118854333Y-50458095D01*
%TO.C,U2*%
X131162619Y-49358095D02*
X131972142Y-49358095D01*
X131972142Y-49358095D02*
X132067380Y-49405714D01*
X132067380Y-49405714D02*
X132115000Y-49453333D01*
X132115000Y-49453333D02*
X132162619Y-49548571D01*
X132162619Y-49548571D02*
X132162619Y-49739047D01*
X132162619Y-49739047D02*
X132115000Y-49834285D01*
X132115000Y-49834285D02*
X132067380Y-49881904D01*
X132067380Y-49881904D02*
X131972142Y-49929523D01*
X131972142Y-49929523D02*
X131162619Y-49929523D01*
X131257857Y-50358095D02*
X131210238Y-50405714D01*
X131210238Y-50405714D02*
X131162619Y-50500952D01*
X131162619Y-50500952D02*
X131162619Y-50739047D01*
X131162619Y-50739047D02*
X131210238Y-50834285D01*
X131210238Y-50834285D02*
X131257857Y-50881904D01*
X131257857Y-50881904D02*
X131353095Y-50929523D01*
X131353095Y-50929523D02*
X131448333Y-50929523D01*
X131448333Y-50929523D02*
X131591190Y-50881904D01*
X131591190Y-50881904D02*
X132162619Y-50310476D01*
X132162619Y-50310476D02*
X132162619Y-50929523D01*
%TO.C,SW1*%
X77675000Y-48586667D02*
X77722619Y-48729524D01*
X77722619Y-48729524D02*
X77722619Y-48967619D01*
X77722619Y-48967619D02*
X77675000Y-49062857D01*
X77675000Y-49062857D02*
X77627380Y-49110476D01*
X77627380Y-49110476D02*
X77532142Y-49158095D01*
X77532142Y-49158095D02*
X77436904Y-49158095D01*
X77436904Y-49158095D02*
X77341666Y-49110476D01*
X77341666Y-49110476D02*
X77294047Y-49062857D01*
X77294047Y-49062857D02*
X77246428Y-48967619D01*
X77246428Y-48967619D02*
X77198809Y-48777143D01*
X77198809Y-48777143D02*
X77151190Y-48681905D01*
X77151190Y-48681905D02*
X77103571Y-48634286D01*
X77103571Y-48634286D02*
X77008333Y-48586667D01*
X77008333Y-48586667D02*
X76913095Y-48586667D01*
X76913095Y-48586667D02*
X76817857Y-48634286D01*
X76817857Y-48634286D02*
X76770238Y-48681905D01*
X76770238Y-48681905D02*
X76722619Y-48777143D01*
X76722619Y-48777143D02*
X76722619Y-49015238D01*
X76722619Y-49015238D02*
X76770238Y-49158095D01*
X76722619Y-49491429D02*
X77722619Y-49729524D01*
X77722619Y-49729524D02*
X77008333Y-49920000D01*
X77008333Y-49920000D02*
X77722619Y-50110476D01*
X77722619Y-50110476D02*
X76722619Y-50348572D01*
X77722619Y-51253333D02*
X77722619Y-50681905D01*
X77722619Y-50967619D02*
X76722619Y-50967619D01*
X76722619Y-50967619D02*
X76865476Y-50872381D01*
X76865476Y-50872381D02*
X76960714Y-50777143D01*
X76960714Y-50777143D02*
X77008333Y-50681905D01*
D11*
%TO.C,SW2*%
X85350000Y-55900000D02*
X88070000Y-55900000D01*
X89930000Y-55900000D02*
X93070000Y-55900000D01*
X94930000Y-55900000D02*
X97650000Y-55900000D01*
X97650000Y-55900000D02*
X97650000Y-43600000D01*
X85350000Y-43600000D02*
X85350000Y-55900000D01*
X88070000Y-43600000D02*
X85350000Y-43600000D01*
X93070000Y-43600000D02*
X89930000Y-43600000D01*
X97650000Y-43600000D02*
X94930000Y-43600000D01*
X96039050Y-49650000D02*
G75*
G03*
X96039050Y-49650000I-4579050J0D01*
G01*
%TO.C,U1*%
X107747214Y-55120000D02*
G75*
G03*
X107747214Y-55120000I-447214J0D01*
G01*
X105000000Y-40485000D02*
X117600000Y-40485000D01*
X114300000Y-45120000D02*
X107300000Y-45120000D01*
X114300000Y-45120000D02*
X115300000Y-50120000D01*
X107300000Y-45120000D02*
X108300000Y-50120000D01*
X115300000Y-50120000D02*
X116300000Y-55120000D01*
X108300000Y-50120000D02*
X115300000Y-50120000D01*
X116300000Y-55120000D02*
X109300000Y-55120000D01*
X109300000Y-55120000D02*
X108300000Y-50120000D01*
X117710000Y-55835000D02*
X117710000Y-44405000D01*
X104890000Y-55835000D02*
X104890000Y-44405000D01*
X116600000Y-59755000D02*
X105000000Y-59755000D01*
%TO.C,U2*%
X129500000Y-59755000D02*
X117900000Y-59755000D01*
X117790000Y-55835000D02*
X117790000Y-44405000D01*
X130610000Y-55835000D02*
X130610000Y-44405000D01*
X122200000Y-55120000D02*
X121200000Y-50120000D01*
X129200000Y-55120000D02*
X122200000Y-55120000D01*
X121200000Y-50120000D02*
X128200000Y-50120000D01*
X128200000Y-50120000D02*
X129200000Y-55120000D01*
X120200000Y-45120000D02*
X121200000Y-50120000D01*
X127200000Y-45120000D02*
X128200000Y-50120000D01*
X127200000Y-45120000D02*
X120200000Y-45120000D01*
X117900000Y-40485000D02*
X130500000Y-40485000D01*
X120647214Y-55120000D02*
G75*
G03*
X120647214Y-55120000I-447214J0D01*
G01*
%TO.C,SW1*%
X63950000Y-55900000D02*
X66670000Y-55900000D01*
X68530000Y-55900000D02*
X71670000Y-55900000D01*
X73530000Y-55900000D02*
X76250000Y-55900000D01*
X76250000Y-55900000D02*
X76250000Y-43600000D01*
X63950000Y-43600000D02*
X63950000Y-55900000D01*
X66670000Y-43600000D02*
X63950000Y-43600000D01*
X71670000Y-43600000D02*
X68530000Y-43600000D01*
X76250000Y-43600000D02*
X73530000Y-43600000D01*
X74639050Y-49650000D02*
G75*
G03*
X74639050Y-49650000I-4579050J0D01*
G01*
%TD*%
M02*
