%TF.GenerationSoftware,KiCad,Pcbnew,7.0.1*%
%TF.CreationDate,2025-03-04T19:41:51-05:00*%
%TF.ProjectId,front_panel,66726f6e-745f-4706-916e-656c2e6b6963,rev?*%
%TF.SameCoordinates,Original*%
%TF.FileFunction,Drillmap*%
%TF.FilePolarity,Positive*%
%FSLAX45Y45*%
G04 Gerber Fmt 4.5, Leading zero omitted, Abs format (unit mm)*
G04 Created by KiCad (PCBNEW 7.0.1) date 2025-03-04 19:41:51*
%MOMM*%
%LPD*%
G01*
G04 APERTURE LIST*
%ADD10C,0.100000*%
%ADD11C,0.200000*%
%ADD12C,0.040000*%
%ADD13C,0.080000*%
%ADD14C,0.102000*%
%ADD15C,0.130000*%
G04 APERTURE END LIST*
D10*
X12727475Y-9900000D02*
G75*
G03*
X12727475Y-9900000I-127476J0D01*
G01*
X10227476Y-3900000D02*
G75*
G03*
X10227476Y-3900000I-127476J0D01*
G01*
X6727475Y-9900000D02*
G75*
G03*
X6727475Y-9900000I-127476J0D01*
G01*
X6360000Y-3670000D02*
X13140000Y-3670000D01*
X13140000Y-10195000D01*
X6360000Y-10195000D01*
X6360000Y-3670000D01*
X6727475Y-3900000D02*
G75*
G03*
X6727475Y-3900000I-127476J0D01*
G01*
D11*
D12*
X8660000Y-6710000D02*
X8700000Y-6750000D01*
X8700000Y-6710000D02*
X8660000Y-6750000D01*
X8820000Y-7970000D02*
X8860000Y-8010000D01*
X8860000Y-7970000D02*
X8820000Y-8010000D01*
X9180000Y-8210000D02*
X9220000Y-8250000D01*
X9220000Y-8210000D02*
X9180000Y-8250000D01*
X10090000Y-5650000D02*
X10130000Y-5690000D01*
X10130000Y-5650000D02*
X10090000Y-5690000D01*
X10090000Y-6580000D02*
X10130000Y-6620000D01*
X10130000Y-6580000D02*
X10090000Y-6620000D01*
X10590000Y-6280000D02*
X10630000Y-6320000D01*
X10630000Y-6280000D02*
X10590000Y-6320000D01*
D13*
X10190000Y-4350000D02*
G75*
G03*
X10190000Y-4350000I-40000J0D01*
G01*
X10190000Y-5112000D02*
G75*
G03*
X10190000Y-5112000I-40000J0D01*
G01*
X10662000Y-4250000D02*
G75*
G03*
X10662000Y-4250000I-40000J0D01*
G01*
X10662000Y-5774000D02*
G75*
G03*
X10662000Y-5774000I-40000J0D01*
G01*
X10916000Y-4250000D02*
G75*
G03*
X10916000Y-4250000I-40000J0D01*
G01*
X10916000Y-5774000D02*
G75*
G03*
X10916000Y-5774000I-40000J0D01*
G01*
X11170000Y-4250000D02*
G75*
G03*
X11170000Y-4250000I-40000J0D01*
G01*
X11170000Y-5774000D02*
G75*
G03*
X11170000Y-5774000I-40000J0D01*
G01*
X11424000Y-4250000D02*
G75*
G03*
X11424000Y-4250000I-40000J0D01*
G01*
X11424000Y-5774000D02*
G75*
G03*
X11424000Y-5774000I-40000J0D01*
G01*
X11678000Y-4250000D02*
G75*
G03*
X11678000Y-4250000I-40000J0D01*
G01*
X11678000Y-5774000D02*
G75*
G03*
X11678000Y-5774000I-40000J0D01*
G01*
X11952000Y-4250000D02*
G75*
G03*
X11952000Y-4250000I-40000J0D01*
G01*
X11952000Y-5774000D02*
G75*
G03*
X11952000Y-5774000I-40000J0D01*
G01*
X12206000Y-4250000D02*
G75*
G03*
X12206000Y-4250000I-40000J0D01*
G01*
X12206000Y-5774000D02*
G75*
G03*
X12206000Y-5774000I-40000J0D01*
G01*
X12460000Y-4250000D02*
G75*
G03*
X12460000Y-4250000I-40000J0D01*
G01*
X12460000Y-5774000D02*
G75*
G03*
X12460000Y-5774000I-40000J0D01*
G01*
X12714000Y-4250000D02*
G75*
G03*
X12714000Y-4250000I-40000J0D01*
G01*
X12714000Y-5774000D02*
G75*
G03*
X12714000Y-5774000I-40000J0D01*
G01*
X12968000Y-4250000D02*
G75*
G03*
X12968000Y-4250000I-40000J0D01*
G01*
X12968000Y-5774000D02*
G75*
G03*
X12968000Y-5774000I-40000J0D01*
G01*
D10*
X6984000Y-6550000D02*
X6984000Y-6650000D01*
X6934000Y-6600000D02*
X7034000Y-6600000D01*
X7238000Y-6550000D02*
X7238000Y-6650000D01*
X7188000Y-6600000D02*
X7288000Y-6600000D01*
X7492000Y-6550000D02*
X7492000Y-6650000D01*
X7442000Y-6600000D02*
X7542000Y-6600000D01*
X7746000Y-6550000D02*
X7746000Y-6650000D01*
X7696000Y-6600000D02*
X7796000Y-6600000D01*
X8000000Y-6550000D02*
X8000000Y-6650000D01*
X7950000Y-6600000D02*
X8050000Y-6600000D01*
X8254000Y-6550000D02*
X8254000Y-6650000D01*
X8204000Y-6600000D02*
X8304000Y-6600000D01*
X9710000Y-6050000D02*
X9710000Y-6150000D01*
X9660000Y-6100000D02*
X9760000Y-6100000D01*
X9710000Y-6304000D02*
X9710000Y-6404000D01*
X9660000Y-6354000D02*
X9760000Y-6354000D01*
X9710000Y-6558000D02*
X9710000Y-6658000D01*
X9660000Y-6608000D02*
X9760000Y-6608000D01*
D14*
X6794063Y-7546063D02*
X6794063Y-7473937D01*
X6721937Y-7473937D01*
X6721937Y-7546063D01*
X6794063Y-7546063D01*
X6794063Y-9324063D02*
X6794063Y-9251937D01*
X6721937Y-9251937D01*
X6721937Y-9324063D01*
X6794063Y-9324063D01*
X6817063Y-8181063D02*
X6817063Y-8108937D01*
X6744937Y-8108937D01*
X6744937Y-8181063D01*
X6817063Y-8181063D01*
X6817063Y-8435063D02*
X6817063Y-8362937D01*
X6744937Y-8362937D01*
X6744937Y-8435063D01*
X6817063Y-8435063D01*
X6817063Y-8689063D02*
X6817063Y-8616937D01*
X6744937Y-8616937D01*
X6744937Y-8689063D01*
X6817063Y-8689063D01*
X7048063Y-7546063D02*
X7048063Y-7473937D01*
X6975937Y-7473937D01*
X6975937Y-7546063D01*
X7048063Y-7546063D01*
X7048063Y-9324063D02*
X7048063Y-9251937D01*
X6975937Y-9251937D01*
X6975937Y-9324063D01*
X7048063Y-9324063D01*
X7302063Y-7546063D02*
X7302063Y-7473937D01*
X7229937Y-7473937D01*
X7229937Y-7546063D01*
X7302063Y-7546063D01*
X7302063Y-9324063D02*
X7302063Y-9251937D01*
X7229937Y-9251937D01*
X7229937Y-9324063D01*
X7302063Y-9324063D01*
X7556063Y-7546063D02*
X7556063Y-7473937D01*
X7483937Y-7473937D01*
X7483937Y-7546063D01*
X7556063Y-7546063D01*
X7556063Y-9324063D02*
X7556063Y-9251937D01*
X7483937Y-9251937D01*
X7483937Y-9324063D01*
X7556063Y-9324063D01*
X7810063Y-7546063D02*
X7810063Y-7473937D01*
X7737937Y-7473937D01*
X7737937Y-7546063D01*
X7810063Y-7546063D01*
X7810063Y-9324063D02*
X7810063Y-9251937D01*
X7737937Y-9251937D01*
X7737937Y-9324063D01*
X7810063Y-9324063D01*
X8064063Y-7546063D02*
X8064063Y-7473937D01*
X7991937Y-7473937D01*
X7991937Y-7546063D01*
X8064063Y-7546063D01*
X8064063Y-9324063D02*
X8064063Y-9251937D01*
X7991937Y-9251937D01*
X7991937Y-9324063D01*
X8064063Y-9324063D01*
X8318063Y-7546063D02*
X8318063Y-7473937D01*
X8245937Y-7473937D01*
X8245937Y-7546063D01*
X8318063Y-7546063D01*
X8318063Y-9324063D02*
X8318063Y-9251937D01*
X8245937Y-9251937D01*
X8245937Y-9324063D01*
X8318063Y-9324063D01*
X8572063Y-7546063D02*
X8572063Y-7473937D01*
X8499937Y-7473937D01*
X8499937Y-7546063D01*
X8572063Y-7546063D01*
X8572063Y-9324063D02*
X8572063Y-9251937D01*
X8499937Y-9251937D01*
X8499937Y-9324063D01*
X8572063Y-9324063D01*
X8826063Y-7546063D02*
X8826063Y-7473937D01*
X8753937Y-7473937D01*
X8753937Y-7546063D01*
X8826063Y-7546063D01*
X8826063Y-9324063D02*
X8826063Y-9251937D01*
X8753937Y-9251937D01*
X8753937Y-9324063D01*
X8826063Y-9324063D01*
X9080063Y-7546063D02*
X9080063Y-7473937D01*
X9007937Y-7473937D01*
X9007937Y-7546063D01*
X9080063Y-7546063D01*
X9080063Y-9324063D02*
X9080063Y-9251937D01*
X9007937Y-9251937D01*
X9007937Y-9324063D01*
X9080063Y-9324063D01*
X9334063Y-7546063D02*
X9334063Y-7473937D01*
X9261937Y-7473937D01*
X9261937Y-7546063D01*
X9334063Y-7546063D01*
X9334063Y-9324063D02*
X9334063Y-9251937D01*
X9261937Y-9251937D01*
X9261937Y-9324063D01*
X9334063Y-9324063D01*
X9588063Y-7546063D02*
X9588063Y-7473937D01*
X9515937Y-7473937D01*
X9515937Y-7546063D01*
X9588063Y-7546063D01*
X9588063Y-9324063D02*
X9588063Y-9251937D01*
X9515937Y-9251937D01*
X9515937Y-9324063D01*
X9588063Y-9324063D01*
X9842063Y-7546063D02*
X9842063Y-7473937D01*
X9769937Y-7473937D01*
X9769937Y-7546063D01*
X9842063Y-7546063D01*
X9842063Y-9324063D02*
X9842063Y-9251937D01*
X9769937Y-9251937D01*
X9769937Y-9324063D01*
X9842063Y-9324063D01*
X10096063Y-7546063D02*
X10096063Y-7473937D01*
X10023937Y-7473937D01*
X10023937Y-7546063D01*
X10096063Y-7546063D01*
X10096063Y-9324063D02*
X10096063Y-9251937D01*
X10023937Y-9251937D01*
X10023937Y-9324063D01*
X10096063Y-9324063D01*
X10350063Y-7546063D02*
X10350063Y-7473937D01*
X10277937Y-7473937D01*
X10277937Y-7546063D01*
X10350063Y-7546063D01*
X10350063Y-9324063D02*
X10350063Y-9251937D01*
X10277937Y-9251937D01*
X10277937Y-9324063D01*
X10350063Y-9324063D01*
X10604063Y-7546063D02*
X10604063Y-7473937D01*
X10531937Y-7473937D01*
X10531937Y-7546063D01*
X10604063Y-7546063D01*
X10604063Y-9324063D02*
X10604063Y-9251937D01*
X10531937Y-9251937D01*
X10531937Y-9324063D01*
X10604063Y-9324063D01*
X10858063Y-7546063D02*
X10858063Y-7473937D01*
X10785937Y-7473937D01*
X10785937Y-7546063D01*
X10858063Y-7546063D01*
X10858063Y-9324063D02*
X10858063Y-9251937D01*
X10785937Y-9251937D01*
X10785937Y-9324063D01*
X10858063Y-9324063D01*
X11112063Y-7546063D02*
X11112063Y-7473937D01*
X11039937Y-7473937D01*
X11039937Y-7546063D01*
X11112063Y-7546063D01*
X11112063Y-9324063D02*
X11112063Y-9251937D01*
X11039937Y-9251937D01*
X11039937Y-9324063D01*
X11112063Y-9324063D01*
X11366063Y-7546063D02*
X11366063Y-7473937D01*
X11293937Y-7473937D01*
X11293937Y-7546063D01*
X11366063Y-7546063D01*
X11366063Y-9324063D02*
X11366063Y-9251937D01*
X11293937Y-9251937D01*
X11293937Y-9324063D01*
X11366063Y-9324063D01*
X11620063Y-7546063D02*
X11620063Y-7473937D01*
X11547937Y-7473937D01*
X11547937Y-7546063D01*
X11620063Y-7546063D01*
X11620063Y-9324063D02*
X11620063Y-9251937D01*
X11547937Y-9251937D01*
X11547937Y-9324063D01*
X11620063Y-9324063D01*
D15*
X6760000Y-4415000D02*
X6825000Y-4350000D01*
X6760000Y-4285000D01*
X6695000Y-4350000D01*
X6760000Y-4415000D01*
X6760000Y-5665000D02*
X6825000Y-5600000D01*
X6760000Y-5535000D01*
X6695000Y-5600000D01*
X6760000Y-5665000D01*
X7260000Y-4415000D02*
X7325000Y-4350000D01*
X7260000Y-4285000D01*
X7195000Y-4350000D01*
X7260000Y-4415000D01*
X7260000Y-5665000D02*
X7325000Y-5600000D01*
X7260000Y-5535000D01*
X7195000Y-5600000D01*
X7260000Y-5665000D01*
X8900000Y-4415000D02*
X8965000Y-4350000D01*
X8900000Y-4285000D01*
X8835000Y-4350000D01*
X8900000Y-4415000D01*
X8900000Y-5665000D02*
X8965000Y-5600000D01*
X8900000Y-5535000D01*
X8835000Y-5600000D01*
X8900000Y-5665000D01*
X9400000Y-4415000D02*
X9465000Y-4350000D01*
X9400000Y-4285000D01*
X9335000Y-4350000D01*
X9400000Y-4415000D01*
X9400000Y-5665000D02*
X9465000Y-5600000D01*
X9400000Y-5535000D01*
X9335000Y-5600000D01*
X9400000Y-5665000D01*
D11*
X6602619Y-10512524D02*
X6602619Y-10312524D01*
X6602619Y-10312524D02*
X6650238Y-10312524D01*
X6650238Y-10312524D02*
X6678809Y-10322048D01*
X6678809Y-10322048D02*
X6697857Y-10341095D01*
X6697857Y-10341095D02*
X6707381Y-10360143D01*
X6707381Y-10360143D02*
X6716905Y-10398238D01*
X6716905Y-10398238D02*
X6716905Y-10426810D01*
X6716905Y-10426810D02*
X6707381Y-10464905D01*
X6707381Y-10464905D02*
X6697857Y-10483952D01*
X6697857Y-10483952D02*
X6678809Y-10503000D01*
X6678809Y-10503000D02*
X6650238Y-10512524D01*
X6650238Y-10512524D02*
X6602619Y-10512524D01*
X6802619Y-10512524D02*
X6802619Y-10379190D01*
X6802619Y-10417286D02*
X6812143Y-10398238D01*
X6812143Y-10398238D02*
X6821667Y-10388714D01*
X6821667Y-10388714D02*
X6840714Y-10379190D01*
X6840714Y-10379190D02*
X6859762Y-10379190D01*
X6926428Y-10512524D02*
X6926428Y-10379190D01*
X6926428Y-10312524D02*
X6916905Y-10322048D01*
X6916905Y-10322048D02*
X6926428Y-10331571D01*
X6926428Y-10331571D02*
X6935952Y-10322048D01*
X6935952Y-10322048D02*
X6926428Y-10312524D01*
X6926428Y-10312524D02*
X6926428Y-10331571D01*
X7050238Y-10512524D02*
X7031190Y-10503000D01*
X7031190Y-10503000D02*
X7021667Y-10483952D01*
X7021667Y-10483952D02*
X7021667Y-10312524D01*
X7155000Y-10512524D02*
X7135952Y-10503000D01*
X7135952Y-10503000D02*
X7126428Y-10483952D01*
X7126428Y-10483952D02*
X7126428Y-10312524D01*
X7383571Y-10512524D02*
X7383571Y-10312524D01*
X7383571Y-10312524D02*
X7450238Y-10455381D01*
X7450238Y-10455381D02*
X7516905Y-10312524D01*
X7516905Y-10312524D02*
X7516905Y-10512524D01*
X7697857Y-10512524D02*
X7697857Y-10407762D01*
X7697857Y-10407762D02*
X7688333Y-10388714D01*
X7688333Y-10388714D02*
X7669286Y-10379190D01*
X7669286Y-10379190D02*
X7631190Y-10379190D01*
X7631190Y-10379190D02*
X7612143Y-10388714D01*
X7697857Y-10503000D02*
X7678809Y-10512524D01*
X7678809Y-10512524D02*
X7631190Y-10512524D01*
X7631190Y-10512524D02*
X7612143Y-10503000D01*
X7612143Y-10503000D02*
X7602619Y-10483952D01*
X7602619Y-10483952D02*
X7602619Y-10464905D01*
X7602619Y-10464905D02*
X7612143Y-10445857D01*
X7612143Y-10445857D02*
X7631190Y-10436333D01*
X7631190Y-10436333D02*
X7678809Y-10436333D01*
X7678809Y-10436333D02*
X7697857Y-10426810D01*
X7793095Y-10379190D02*
X7793095Y-10579190D01*
X7793095Y-10388714D02*
X7812143Y-10379190D01*
X7812143Y-10379190D02*
X7850238Y-10379190D01*
X7850238Y-10379190D02*
X7869286Y-10388714D01*
X7869286Y-10388714D02*
X7878809Y-10398238D01*
X7878809Y-10398238D02*
X7888333Y-10417286D01*
X7888333Y-10417286D02*
X7888333Y-10474429D01*
X7888333Y-10474429D02*
X7878809Y-10493476D01*
X7878809Y-10493476D02*
X7869286Y-10503000D01*
X7869286Y-10503000D02*
X7850238Y-10512524D01*
X7850238Y-10512524D02*
X7812143Y-10512524D01*
X7812143Y-10512524D02*
X7793095Y-10503000D01*
X7974048Y-10493476D02*
X7983571Y-10503000D01*
X7983571Y-10503000D02*
X7974048Y-10512524D01*
X7974048Y-10512524D02*
X7964524Y-10503000D01*
X7964524Y-10503000D02*
X7974048Y-10493476D01*
X7974048Y-10493476D02*
X7974048Y-10512524D01*
X7974048Y-10388714D02*
X7983571Y-10398238D01*
X7983571Y-10398238D02*
X7974048Y-10407762D01*
X7974048Y-10407762D02*
X7964524Y-10398238D01*
X7964524Y-10398238D02*
X7974048Y-10388714D01*
X7974048Y-10388714D02*
X7974048Y-10407762D01*
D12*
X6315000Y-10820000D02*
X6355000Y-10860000D01*
X6355000Y-10820000D02*
X6315000Y-10860000D01*
D11*
X6640714Y-10732524D02*
X6659762Y-10732524D01*
X6659762Y-10732524D02*
X6678809Y-10742048D01*
X6678809Y-10742048D02*
X6688333Y-10751571D01*
X6688333Y-10751571D02*
X6697857Y-10770619D01*
X6697857Y-10770619D02*
X6707381Y-10808714D01*
X6707381Y-10808714D02*
X6707381Y-10856333D01*
X6707381Y-10856333D02*
X6697857Y-10894429D01*
X6697857Y-10894429D02*
X6688333Y-10913476D01*
X6688333Y-10913476D02*
X6678809Y-10923000D01*
X6678809Y-10923000D02*
X6659762Y-10932524D01*
X6659762Y-10932524D02*
X6640714Y-10932524D01*
X6640714Y-10932524D02*
X6621667Y-10923000D01*
X6621667Y-10923000D02*
X6612143Y-10913476D01*
X6612143Y-10913476D02*
X6602619Y-10894429D01*
X6602619Y-10894429D02*
X6593095Y-10856333D01*
X6593095Y-10856333D02*
X6593095Y-10808714D01*
X6593095Y-10808714D02*
X6602619Y-10770619D01*
X6602619Y-10770619D02*
X6612143Y-10751571D01*
X6612143Y-10751571D02*
X6621667Y-10742048D01*
X6621667Y-10742048D02*
X6640714Y-10732524D01*
X6793095Y-10913476D02*
X6802619Y-10923000D01*
X6802619Y-10923000D02*
X6793095Y-10932524D01*
X6793095Y-10932524D02*
X6783571Y-10923000D01*
X6783571Y-10923000D02*
X6793095Y-10913476D01*
X6793095Y-10913476D02*
X6793095Y-10932524D01*
X6974048Y-10799190D02*
X6974048Y-10932524D01*
X6926428Y-10723000D02*
X6878809Y-10865857D01*
X6878809Y-10865857D02*
X7002619Y-10865857D01*
X7116905Y-10732524D02*
X7135952Y-10732524D01*
X7135952Y-10732524D02*
X7155000Y-10742048D01*
X7155000Y-10742048D02*
X7164524Y-10751571D01*
X7164524Y-10751571D02*
X7174048Y-10770619D01*
X7174048Y-10770619D02*
X7183571Y-10808714D01*
X7183571Y-10808714D02*
X7183571Y-10856333D01*
X7183571Y-10856333D02*
X7174048Y-10894429D01*
X7174048Y-10894429D02*
X7164524Y-10913476D01*
X7164524Y-10913476D02*
X7155000Y-10923000D01*
X7155000Y-10923000D02*
X7135952Y-10932524D01*
X7135952Y-10932524D02*
X7116905Y-10932524D01*
X7116905Y-10932524D02*
X7097857Y-10923000D01*
X7097857Y-10923000D02*
X7088333Y-10913476D01*
X7088333Y-10913476D02*
X7078809Y-10894429D01*
X7078809Y-10894429D02*
X7069286Y-10856333D01*
X7069286Y-10856333D02*
X7069286Y-10808714D01*
X7069286Y-10808714D02*
X7078809Y-10770619D01*
X7078809Y-10770619D02*
X7088333Y-10751571D01*
X7088333Y-10751571D02*
X7097857Y-10742048D01*
X7097857Y-10742048D02*
X7116905Y-10732524D01*
X7307381Y-10732524D02*
X7326429Y-10732524D01*
X7326429Y-10732524D02*
X7345476Y-10742048D01*
X7345476Y-10742048D02*
X7355000Y-10751571D01*
X7355000Y-10751571D02*
X7364524Y-10770619D01*
X7364524Y-10770619D02*
X7374048Y-10808714D01*
X7374048Y-10808714D02*
X7374048Y-10856333D01*
X7374048Y-10856333D02*
X7364524Y-10894429D01*
X7364524Y-10894429D02*
X7355000Y-10913476D01*
X7355000Y-10913476D02*
X7345476Y-10923000D01*
X7345476Y-10923000D02*
X7326429Y-10932524D01*
X7326429Y-10932524D02*
X7307381Y-10932524D01*
X7307381Y-10932524D02*
X7288333Y-10923000D01*
X7288333Y-10923000D02*
X7278809Y-10913476D01*
X7278809Y-10913476D02*
X7269286Y-10894429D01*
X7269286Y-10894429D02*
X7259762Y-10856333D01*
X7259762Y-10856333D02*
X7259762Y-10808714D01*
X7259762Y-10808714D02*
X7269286Y-10770619D01*
X7269286Y-10770619D02*
X7278809Y-10751571D01*
X7278809Y-10751571D02*
X7288333Y-10742048D01*
X7288333Y-10742048D02*
X7307381Y-10732524D01*
X7459762Y-10932524D02*
X7459762Y-10799190D01*
X7459762Y-10818238D02*
X7469286Y-10808714D01*
X7469286Y-10808714D02*
X7488333Y-10799190D01*
X7488333Y-10799190D02*
X7516905Y-10799190D01*
X7516905Y-10799190D02*
X7535952Y-10808714D01*
X7535952Y-10808714D02*
X7545476Y-10827762D01*
X7545476Y-10827762D02*
X7545476Y-10932524D01*
X7545476Y-10827762D02*
X7555000Y-10808714D01*
X7555000Y-10808714D02*
X7574048Y-10799190D01*
X7574048Y-10799190D02*
X7602619Y-10799190D01*
X7602619Y-10799190D02*
X7621667Y-10808714D01*
X7621667Y-10808714D02*
X7631190Y-10827762D01*
X7631190Y-10827762D02*
X7631190Y-10932524D01*
X7726429Y-10932524D02*
X7726429Y-10799190D01*
X7726429Y-10818238D02*
X7735952Y-10808714D01*
X7735952Y-10808714D02*
X7755000Y-10799190D01*
X7755000Y-10799190D02*
X7783571Y-10799190D01*
X7783571Y-10799190D02*
X7802619Y-10808714D01*
X7802619Y-10808714D02*
X7812143Y-10827762D01*
X7812143Y-10827762D02*
X7812143Y-10932524D01*
X7812143Y-10827762D02*
X7821667Y-10808714D01*
X7821667Y-10808714D02*
X7840714Y-10799190D01*
X7840714Y-10799190D02*
X7869286Y-10799190D01*
X7869286Y-10799190D02*
X7888333Y-10808714D01*
X7888333Y-10808714D02*
X7897857Y-10827762D01*
X7897857Y-10827762D02*
X7897857Y-10932524D01*
X8288333Y-10723000D02*
X8116905Y-10980143D01*
X8545476Y-10732524D02*
X8564524Y-10732524D01*
X8564524Y-10732524D02*
X8583572Y-10742048D01*
X8583572Y-10742048D02*
X8593095Y-10751571D01*
X8593095Y-10751571D02*
X8602619Y-10770619D01*
X8602619Y-10770619D02*
X8612143Y-10808714D01*
X8612143Y-10808714D02*
X8612143Y-10856333D01*
X8612143Y-10856333D02*
X8602619Y-10894429D01*
X8602619Y-10894429D02*
X8593095Y-10913476D01*
X8593095Y-10913476D02*
X8583572Y-10923000D01*
X8583572Y-10923000D02*
X8564524Y-10932524D01*
X8564524Y-10932524D02*
X8545476Y-10932524D01*
X8545476Y-10932524D02*
X8526429Y-10923000D01*
X8526429Y-10923000D02*
X8516905Y-10913476D01*
X8516905Y-10913476D02*
X8507381Y-10894429D01*
X8507381Y-10894429D02*
X8497857Y-10856333D01*
X8497857Y-10856333D02*
X8497857Y-10808714D01*
X8497857Y-10808714D02*
X8507381Y-10770619D01*
X8507381Y-10770619D02*
X8516905Y-10751571D01*
X8516905Y-10751571D02*
X8526429Y-10742048D01*
X8526429Y-10742048D02*
X8545476Y-10732524D01*
X8697857Y-10913476D02*
X8707381Y-10923000D01*
X8707381Y-10923000D02*
X8697857Y-10932524D01*
X8697857Y-10932524D02*
X8688334Y-10923000D01*
X8688334Y-10923000D02*
X8697857Y-10913476D01*
X8697857Y-10913476D02*
X8697857Y-10932524D01*
X8831191Y-10732524D02*
X8850238Y-10732524D01*
X8850238Y-10732524D02*
X8869286Y-10742048D01*
X8869286Y-10742048D02*
X8878810Y-10751571D01*
X8878810Y-10751571D02*
X8888334Y-10770619D01*
X8888334Y-10770619D02*
X8897857Y-10808714D01*
X8897857Y-10808714D02*
X8897857Y-10856333D01*
X8897857Y-10856333D02*
X8888334Y-10894429D01*
X8888334Y-10894429D02*
X8878810Y-10913476D01*
X8878810Y-10913476D02*
X8869286Y-10923000D01*
X8869286Y-10923000D02*
X8850238Y-10932524D01*
X8850238Y-10932524D02*
X8831191Y-10932524D01*
X8831191Y-10932524D02*
X8812143Y-10923000D01*
X8812143Y-10923000D02*
X8802619Y-10913476D01*
X8802619Y-10913476D02*
X8793095Y-10894429D01*
X8793095Y-10894429D02*
X8783572Y-10856333D01*
X8783572Y-10856333D02*
X8783572Y-10808714D01*
X8783572Y-10808714D02*
X8793095Y-10770619D01*
X8793095Y-10770619D02*
X8802619Y-10751571D01*
X8802619Y-10751571D02*
X8812143Y-10742048D01*
X8812143Y-10742048D02*
X8831191Y-10732524D01*
X9088334Y-10932524D02*
X8974048Y-10932524D01*
X9031191Y-10932524D02*
X9031191Y-10732524D01*
X9031191Y-10732524D02*
X9012143Y-10761095D01*
X9012143Y-10761095D02*
X8993095Y-10780143D01*
X8993095Y-10780143D02*
X8974048Y-10789667D01*
X9269286Y-10732524D02*
X9174048Y-10732524D01*
X9174048Y-10732524D02*
X9164524Y-10827762D01*
X9164524Y-10827762D02*
X9174048Y-10818238D01*
X9174048Y-10818238D02*
X9193095Y-10808714D01*
X9193095Y-10808714D02*
X9240715Y-10808714D01*
X9240715Y-10808714D02*
X9259762Y-10818238D01*
X9259762Y-10818238D02*
X9269286Y-10827762D01*
X9269286Y-10827762D02*
X9278810Y-10846810D01*
X9278810Y-10846810D02*
X9278810Y-10894429D01*
X9278810Y-10894429D02*
X9269286Y-10913476D01*
X9269286Y-10913476D02*
X9259762Y-10923000D01*
X9259762Y-10923000D02*
X9240715Y-10932524D01*
X9240715Y-10932524D02*
X9193095Y-10932524D01*
X9193095Y-10932524D02*
X9174048Y-10923000D01*
X9174048Y-10923000D02*
X9164524Y-10913476D01*
X9345476Y-10732524D02*
X9478810Y-10732524D01*
X9478810Y-10732524D02*
X9393095Y-10932524D01*
X9545476Y-10732524D02*
X9545476Y-10770619D01*
X9621667Y-10732524D02*
X9621667Y-10770619D01*
X9916905Y-11008714D02*
X9907381Y-10999190D01*
X9907381Y-10999190D02*
X9888334Y-10970619D01*
X9888334Y-10970619D02*
X9878810Y-10951571D01*
X9878810Y-10951571D02*
X9869286Y-10923000D01*
X9869286Y-10923000D02*
X9859762Y-10875381D01*
X9859762Y-10875381D02*
X9859762Y-10837286D01*
X9859762Y-10837286D02*
X9869286Y-10789667D01*
X9869286Y-10789667D02*
X9878810Y-10761095D01*
X9878810Y-10761095D02*
X9888334Y-10742048D01*
X9888334Y-10742048D02*
X9907381Y-10713476D01*
X9907381Y-10713476D02*
X9916905Y-10703952D01*
X10078810Y-10732524D02*
X10040715Y-10732524D01*
X10040715Y-10732524D02*
X10021667Y-10742048D01*
X10021667Y-10742048D02*
X10012143Y-10751571D01*
X10012143Y-10751571D02*
X9993096Y-10780143D01*
X9993096Y-10780143D02*
X9983572Y-10818238D01*
X9983572Y-10818238D02*
X9983572Y-10894429D01*
X9983572Y-10894429D02*
X9993096Y-10913476D01*
X9993096Y-10913476D02*
X10002619Y-10923000D01*
X10002619Y-10923000D02*
X10021667Y-10932524D01*
X10021667Y-10932524D02*
X10059762Y-10932524D01*
X10059762Y-10932524D02*
X10078810Y-10923000D01*
X10078810Y-10923000D02*
X10088334Y-10913476D01*
X10088334Y-10913476D02*
X10097857Y-10894429D01*
X10097857Y-10894429D02*
X10097857Y-10846810D01*
X10097857Y-10846810D02*
X10088334Y-10827762D01*
X10088334Y-10827762D02*
X10078810Y-10818238D01*
X10078810Y-10818238D02*
X10059762Y-10808714D01*
X10059762Y-10808714D02*
X10021667Y-10808714D01*
X10021667Y-10808714D02*
X10002619Y-10818238D01*
X10002619Y-10818238D02*
X9993096Y-10827762D01*
X9993096Y-10827762D02*
X9983572Y-10846810D01*
X10335953Y-10932524D02*
X10335953Y-10732524D01*
X10421667Y-10932524D02*
X10421667Y-10827762D01*
X10421667Y-10827762D02*
X10412143Y-10808714D01*
X10412143Y-10808714D02*
X10393096Y-10799190D01*
X10393096Y-10799190D02*
X10364524Y-10799190D01*
X10364524Y-10799190D02*
X10345477Y-10808714D01*
X10345477Y-10808714D02*
X10335953Y-10818238D01*
X10545477Y-10932524D02*
X10526429Y-10923000D01*
X10526429Y-10923000D02*
X10516905Y-10913476D01*
X10516905Y-10913476D02*
X10507381Y-10894429D01*
X10507381Y-10894429D02*
X10507381Y-10837286D01*
X10507381Y-10837286D02*
X10516905Y-10818238D01*
X10516905Y-10818238D02*
X10526429Y-10808714D01*
X10526429Y-10808714D02*
X10545477Y-10799190D01*
X10545477Y-10799190D02*
X10574048Y-10799190D01*
X10574048Y-10799190D02*
X10593096Y-10808714D01*
X10593096Y-10808714D02*
X10602619Y-10818238D01*
X10602619Y-10818238D02*
X10612143Y-10837286D01*
X10612143Y-10837286D02*
X10612143Y-10894429D01*
X10612143Y-10894429D02*
X10602619Y-10913476D01*
X10602619Y-10913476D02*
X10593096Y-10923000D01*
X10593096Y-10923000D02*
X10574048Y-10932524D01*
X10574048Y-10932524D02*
X10545477Y-10932524D01*
X10726429Y-10932524D02*
X10707381Y-10923000D01*
X10707381Y-10923000D02*
X10697858Y-10903952D01*
X10697858Y-10903952D02*
X10697858Y-10732524D01*
X10878810Y-10923000D02*
X10859762Y-10932524D01*
X10859762Y-10932524D02*
X10821667Y-10932524D01*
X10821667Y-10932524D02*
X10802619Y-10923000D01*
X10802619Y-10923000D02*
X10793096Y-10903952D01*
X10793096Y-10903952D02*
X10793096Y-10827762D01*
X10793096Y-10827762D02*
X10802619Y-10808714D01*
X10802619Y-10808714D02*
X10821667Y-10799190D01*
X10821667Y-10799190D02*
X10859762Y-10799190D01*
X10859762Y-10799190D02*
X10878810Y-10808714D01*
X10878810Y-10808714D02*
X10888334Y-10827762D01*
X10888334Y-10827762D02*
X10888334Y-10846810D01*
X10888334Y-10846810D02*
X10793096Y-10865857D01*
X10964524Y-10923000D02*
X10983572Y-10932524D01*
X10983572Y-10932524D02*
X11021667Y-10932524D01*
X11021667Y-10932524D02*
X11040715Y-10923000D01*
X11040715Y-10923000D02*
X11050239Y-10903952D01*
X11050239Y-10903952D02*
X11050239Y-10894429D01*
X11050239Y-10894429D02*
X11040715Y-10875381D01*
X11040715Y-10875381D02*
X11021667Y-10865857D01*
X11021667Y-10865857D02*
X10993096Y-10865857D01*
X10993096Y-10865857D02*
X10974048Y-10856333D01*
X10974048Y-10856333D02*
X10964524Y-10837286D01*
X10964524Y-10837286D02*
X10964524Y-10827762D01*
X10964524Y-10827762D02*
X10974048Y-10808714D01*
X10974048Y-10808714D02*
X10993096Y-10799190D01*
X10993096Y-10799190D02*
X11021667Y-10799190D01*
X11021667Y-10799190D02*
X11040715Y-10808714D01*
X11116905Y-11008714D02*
X11126429Y-10999190D01*
X11126429Y-10999190D02*
X11145477Y-10970619D01*
X11145477Y-10970619D02*
X11155000Y-10951571D01*
X11155000Y-10951571D02*
X11164524Y-10923000D01*
X11164524Y-10923000D02*
X11174048Y-10875381D01*
X11174048Y-10875381D02*
X11174048Y-10837286D01*
X11174048Y-10837286D02*
X11164524Y-10789667D01*
X11164524Y-10789667D02*
X11155000Y-10761095D01*
X11155000Y-10761095D02*
X11145477Y-10742048D01*
X11145477Y-10742048D02*
X11126429Y-10713476D01*
X11126429Y-10713476D02*
X11116905Y-10703952D01*
D13*
X6355000Y-11104000D02*
G75*
G03*
X6355000Y-11104000I-40000J0D01*
G01*
D11*
X6640714Y-10996524D02*
X6659762Y-10996524D01*
X6659762Y-10996524D02*
X6678809Y-11006048D01*
X6678809Y-11006048D02*
X6688333Y-11015571D01*
X6688333Y-11015571D02*
X6697857Y-11034619D01*
X6697857Y-11034619D02*
X6707381Y-11072714D01*
X6707381Y-11072714D02*
X6707381Y-11120333D01*
X6707381Y-11120333D02*
X6697857Y-11158429D01*
X6697857Y-11158429D02*
X6688333Y-11177476D01*
X6688333Y-11177476D02*
X6678809Y-11187000D01*
X6678809Y-11187000D02*
X6659762Y-11196524D01*
X6659762Y-11196524D02*
X6640714Y-11196524D01*
X6640714Y-11196524D02*
X6621667Y-11187000D01*
X6621667Y-11187000D02*
X6612143Y-11177476D01*
X6612143Y-11177476D02*
X6602619Y-11158429D01*
X6602619Y-11158429D02*
X6593095Y-11120333D01*
X6593095Y-11120333D02*
X6593095Y-11072714D01*
X6593095Y-11072714D02*
X6602619Y-11034619D01*
X6602619Y-11034619D02*
X6612143Y-11015571D01*
X6612143Y-11015571D02*
X6621667Y-11006048D01*
X6621667Y-11006048D02*
X6640714Y-10996524D01*
X6793095Y-11177476D02*
X6802619Y-11187000D01*
X6802619Y-11187000D02*
X6793095Y-11196524D01*
X6793095Y-11196524D02*
X6783571Y-11187000D01*
X6783571Y-11187000D02*
X6793095Y-11177476D01*
X6793095Y-11177476D02*
X6793095Y-11196524D01*
X6916905Y-11082238D02*
X6897857Y-11072714D01*
X6897857Y-11072714D02*
X6888333Y-11063190D01*
X6888333Y-11063190D02*
X6878809Y-11044143D01*
X6878809Y-11044143D02*
X6878809Y-11034619D01*
X6878809Y-11034619D02*
X6888333Y-11015571D01*
X6888333Y-11015571D02*
X6897857Y-11006048D01*
X6897857Y-11006048D02*
X6916905Y-10996524D01*
X6916905Y-10996524D02*
X6955000Y-10996524D01*
X6955000Y-10996524D02*
X6974048Y-11006048D01*
X6974048Y-11006048D02*
X6983571Y-11015571D01*
X6983571Y-11015571D02*
X6993095Y-11034619D01*
X6993095Y-11034619D02*
X6993095Y-11044143D01*
X6993095Y-11044143D02*
X6983571Y-11063190D01*
X6983571Y-11063190D02*
X6974048Y-11072714D01*
X6974048Y-11072714D02*
X6955000Y-11082238D01*
X6955000Y-11082238D02*
X6916905Y-11082238D01*
X6916905Y-11082238D02*
X6897857Y-11091762D01*
X6897857Y-11091762D02*
X6888333Y-11101286D01*
X6888333Y-11101286D02*
X6878809Y-11120333D01*
X6878809Y-11120333D02*
X6878809Y-11158429D01*
X6878809Y-11158429D02*
X6888333Y-11177476D01*
X6888333Y-11177476D02*
X6897857Y-11187000D01*
X6897857Y-11187000D02*
X6916905Y-11196524D01*
X6916905Y-11196524D02*
X6955000Y-11196524D01*
X6955000Y-11196524D02*
X6974048Y-11187000D01*
X6974048Y-11187000D02*
X6983571Y-11177476D01*
X6983571Y-11177476D02*
X6993095Y-11158429D01*
X6993095Y-11158429D02*
X6993095Y-11120333D01*
X6993095Y-11120333D02*
X6983571Y-11101286D01*
X6983571Y-11101286D02*
X6974048Y-11091762D01*
X6974048Y-11091762D02*
X6955000Y-11082238D01*
X7116905Y-10996524D02*
X7135952Y-10996524D01*
X7135952Y-10996524D02*
X7155000Y-11006048D01*
X7155000Y-11006048D02*
X7164524Y-11015571D01*
X7164524Y-11015571D02*
X7174048Y-11034619D01*
X7174048Y-11034619D02*
X7183571Y-11072714D01*
X7183571Y-11072714D02*
X7183571Y-11120333D01*
X7183571Y-11120333D02*
X7174048Y-11158429D01*
X7174048Y-11158429D02*
X7164524Y-11177476D01*
X7164524Y-11177476D02*
X7155000Y-11187000D01*
X7155000Y-11187000D02*
X7135952Y-11196524D01*
X7135952Y-11196524D02*
X7116905Y-11196524D01*
X7116905Y-11196524D02*
X7097857Y-11187000D01*
X7097857Y-11187000D02*
X7088333Y-11177476D01*
X7088333Y-11177476D02*
X7078809Y-11158429D01*
X7078809Y-11158429D02*
X7069286Y-11120333D01*
X7069286Y-11120333D02*
X7069286Y-11072714D01*
X7069286Y-11072714D02*
X7078809Y-11034619D01*
X7078809Y-11034619D02*
X7088333Y-11015571D01*
X7088333Y-11015571D02*
X7097857Y-11006048D01*
X7097857Y-11006048D02*
X7116905Y-10996524D01*
X7307381Y-10996524D02*
X7326429Y-10996524D01*
X7326429Y-10996524D02*
X7345476Y-11006048D01*
X7345476Y-11006048D02*
X7355000Y-11015571D01*
X7355000Y-11015571D02*
X7364524Y-11034619D01*
X7364524Y-11034619D02*
X7374048Y-11072714D01*
X7374048Y-11072714D02*
X7374048Y-11120333D01*
X7374048Y-11120333D02*
X7364524Y-11158429D01*
X7364524Y-11158429D02*
X7355000Y-11177476D01*
X7355000Y-11177476D02*
X7345476Y-11187000D01*
X7345476Y-11187000D02*
X7326429Y-11196524D01*
X7326429Y-11196524D02*
X7307381Y-11196524D01*
X7307381Y-11196524D02*
X7288333Y-11187000D01*
X7288333Y-11187000D02*
X7278809Y-11177476D01*
X7278809Y-11177476D02*
X7269286Y-11158429D01*
X7269286Y-11158429D02*
X7259762Y-11120333D01*
X7259762Y-11120333D02*
X7259762Y-11072714D01*
X7259762Y-11072714D02*
X7269286Y-11034619D01*
X7269286Y-11034619D02*
X7278809Y-11015571D01*
X7278809Y-11015571D02*
X7288333Y-11006048D01*
X7288333Y-11006048D02*
X7307381Y-10996524D01*
X7459762Y-11196524D02*
X7459762Y-11063190D01*
X7459762Y-11082238D02*
X7469286Y-11072714D01*
X7469286Y-11072714D02*
X7488333Y-11063190D01*
X7488333Y-11063190D02*
X7516905Y-11063190D01*
X7516905Y-11063190D02*
X7535952Y-11072714D01*
X7535952Y-11072714D02*
X7545476Y-11091762D01*
X7545476Y-11091762D02*
X7545476Y-11196524D01*
X7545476Y-11091762D02*
X7555000Y-11072714D01*
X7555000Y-11072714D02*
X7574048Y-11063190D01*
X7574048Y-11063190D02*
X7602619Y-11063190D01*
X7602619Y-11063190D02*
X7621667Y-11072714D01*
X7621667Y-11072714D02*
X7631190Y-11091762D01*
X7631190Y-11091762D02*
X7631190Y-11196524D01*
X7726429Y-11196524D02*
X7726429Y-11063190D01*
X7726429Y-11082238D02*
X7735952Y-11072714D01*
X7735952Y-11072714D02*
X7755000Y-11063190D01*
X7755000Y-11063190D02*
X7783571Y-11063190D01*
X7783571Y-11063190D02*
X7802619Y-11072714D01*
X7802619Y-11072714D02*
X7812143Y-11091762D01*
X7812143Y-11091762D02*
X7812143Y-11196524D01*
X7812143Y-11091762D02*
X7821667Y-11072714D01*
X7821667Y-11072714D02*
X7840714Y-11063190D01*
X7840714Y-11063190D02*
X7869286Y-11063190D01*
X7869286Y-11063190D02*
X7888333Y-11072714D01*
X7888333Y-11072714D02*
X7897857Y-11091762D01*
X7897857Y-11091762D02*
X7897857Y-11196524D01*
X8288333Y-10987000D02*
X8116905Y-11244143D01*
X8545476Y-10996524D02*
X8564524Y-10996524D01*
X8564524Y-10996524D02*
X8583572Y-11006048D01*
X8583572Y-11006048D02*
X8593095Y-11015571D01*
X8593095Y-11015571D02*
X8602619Y-11034619D01*
X8602619Y-11034619D02*
X8612143Y-11072714D01*
X8612143Y-11072714D02*
X8612143Y-11120333D01*
X8612143Y-11120333D02*
X8602619Y-11158429D01*
X8602619Y-11158429D02*
X8593095Y-11177476D01*
X8593095Y-11177476D02*
X8583572Y-11187000D01*
X8583572Y-11187000D02*
X8564524Y-11196524D01*
X8564524Y-11196524D02*
X8545476Y-11196524D01*
X8545476Y-11196524D02*
X8526429Y-11187000D01*
X8526429Y-11187000D02*
X8516905Y-11177476D01*
X8516905Y-11177476D02*
X8507381Y-11158429D01*
X8507381Y-11158429D02*
X8497857Y-11120333D01*
X8497857Y-11120333D02*
X8497857Y-11072714D01*
X8497857Y-11072714D02*
X8507381Y-11034619D01*
X8507381Y-11034619D02*
X8516905Y-11015571D01*
X8516905Y-11015571D02*
X8526429Y-11006048D01*
X8526429Y-11006048D02*
X8545476Y-10996524D01*
X8697857Y-11177476D02*
X8707381Y-11187000D01*
X8707381Y-11187000D02*
X8697857Y-11196524D01*
X8697857Y-11196524D02*
X8688334Y-11187000D01*
X8688334Y-11187000D02*
X8697857Y-11177476D01*
X8697857Y-11177476D02*
X8697857Y-11196524D01*
X8831191Y-10996524D02*
X8850238Y-10996524D01*
X8850238Y-10996524D02*
X8869286Y-11006048D01*
X8869286Y-11006048D02*
X8878810Y-11015571D01*
X8878810Y-11015571D02*
X8888334Y-11034619D01*
X8888334Y-11034619D02*
X8897857Y-11072714D01*
X8897857Y-11072714D02*
X8897857Y-11120333D01*
X8897857Y-11120333D02*
X8888334Y-11158429D01*
X8888334Y-11158429D02*
X8878810Y-11177476D01*
X8878810Y-11177476D02*
X8869286Y-11187000D01*
X8869286Y-11187000D02*
X8850238Y-11196524D01*
X8850238Y-11196524D02*
X8831191Y-11196524D01*
X8831191Y-11196524D02*
X8812143Y-11187000D01*
X8812143Y-11187000D02*
X8802619Y-11177476D01*
X8802619Y-11177476D02*
X8793095Y-11158429D01*
X8793095Y-11158429D02*
X8783572Y-11120333D01*
X8783572Y-11120333D02*
X8783572Y-11072714D01*
X8783572Y-11072714D02*
X8793095Y-11034619D01*
X8793095Y-11034619D02*
X8802619Y-11015571D01*
X8802619Y-11015571D02*
X8812143Y-11006048D01*
X8812143Y-11006048D02*
X8831191Y-10996524D01*
X8964524Y-10996524D02*
X9088334Y-10996524D01*
X9088334Y-10996524D02*
X9021667Y-11072714D01*
X9021667Y-11072714D02*
X9050238Y-11072714D01*
X9050238Y-11072714D02*
X9069286Y-11082238D01*
X9069286Y-11082238D02*
X9078810Y-11091762D01*
X9078810Y-11091762D02*
X9088334Y-11110810D01*
X9088334Y-11110810D02*
X9088334Y-11158429D01*
X9088334Y-11158429D02*
X9078810Y-11177476D01*
X9078810Y-11177476D02*
X9069286Y-11187000D01*
X9069286Y-11187000D02*
X9050238Y-11196524D01*
X9050238Y-11196524D02*
X8993095Y-11196524D01*
X8993095Y-11196524D02*
X8974048Y-11187000D01*
X8974048Y-11187000D02*
X8964524Y-11177476D01*
X9278810Y-11196524D02*
X9164524Y-11196524D01*
X9221667Y-11196524D02*
X9221667Y-10996524D01*
X9221667Y-10996524D02*
X9202619Y-11025095D01*
X9202619Y-11025095D02*
X9183572Y-11044143D01*
X9183572Y-11044143D02*
X9164524Y-11053667D01*
X9459762Y-10996524D02*
X9364524Y-10996524D01*
X9364524Y-10996524D02*
X9355000Y-11091762D01*
X9355000Y-11091762D02*
X9364524Y-11082238D01*
X9364524Y-11082238D02*
X9383572Y-11072714D01*
X9383572Y-11072714D02*
X9431191Y-11072714D01*
X9431191Y-11072714D02*
X9450238Y-11082238D01*
X9450238Y-11082238D02*
X9459762Y-11091762D01*
X9459762Y-11091762D02*
X9469286Y-11110810D01*
X9469286Y-11110810D02*
X9469286Y-11158429D01*
X9469286Y-11158429D02*
X9459762Y-11177476D01*
X9459762Y-11177476D02*
X9450238Y-11187000D01*
X9450238Y-11187000D02*
X9431191Y-11196524D01*
X9431191Y-11196524D02*
X9383572Y-11196524D01*
X9383572Y-11196524D02*
X9364524Y-11187000D01*
X9364524Y-11187000D02*
X9355000Y-11177476D01*
X9545476Y-10996524D02*
X9545476Y-11034619D01*
X9621667Y-10996524D02*
X9621667Y-11034619D01*
X9916905Y-11272714D02*
X9907381Y-11263190D01*
X9907381Y-11263190D02*
X9888334Y-11234619D01*
X9888334Y-11234619D02*
X9878810Y-11215571D01*
X9878810Y-11215571D02*
X9869286Y-11187000D01*
X9869286Y-11187000D02*
X9859762Y-11139381D01*
X9859762Y-11139381D02*
X9859762Y-11101286D01*
X9859762Y-11101286D02*
X9869286Y-11053667D01*
X9869286Y-11053667D02*
X9878810Y-11025095D01*
X9878810Y-11025095D02*
X9888334Y-11006048D01*
X9888334Y-11006048D02*
X9907381Y-10977476D01*
X9907381Y-10977476D02*
X9916905Y-10967952D01*
X9983572Y-11015571D02*
X9993096Y-11006048D01*
X9993096Y-11006048D02*
X10012143Y-10996524D01*
X10012143Y-10996524D02*
X10059762Y-10996524D01*
X10059762Y-10996524D02*
X10078810Y-11006048D01*
X10078810Y-11006048D02*
X10088334Y-11015571D01*
X10088334Y-11015571D02*
X10097857Y-11034619D01*
X10097857Y-11034619D02*
X10097857Y-11053667D01*
X10097857Y-11053667D02*
X10088334Y-11082238D01*
X10088334Y-11082238D02*
X9974048Y-11196524D01*
X9974048Y-11196524D02*
X10097857Y-11196524D01*
X10174048Y-11015571D02*
X10183572Y-11006048D01*
X10183572Y-11006048D02*
X10202619Y-10996524D01*
X10202619Y-10996524D02*
X10250238Y-10996524D01*
X10250238Y-10996524D02*
X10269286Y-11006048D01*
X10269286Y-11006048D02*
X10278810Y-11015571D01*
X10278810Y-11015571D02*
X10288334Y-11034619D01*
X10288334Y-11034619D02*
X10288334Y-11053667D01*
X10288334Y-11053667D02*
X10278810Y-11082238D01*
X10278810Y-11082238D02*
X10164524Y-11196524D01*
X10164524Y-11196524D02*
X10288334Y-11196524D01*
X10526429Y-11196524D02*
X10526429Y-10996524D01*
X10612143Y-11196524D02*
X10612143Y-11091762D01*
X10612143Y-11091762D02*
X10602619Y-11072714D01*
X10602619Y-11072714D02*
X10583572Y-11063190D01*
X10583572Y-11063190D02*
X10555000Y-11063190D01*
X10555000Y-11063190D02*
X10535953Y-11072714D01*
X10535953Y-11072714D02*
X10526429Y-11082238D01*
X10735953Y-11196524D02*
X10716905Y-11187000D01*
X10716905Y-11187000D02*
X10707381Y-11177476D01*
X10707381Y-11177476D02*
X10697858Y-11158429D01*
X10697858Y-11158429D02*
X10697858Y-11101286D01*
X10697858Y-11101286D02*
X10707381Y-11082238D01*
X10707381Y-11082238D02*
X10716905Y-11072714D01*
X10716905Y-11072714D02*
X10735953Y-11063190D01*
X10735953Y-11063190D02*
X10764524Y-11063190D01*
X10764524Y-11063190D02*
X10783572Y-11072714D01*
X10783572Y-11072714D02*
X10793096Y-11082238D01*
X10793096Y-11082238D02*
X10802619Y-11101286D01*
X10802619Y-11101286D02*
X10802619Y-11158429D01*
X10802619Y-11158429D02*
X10793096Y-11177476D01*
X10793096Y-11177476D02*
X10783572Y-11187000D01*
X10783572Y-11187000D02*
X10764524Y-11196524D01*
X10764524Y-11196524D02*
X10735953Y-11196524D01*
X10916905Y-11196524D02*
X10897858Y-11187000D01*
X10897858Y-11187000D02*
X10888334Y-11167952D01*
X10888334Y-11167952D02*
X10888334Y-10996524D01*
X11069286Y-11187000D02*
X11050239Y-11196524D01*
X11050239Y-11196524D02*
X11012143Y-11196524D01*
X11012143Y-11196524D02*
X10993096Y-11187000D01*
X10993096Y-11187000D02*
X10983572Y-11167952D01*
X10983572Y-11167952D02*
X10983572Y-11091762D01*
X10983572Y-11091762D02*
X10993096Y-11072714D01*
X10993096Y-11072714D02*
X11012143Y-11063190D01*
X11012143Y-11063190D02*
X11050239Y-11063190D01*
X11050239Y-11063190D02*
X11069286Y-11072714D01*
X11069286Y-11072714D02*
X11078810Y-11091762D01*
X11078810Y-11091762D02*
X11078810Y-11110810D01*
X11078810Y-11110810D02*
X10983572Y-11129857D01*
X11155000Y-11187000D02*
X11174048Y-11196524D01*
X11174048Y-11196524D02*
X11212143Y-11196524D01*
X11212143Y-11196524D02*
X11231191Y-11187000D01*
X11231191Y-11187000D02*
X11240715Y-11167952D01*
X11240715Y-11167952D02*
X11240715Y-11158429D01*
X11240715Y-11158429D02*
X11231191Y-11139381D01*
X11231191Y-11139381D02*
X11212143Y-11129857D01*
X11212143Y-11129857D02*
X11183572Y-11129857D01*
X11183572Y-11129857D02*
X11164524Y-11120333D01*
X11164524Y-11120333D02*
X11155000Y-11101286D01*
X11155000Y-11101286D02*
X11155000Y-11091762D01*
X11155000Y-11091762D02*
X11164524Y-11072714D01*
X11164524Y-11072714D02*
X11183572Y-11063190D01*
X11183572Y-11063190D02*
X11212143Y-11063190D01*
X11212143Y-11063190D02*
X11231191Y-11072714D01*
X11307381Y-11272714D02*
X11316905Y-11263190D01*
X11316905Y-11263190D02*
X11335953Y-11234619D01*
X11335953Y-11234619D02*
X11345477Y-11215571D01*
X11345477Y-11215571D02*
X11355000Y-11187000D01*
X11355000Y-11187000D02*
X11364524Y-11139381D01*
X11364524Y-11139381D02*
X11364524Y-11101286D01*
X11364524Y-11101286D02*
X11355000Y-11053667D01*
X11355000Y-11053667D02*
X11345477Y-11025095D01*
X11345477Y-11025095D02*
X11335953Y-11006048D01*
X11335953Y-11006048D02*
X11316905Y-10977476D01*
X11316905Y-10977476D02*
X11307381Y-10967952D01*
D10*
X6305000Y-11318000D02*
X6305000Y-11418000D01*
X6255000Y-11368000D02*
X6355000Y-11368000D01*
D11*
X6707381Y-11460524D02*
X6593095Y-11460524D01*
X6650238Y-11460524D02*
X6650238Y-11260524D01*
X6650238Y-11260524D02*
X6631190Y-11289095D01*
X6631190Y-11289095D02*
X6612143Y-11308143D01*
X6612143Y-11308143D02*
X6593095Y-11317667D01*
X6793095Y-11441476D02*
X6802619Y-11451000D01*
X6802619Y-11451000D02*
X6793095Y-11460524D01*
X6793095Y-11460524D02*
X6783571Y-11451000D01*
X6783571Y-11451000D02*
X6793095Y-11441476D01*
X6793095Y-11441476D02*
X6793095Y-11460524D01*
X6926428Y-11260524D02*
X6945476Y-11260524D01*
X6945476Y-11260524D02*
X6964524Y-11270048D01*
X6964524Y-11270048D02*
X6974048Y-11279571D01*
X6974048Y-11279571D02*
X6983571Y-11298619D01*
X6983571Y-11298619D02*
X6993095Y-11336714D01*
X6993095Y-11336714D02*
X6993095Y-11384333D01*
X6993095Y-11384333D02*
X6983571Y-11422428D01*
X6983571Y-11422428D02*
X6974048Y-11441476D01*
X6974048Y-11441476D02*
X6964524Y-11451000D01*
X6964524Y-11451000D02*
X6945476Y-11460524D01*
X6945476Y-11460524D02*
X6926428Y-11460524D01*
X6926428Y-11460524D02*
X6907381Y-11451000D01*
X6907381Y-11451000D02*
X6897857Y-11441476D01*
X6897857Y-11441476D02*
X6888333Y-11422428D01*
X6888333Y-11422428D02*
X6878809Y-11384333D01*
X6878809Y-11384333D02*
X6878809Y-11336714D01*
X6878809Y-11336714D02*
X6888333Y-11298619D01*
X6888333Y-11298619D02*
X6897857Y-11279571D01*
X6897857Y-11279571D02*
X6907381Y-11270048D01*
X6907381Y-11270048D02*
X6926428Y-11260524D01*
X7116905Y-11260524D02*
X7135952Y-11260524D01*
X7135952Y-11260524D02*
X7155000Y-11270048D01*
X7155000Y-11270048D02*
X7164524Y-11279571D01*
X7164524Y-11279571D02*
X7174048Y-11298619D01*
X7174048Y-11298619D02*
X7183571Y-11336714D01*
X7183571Y-11336714D02*
X7183571Y-11384333D01*
X7183571Y-11384333D02*
X7174048Y-11422428D01*
X7174048Y-11422428D02*
X7164524Y-11441476D01*
X7164524Y-11441476D02*
X7155000Y-11451000D01*
X7155000Y-11451000D02*
X7135952Y-11460524D01*
X7135952Y-11460524D02*
X7116905Y-11460524D01*
X7116905Y-11460524D02*
X7097857Y-11451000D01*
X7097857Y-11451000D02*
X7088333Y-11441476D01*
X7088333Y-11441476D02*
X7078809Y-11422428D01*
X7078809Y-11422428D02*
X7069286Y-11384333D01*
X7069286Y-11384333D02*
X7069286Y-11336714D01*
X7069286Y-11336714D02*
X7078809Y-11298619D01*
X7078809Y-11298619D02*
X7088333Y-11279571D01*
X7088333Y-11279571D02*
X7097857Y-11270048D01*
X7097857Y-11270048D02*
X7116905Y-11260524D01*
X7307381Y-11260524D02*
X7326429Y-11260524D01*
X7326429Y-11260524D02*
X7345476Y-11270048D01*
X7345476Y-11270048D02*
X7355000Y-11279571D01*
X7355000Y-11279571D02*
X7364524Y-11298619D01*
X7364524Y-11298619D02*
X7374048Y-11336714D01*
X7374048Y-11336714D02*
X7374048Y-11384333D01*
X7374048Y-11384333D02*
X7364524Y-11422428D01*
X7364524Y-11422428D02*
X7355000Y-11441476D01*
X7355000Y-11441476D02*
X7345476Y-11451000D01*
X7345476Y-11451000D02*
X7326429Y-11460524D01*
X7326429Y-11460524D02*
X7307381Y-11460524D01*
X7307381Y-11460524D02*
X7288333Y-11451000D01*
X7288333Y-11451000D02*
X7278809Y-11441476D01*
X7278809Y-11441476D02*
X7269286Y-11422428D01*
X7269286Y-11422428D02*
X7259762Y-11384333D01*
X7259762Y-11384333D02*
X7259762Y-11336714D01*
X7259762Y-11336714D02*
X7269286Y-11298619D01*
X7269286Y-11298619D02*
X7278809Y-11279571D01*
X7278809Y-11279571D02*
X7288333Y-11270048D01*
X7288333Y-11270048D02*
X7307381Y-11260524D01*
X7459762Y-11460524D02*
X7459762Y-11327190D01*
X7459762Y-11346238D02*
X7469286Y-11336714D01*
X7469286Y-11336714D02*
X7488333Y-11327190D01*
X7488333Y-11327190D02*
X7516905Y-11327190D01*
X7516905Y-11327190D02*
X7535952Y-11336714D01*
X7535952Y-11336714D02*
X7545476Y-11355762D01*
X7545476Y-11355762D02*
X7545476Y-11460524D01*
X7545476Y-11355762D02*
X7555000Y-11336714D01*
X7555000Y-11336714D02*
X7574048Y-11327190D01*
X7574048Y-11327190D02*
X7602619Y-11327190D01*
X7602619Y-11327190D02*
X7621667Y-11336714D01*
X7621667Y-11336714D02*
X7631190Y-11355762D01*
X7631190Y-11355762D02*
X7631190Y-11460524D01*
X7726429Y-11460524D02*
X7726429Y-11327190D01*
X7726429Y-11346238D02*
X7735952Y-11336714D01*
X7735952Y-11336714D02*
X7755000Y-11327190D01*
X7755000Y-11327190D02*
X7783571Y-11327190D01*
X7783571Y-11327190D02*
X7802619Y-11336714D01*
X7802619Y-11336714D02*
X7812143Y-11355762D01*
X7812143Y-11355762D02*
X7812143Y-11460524D01*
X7812143Y-11355762D02*
X7821667Y-11336714D01*
X7821667Y-11336714D02*
X7840714Y-11327190D01*
X7840714Y-11327190D02*
X7869286Y-11327190D01*
X7869286Y-11327190D02*
X7888333Y-11336714D01*
X7888333Y-11336714D02*
X7897857Y-11355762D01*
X7897857Y-11355762D02*
X7897857Y-11460524D01*
X8288333Y-11251000D02*
X8116905Y-11508143D01*
X8545476Y-11260524D02*
X8564524Y-11260524D01*
X8564524Y-11260524D02*
X8583572Y-11270048D01*
X8583572Y-11270048D02*
X8593095Y-11279571D01*
X8593095Y-11279571D02*
X8602619Y-11298619D01*
X8602619Y-11298619D02*
X8612143Y-11336714D01*
X8612143Y-11336714D02*
X8612143Y-11384333D01*
X8612143Y-11384333D02*
X8602619Y-11422428D01*
X8602619Y-11422428D02*
X8593095Y-11441476D01*
X8593095Y-11441476D02*
X8583572Y-11451000D01*
X8583572Y-11451000D02*
X8564524Y-11460524D01*
X8564524Y-11460524D02*
X8545476Y-11460524D01*
X8545476Y-11460524D02*
X8526429Y-11451000D01*
X8526429Y-11451000D02*
X8516905Y-11441476D01*
X8516905Y-11441476D02*
X8507381Y-11422428D01*
X8507381Y-11422428D02*
X8497857Y-11384333D01*
X8497857Y-11384333D02*
X8497857Y-11336714D01*
X8497857Y-11336714D02*
X8507381Y-11298619D01*
X8507381Y-11298619D02*
X8516905Y-11279571D01*
X8516905Y-11279571D02*
X8526429Y-11270048D01*
X8526429Y-11270048D02*
X8545476Y-11260524D01*
X8697857Y-11441476D02*
X8707381Y-11451000D01*
X8707381Y-11451000D02*
X8697857Y-11460524D01*
X8697857Y-11460524D02*
X8688334Y-11451000D01*
X8688334Y-11451000D02*
X8697857Y-11441476D01*
X8697857Y-11441476D02*
X8697857Y-11460524D01*
X8831191Y-11260524D02*
X8850238Y-11260524D01*
X8850238Y-11260524D02*
X8869286Y-11270048D01*
X8869286Y-11270048D02*
X8878810Y-11279571D01*
X8878810Y-11279571D02*
X8888334Y-11298619D01*
X8888334Y-11298619D02*
X8897857Y-11336714D01*
X8897857Y-11336714D02*
X8897857Y-11384333D01*
X8897857Y-11384333D02*
X8888334Y-11422428D01*
X8888334Y-11422428D02*
X8878810Y-11441476D01*
X8878810Y-11441476D02*
X8869286Y-11451000D01*
X8869286Y-11451000D02*
X8850238Y-11460524D01*
X8850238Y-11460524D02*
X8831191Y-11460524D01*
X8831191Y-11460524D02*
X8812143Y-11451000D01*
X8812143Y-11451000D02*
X8802619Y-11441476D01*
X8802619Y-11441476D02*
X8793095Y-11422428D01*
X8793095Y-11422428D02*
X8783572Y-11384333D01*
X8783572Y-11384333D02*
X8783572Y-11336714D01*
X8783572Y-11336714D02*
X8793095Y-11298619D01*
X8793095Y-11298619D02*
X8802619Y-11279571D01*
X8802619Y-11279571D02*
X8812143Y-11270048D01*
X8812143Y-11270048D02*
X8831191Y-11260524D01*
X8964524Y-11260524D02*
X9088334Y-11260524D01*
X9088334Y-11260524D02*
X9021667Y-11336714D01*
X9021667Y-11336714D02*
X9050238Y-11336714D01*
X9050238Y-11336714D02*
X9069286Y-11346238D01*
X9069286Y-11346238D02*
X9078810Y-11355762D01*
X9078810Y-11355762D02*
X9088334Y-11374809D01*
X9088334Y-11374809D02*
X9088334Y-11422428D01*
X9088334Y-11422428D02*
X9078810Y-11441476D01*
X9078810Y-11441476D02*
X9069286Y-11451000D01*
X9069286Y-11451000D02*
X9050238Y-11460524D01*
X9050238Y-11460524D02*
X8993095Y-11460524D01*
X8993095Y-11460524D02*
X8974048Y-11451000D01*
X8974048Y-11451000D02*
X8964524Y-11441476D01*
X9183572Y-11460524D02*
X9221667Y-11460524D01*
X9221667Y-11460524D02*
X9240715Y-11451000D01*
X9240715Y-11451000D02*
X9250238Y-11441476D01*
X9250238Y-11441476D02*
X9269286Y-11412905D01*
X9269286Y-11412905D02*
X9278810Y-11374809D01*
X9278810Y-11374809D02*
X9278810Y-11298619D01*
X9278810Y-11298619D02*
X9269286Y-11279571D01*
X9269286Y-11279571D02*
X9259762Y-11270048D01*
X9259762Y-11270048D02*
X9240715Y-11260524D01*
X9240715Y-11260524D02*
X9202619Y-11260524D01*
X9202619Y-11260524D02*
X9183572Y-11270048D01*
X9183572Y-11270048D02*
X9174048Y-11279571D01*
X9174048Y-11279571D02*
X9164524Y-11298619D01*
X9164524Y-11298619D02*
X9164524Y-11346238D01*
X9164524Y-11346238D02*
X9174048Y-11365286D01*
X9174048Y-11365286D02*
X9183572Y-11374809D01*
X9183572Y-11374809D02*
X9202619Y-11384333D01*
X9202619Y-11384333D02*
X9240715Y-11384333D01*
X9240715Y-11384333D02*
X9259762Y-11374809D01*
X9259762Y-11374809D02*
X9269286Y-11365286D01*
X9269286Y-11365286D02*
X9278810Y-11346238D01*
X9450238Y-11327190D02*
X9450238Y-11460524D01*
X9402619Y-11251000D02*
X9355000Y-11393857D01*
X9355000Y-11393857D02*
X9478810Y-11393857D01*
X9545476Y-11260524D02*
X9545476Y-11298619D01*
X9621667Y-11260524D02*
X9621667Y-11298619D01*
X9916905Y-11536714D02*
X9907381Y-11527190D01*
X9907381Y-11527190D02*
X9888334Y-11498619D01*
X9888334Y-11498619D02*
X9878810Y-11479571D01*
X9878810Y-11479571D02*
X9869286Y-11451000D01*
X9869286Y-11451000D02*
X9859762Y-11403381D01*
X9859762Y-11403381D02*
X9859762Y-11365286D01*
X9859762Y-11365286D02*
X9869286Y-11317667D01*
X9869286Y-11317667D02*
X9878810Y-11289095D01*
X9878810Y-11289095D02*
X9888334Y-11270048D01*
X9888334Y-11270048D02*
X9907381Y-11241476D01*
X9907381Y-11241476D02*
X9916905Y-11231952D01*
X10002619Y-11460524D02*
X10040715Y-11460524D01*
X10040715Y-11460524D02*
X10059762Y-11451000D01*
X10059762Y-11451000D02*
X10069286Y-11441476D01*
X10069286Y-11441476D02*
X10088334Y-11412905D01*
X10088334Y-11412905D02*
X10097857Y-11374809D01*
X10097857Y-11374809D02*
X10097857Y-11298619D01*
X10097857Y-11298619D02*
X10088334Y-11279571D01*
X10088334Y-11279571D02*
X10078810Y-11270048D01*
X10078810Y-11270048D02*
X10059762Y-11260524D01*
X10059762Y-11260524D02*
X10021667Y-11260524D01*
X10021667Y-11260524D02*
X10002619Y-11270048D01*
X10002619Y-11270048D02*
X9993096Y-11279571D01*
X9993096Y-11279571D02*
X9983572Y-11298619D01*
X9983572Y-11298619D02*
X9983572Y-11346238D01*
X9983572Y-11346238D02*
X9993096Y-11365286D01*
X9993096Y-11365286D02*
X10002619Y-11374809D01*
X10002619Y-11374809D02*
X10021667Y-11384333D01*
X10021667Y-11384333D02*
X10059762Y-11384333D01*
X10059762Y-11384333D02*
X10078810Y-11374809D01*
X10078810Y-11374809D02*
X10088334Y-11365286D01*
X10088334Y-11365286D02*
X10097857Y-11346238D01*
X10335953Y-11460524D02*
X10335953Y-11260524D01*
X10421667Y-11460524D02*
X10421667Y-11355762D01*
X10421667Y-11355762D02*
X10412143Y-11336714D01*
X10412143Y-11336714D02*
X10393096Y-11327190D01*
X10393096Y-11327190D02*
X10364524Y-11327190D01*
X10364524Y-11327190D02*
X10345477Y-11336714D01*
X10345477Y-11336714D02*
X10335953Y-11346238D01*
X10545477Y-11460524D02*
X10526429Y-11451000D01*
X10526429Y-11451000D02*
X10516905Y-11441476D01*
X10516905Y-11441476D02*
X10507381Y-11422428D01*
X10507381Y-11422428D02*
X10507381Y-11365286D01*
X10507381Y-11365286D02*
X10516905Y-11346238D01*
X10516905Y-11346238D02*
X10526429Y-11336714D01*
X10526429Y-11336714D02*
X10545477Y-11327190D01*
X10545477Y-11327190D02*
X10574048Y-11327190D01*
X10574048Y-11327190D02*
X10593096Y-11336714D01*
X10593096Y-11336714D02*
X10602619Y-11346238D01*
X10602619Y-11346238D02*
X10612143Y-11365286D01*
X10612143Y-11365286D02*
X10612143Y-11422428D01*
X10612143Y-11422428D02*
X10602619Y-11441476D01*
X10602619Y-11441476D02*
X10593096Y-11451000D01*
X10593096Y-11451000D02*
X10574048Y-11460524D01*
X10574048Y-11460524D02*
X10545477Y-11460524D01*
X10726429Y-11460524D02*
X10707381Y-11451000D01*
X10707381Y-11451000D02*
X10697858Y-11431952D01*
X10697858Y-11431952D02*
X10697858Y-11260524D01*
X10878810Y-11451000D02*
X10859762Y-11460524D01*
X10859762Y-11460524D02*
X10821667Y-11460524D01*
X10821667Y-11460524D02*
X10802619Y-11451000D01*
X10802619Y-11451000D02*
X10793096Y-11431952D01*
X10793096Y-11431952D02*
X10793096Y-11355762D01*
X10793096Y-11355762D02*
X10802619Y-11336714D01*
X10802619Y-11336714D02*
X10821667Y-11327190D01*
X10821667Y-11327190D02*
X10859762Y-11327190D01*
X10859762Y-11327190D02*
X10878810Y-11336714D01*
X10878810Y-11336714D02*
X10888334Y-11355762D01*
X10888334Y-11355762D02*
X10888334Y-11374809D01*
X10888334Y-11374809D02*
X10793096Y-11393857D01*
X10964524Y-11451000D02*
X10983572Y-11460524D01*
X10983572Y-11460524D02*
X11021667Y-11460524D01*
X11021667Y-11460524D02*
X11040715Y-11451000D01*
X11040715Y-11451000D02*
X11050239Y-11431952D01*
X11050239Y-11431952D02*
X11050239Y-11422428D01*
X11050239Y-11422428D02*
X11040715Y-11403381D01*
X11040715Y-11403381D02*
X11021667Y-11393857D01*
X11021667Y-11393857D02*
X10993096Y-11393857D01*
X10993096Y-11393857D02*
X10974048Y-11384333D01*
X10974048Y-11384333D02*
X10964524Y-11365286D01*
X10964524Y-11365286D02*
X10964524Y-11355762D01*
X10964524Y-11355762D02*
X10974048Y-11336714D01*
X10974048Y-11336714D02*
X10993096Y-11327190D01*
X10993096Y-11327190D02*
X11021667Y-11327190D01*
X11021667Y-11327190D02*
X11040715Y-11336714D01*
X11116905Y-11536714D02*
X11126429Y-11527190D01*
X11126429Y-11527190D02*
X11145477Y-11498619D01*
X11145477Y-11498619D02*
X11155000Y-11479571D01*
X11155000Y-11479571D02*
X11164524Y-11451000D01*
X11164524Y-11451000D02*
X11174048Y-11403381D01*
X11174048Y-11403381D02*
X11174048Y-11365286D01*
X11174048Y-11365286D02*
X11164524Y-11317667D01*
X11164524Y-11317667D02*
X11155000Y-11289095D01*
X11155000Y-11289095D02*
X11145477Y-11270048D01*
X11145477Y-11270048D02*
X11126429Y-11241476D01*
X11126429Y-11241476D02*
X11116905Y-11231952D01*
D14*
X6340063Y-11668063D02*
X6340063Y-11595937D01*
X6267937Y-11595937D01*
X6267937Y-11668063D01*
X6340063Y-11668063D01*
D11*
X6707381Y-11724524D02*
X6593095Y-11724524D01*
X6650238Y-11724524D02*
X6650238Y-11524524D01*
X6650238Y-11524524D02*
X6631190Y-11553095D01*
X6631190Y-11553095D02*
X6612143Y-11572143D01*
X6612143Y-11572143D02*
X6593095Y-11581667D01*
X6793095Y-11705476D02*
X6802619Y-11715000D01*
X6802619Y-11715000D02*
X6793095Y-11724524D01*
X6793095Y-11724524D02*
X6783571Y-11715000D01*
X6783571Y-11715000D02*
X6793095Y-11705476D01*
X6793095Y-11705476D02*
X6793095Y-11724524D01*
X6926428Y-11524524D02*
X6945476Y-11524524D01*
X6945476Y-11524524D02*
X6964524Y-11534048D01*
X6964524Y-11534048D02*
X6974048Y-11543571D01*
X6974048Y-11543571D02*
X6983571Y-11562619D01*
X6983571Y-11562619D02*
X6993095Y-11600714D01*
X6993095Y-11600714D02*
X6993095Y-11648333D01*
X6993095Y-11648333D02*
X6983571Y-11686428D01*
X6983571Y-11686428D02*
X6974048Y-11705476D01*
X6974048Y-11705476D02*
X6964524Y-11715000D01*
X6964524Y-11715000D02*
X6945476Y-11724524D01*
X6945476Y-11724524D02*
X6926428Y-11724524D01*
X6926428Y-11724524D02*
X6907381Y-11715000D01*
X6907381Y-11715000D02*
X6897857Y-11705476D01*
X6897857Y-11705476D02*
X6888333Y-11686428D01*
X6888333Y-11686428D02*
X6878809Y-11648333D01*
X6878809Y-11648333D02*
X6878809Y-11600714D01*
X6878809Y-11600714D02*
X6888333Y-11562619D01*
X6888333Y-11562619D02*
X6897857Y-11543571D01*
X6897857Y-11543571D02*
X6907381Y-11534048D01*
X6907381Y-11534048D02*
X6926428Y-11524524D01*
X7069286Y-11543571D02*
X7078809Y-11534048D01*
X7078809Y-11534048D02*
X7097857Y-11524524D01*
X7097857Y-11524524D02*
X7145476Y-11524524D01*
X7145476Y-11524524D02*
X7164524Y-11534048D01*
X7164524Y-11534048D02*
X7174048Y-11543571D01*
X7174048Y-11543571D02*
X7183571Y-11562619D01*
X7183571Y-11562619D02*
X7183571Y-11581667D01*
X7183571Y-11581667D02*
X7174048Y-11610238D01*
X7174048Y-11610238D02*
X7059762Y-11724524D01*
X7059762Y-11724524D02*
X7183571Y-11724524D01*
X7307381Y-11524524D02*
X7326429Y-11524524D01*
X7326429Y-11524524D02*
X7345476Y-11534048D01*
X7345476Y-11534048D02*
X7355000Y-11543571D01*
X7355000Y-11543571D02*
X7364524Y-11562619D01*
X7364524Y-11562619D02*
X7374048Y-11600714D01*
X7374048Y-11600714D02*
X7374048Y-11648333D01*
X7374048Y-11648333D02*
X7364524Y-11686428D01*
X7364524Y-11686428D02*
X7355000Y-11705476D01*
X7355000Y-11705476D02*
X7345476Y-11715000D01*
X7345476Y-11715000D02*
X7326429Y-11724524D01*
X7326429Y-11724524D02*
X7307381Y-11724524D01*
X7307381Y-11724524D02*
X7288333Y-11715000D01*
X7288333Y-11715000D02*
X7278809Y-11705476D01*
X7278809Y-11705476D02*
X7269286Y-11686428D01*
X7269286Y-11686428D02*
X7259762Y-11648333D01*
X7259762Y-11648333D02*
X7259762Y-11600714D01*
X7259762Y-11600714D02*
X7269286Y-11562619D01*
X7269286Y-11562619D02*
X7278809Y-11543571D01*
X7278809Y-11543571D02*
X7288333Y-11534048D01*
X7288333Y-11534048D02*
X7307381Y-11524524D01*
X7459762Y-11724524D02*
X7459762Y-11591190D01*
X7459762Y-11610238D02*
X7469286Y-11600714D01*
X7469286Y-11600714D02*
X7488333Y-11591190D01*
X7488333Y-11591190D02*
X7516905Y-11591190D01*
X7516905Y-11591190D02*
X7535952Y-11600714D01*
X7535952Y-11600714D02*
X7545476Y-11619762D01*
X7545476Y-11619762D02*
X7545476Y-11724524D01*
X7545476Y-11619762D02*
X7555000Y-11600714D01*
X7555000Y-11600714D02*
X7574048Y-11591190D01*
X7574048Y-11591190D02*
X7602619Y-11591190D01*
X7602619Y-11591190D02*
X7621667Y-11600714D01*
X7621667Y-11600714D02*
X7631190Y-11619762D01*
X7631190Y-11619762D02*
X7631190Y-11724524D01*
X7726429Y-11724524D02*
X7726429Y-11591190D01*
X7726429Y-11610238D02*
X7735952Y-11600714D01*
X7735952Y-11600714D02*
X7755000Y-11591190D01*
X7755000Y-11591190D02*
X7783571Y-11591190D01*
X7783571Y-11591190D02*
X7802619Y-11600714D01*
X7802619Y-11600714D02*
X7812143Y-11619762D01*
X7812143Y-11619762D02*
X7812143Y-11724524D01*
X7812143Y-11619762D02*
X7821667Y-11600714D01*
X7821667Y-11600714D02*
X7840714Y-11591190D01*
X7840714Y-11591190D02*
X7869286Y-11591190D01*
X7869286Y-11591190D02*
X7888333Y-11600714D01*
X7888333Y-11600714D02*
X7897857Y-11619762D01*
X7897857Y-11619762D02*
X7897857Y-11724524D01*
X8288333Y-11515000D02*
X8116905Y-11772143D01*
X8545476Y-11524524D02*
X8564524Y-11524524D01*
X8564524Y-11524524D02*
X8583572Y-11534048D01*
X8583572Y-11534048D02*
X8593095Y-11543571D01*
X8593095Y-11543571D02*
X8602619Y-11562619D01*
X8602619Y-11562619D02*
X8612143Y-11600714D01*
X8612143Y-11600714D02*
X8612143Y-11648333D01*
X8612143Y-11648333D02*
X8602619Y-11686428D01*
X8602619Y-11686428D02*
X8593095Y-11705476D01*
X8593095Y-11705476D02*
X8583572Y-11715000D01*
X8583572Y-11715000D02*
X8564524Y-11724524D01*
X8564524Y-11724524D02*
X8545476Y-11724524D01*
X8545476Y-11724524D02*
X8526429Y-11715000D01*
X8526429Y-11715000D02*
X8516905Y-11705476D01*
X8516905Y-11705476D02*
X8507381Y-11686428D01*
X8507381Y-11686428D02*
X8497857Y-11648333D01*
X8497857Y-11648333D02*
X8497857Y-11600714D01*
X8497857Y-11600714D02*
X8507381Y-11562619D01*
X8507381Y-11562619D02*
X8516905Y-11543571D01*
X8516905Y-11543571D02*
X8526429Y-11534048D01*
X8526429Y-11534048D02*
X8545476Y-11524524D01*
X8697857Y-11705476D02*
X8707381Y-11715000D01*
X8707381Y-11715000D02*
X8697857Y-11724524D01*
X8697857Y-11724524D02*
X8688334Y-11715000D01*
X8688334Y-11715000D02*
X8697857Y-11705476D01*
X8697857Y-11705476D02*
X8697857Y-11724524D01*
X8831191Y-11524524D02*
X8850238Y-11524524D01*
X8850238Y-11524524D02*
X8869286Y-11534048D01*
X8869286Y-11534048D02*
X8878810Y-11543571D01*
X8878810Y-11543571D02*
X8888334Y-11562619D01*
X8888334Y-11562619D02*
X8897857Y-11600714D01*
X8897857Y-11600714D02*
X8897857Y-11648333D01*
X8897857Y-11648333D02*
X8888334Y-11686428D01*
X8888334Y-11686428D02*
X8878810Y-11705476D01*
X8878810Y-11705476D02*
X8869286Y-11715000D01*
X8869286Y-11715000D02*
X8850238Y-11724524D01*
X8850238Y-11724524D02*
X8831191Y-11724524D01*
X8831191Y-11724524D02*
X8812143Y-11715000D01*
X8812143Y-11715000D02*
X8802619Y-11705476D01*
X8802619Y-11705476D02*
X8793095Y-11686428D01*
X8793095Y-11686428D02*
X8783572Y-11648333D01*
X8783572Y-11648333D02*
X8783572Y-11600714D01*
X8783572Y-11600714D02*
X8793095Y-11562619D01*
X8793095Y-11562619D02*
X8802619Y-11543571D01*
X8802619Y-11543571D02*
X8812143Y-11534048D01*
X8812143Y-11534048D02*
X8831191Y-11524524D01*
X9069286Y-11591190D02*
X9069286Y-11724524D01*
X9021667Y-11515000D02*
X8974048Y-11657857D01*
X8974048Y-11657857D02*
X9097857Y-11657857D01*
X9212143Y-11524524D02*
X9231191Y-11524524D01*
X9231191Y-11524524D02*
X9250238Y-11534048D01*
X9250238Y-11534048D02*
X9259762Y-11543571D01*
X9259762Y-11543571D02*
X9269286Y-11562619D01*
X9269286Y-11562619D02*
X9278810Y-11600714D01*
X9278810Y-11600714D02*
X9278810Y-11648333D01*
X9278810Y-11648333D02*
X9269286Y-11686428D01*
X9269286Y-11686428D02*
X9259762Y-11705476D01*
X9259762Y-11705476D02*
X9250238Y-11715000D01*
X9250238Y-11715000D02*
X9231191Y-11724524D01*
X9231191Y-11724524D02*
X9212143Y-11724524D01*
X9212143Y-11724524D02*
X9193095Y-11715000D01*
X9193095Y-11715000D02*
X9183572Y-11705476D01*
X9183572Y-11705476D02*
X9174048Y-11686428D01*
X9174048Y-11686428D02*
X9164524Y-11648333D01*
X9164524Y-11648333D02*
X9164524Y-11600714D01*
X9164524Y-11600714D02*
X9174048Y-11562619D01*
X9174048Y-11562619D02*
X9183572Y-11543571D01*
X9183572Y-11543571D02*
X9193095Y-11534048D01*
X9193095Y-11534048D02*
X9212143Y-11524524D01*
X9355000Y-11543571D02*
X9364524Y-11534048D01*
X9364524Y-11534048D02*
X9383572Y-11524524D01*
X9383572Y-11524524D02*
X9431191Y-11524524D01*
X9431191Y-11524524D02*
X9450238Y-11534048D01*
X9450238Y-11534048D02*
X9459762Y-11543571D01*
X9459762Y-11543571D02*
X9469286Y-11562619D01*
X9469286Y-11562619D02*
X9469286Y-11581667D01*
X9469286Y-11581667D02*
X9459762Y-11610238D01*
X9459762Y-11610238D02*
X9345476Y-11724524D01*
X9345476Y-11724524D02*
X9469286Y-11724524D01*
X9545476Y-11524524D02*
X9545476Y-11562619D01*
X9621667Y-11524524D02*
X9621667Y-11562619D01*
X9916905Y-11800714D02*
X9907381Y-11791190D01*
X9907381Y-11791190D02*
X9888334Y-11762619D01*
X9888334Y-11762619D02*
X9878810Y-11743571D01*
X9878810Y-11743571D02*
X9869286Y-11715000D01*
X9869286Y-11715000D02*
X9859762Y-11667381D01*
X9859762Y-11667381D02*
X9859762Y-11629286D01*
X9859762Y-11629286D02*
X9869286Y-11581667D01*
X9869286Y-11581667D02*
X9878810Y-11553095D01*
X9878810Y-11553095D02*
X9888334Y-11534048D01*
X9888334Y-11534048D02*
X9907381Y-11505476D01*
X9907381Y-11505476D02*
X9916905Y-11495952D01*
X10078810Y-11591190D02*
X10078810Y-11724524D01*
X10031191Y-11515000D02*
X9983572Y-11657857D01*
X9983572Y-11657857D02*
X10107381Y-11657857D01*
X10164524Y-11524524D02*
X10288334Y-11524524D01*
X10288334Y-11524524D02*
X10221667Y-11600714D01*
X10221667Y-11600714D02*
X10250238Y-11600714D01*
X10250238Y-11600714D02*
X10269286Y-11610238D01*
X10269286Y-11610238D02*
X10278810Y-11619762D01*
X10278810Y-11619762D02*
X10288334Y-11638809D01*
X10288334Y-11638809D02*
X10288334Y-11686428D01*
X10288334Y-11686428D02*
X10278810Y-11705476D01*
X10278810Y-11705476D02*
X10269286Y-11715000D01*
X10269286Y-11715000D02*
X10250238Y-11724524D01*
X10250238Y-11724524D02*
X10193096Y-11724524D01*
X10193096Y-11724524D02*
X10174048Y-11715000D01*
X10174048Y-11715000D02*
X10164524Y-11705476D01*
X10526429Y-11724524D02*
X10526429Y-11524524D01*
X10612143Y-11724524D02*
X10612143Y-11619762D01*
X10612143Y-11619762D02*
X10602619Y-11600714D01*
X10602619Y-11600714D02*
X10583572Y-11591190D01*
X10583572Y-11591190D02*
X10555000Y-11591190D01*
X10555000Y-11591190D02*
X10535953Y-11600714D01*
X10535953Y-11600714D02*
X10526429Y-11610238D01*
X10735953Y-11724524D02*
X10716905Y-11715000D01*
X10716905Y-11715000D02*
X10707381Y-11705476D01*
X10707381Y-11705476D02*
X10697858Y-11686428D01*
X10697858Y-11686428D02*
X10697858Y-11629286D01*
X10697858Y-11629286D02*
X10707381Y-11610238D01*
X10707381Y-11610238D02*
X10716905Y-11600714D01*
X10716905Y-11600714D02*
X10735953Y-11591190D01*
X10735953Y-11591190D02*
X10764524Y-11591190D01*
X10764524Y-11591190D02*
X10783572Y-11600714D01*
X10783572Y-11600714D02*
X10793096Y-11610238D01*
X10793096Y-11610238D02*
X10802619Y-11629286D01*
X10802619Y-11629286D02*
X10802619Y-11686428D01*
X10802619Y-11686428D02*
X10793096Y-11705476D01*
X10793096Y-11705476D02*
X10783572Y-11715000D01*
X10783572Y-11715000D02*
X10764524Y-11724524D01*
X10764524Y-11724524D02*
X10735953Y-11724524D01*
X10916905Y-11724524D02*
X10897858Y-11715000D01*
X10897858Y-11715000D02*
X10888334Y-11695952D01*
X10888334Y-11695952D02*
X10888334Y-11524524D01*
X11069286Y-11715000D02*
X11050239Y-11724524D01*
X11050239Y-11724524D02*
X11012143Y-11724524D01*
X11012143Y-11724524D02*
X10993096Y-11715000D01*
X10993096Y-11715000D02*
X10983572Y-11695952D01*
X10983572Y-11695952D02*
X10983572Y-11619762D01*
X10983572Y-11619762D02*
X10993096Y-11600714D01*
X10993096Y-11600714D02*
X11012143Y-11591190D01*
X11012143Y-11591190D02*
X11050239Y-11591190D01*
X11050239Y-11591190D02*
X11069286Y-11600714D01*
X11069286Y-11600714D02*
X11078810Y-11619762D01*
X11078810Y-11619762D02*
X11078810Y-11638809D01*
X11078810Y-11638809D02*
X10983572Y-11657857D01*
X11155000Y-11715000D02*
X11174048Y-11724524D01*
X11174048Y-11724524D02*
X11212143Y-11724524D01*
X11212143Y-11724524D02*
X11231191Y-11715000D01*
X11231191Y-11715000D02*
X11240715Y-11695952D01*
X11240715Y-11695952D02*
X11240715Y-11686428D01*
X11240715Y-11686428D02*
X11231191Y-11667381D01*
X11231191Y-11667381D02*
X11212143Y-11657857D01*
X11212143Y-11657857D02*
X11183572Y-11657857D01*
X11183572Y-11657857D02*
X11164524Y-11648333D01*
X11164524Y-11648333D02*
X11155000Y-11629286D01*
X11155000Y-11629286D02*
X11155000Y-11619762D01*
X11155000Y-11619762D02*
X11164524Y-11600714D01*
X11164524Y-11600714D02*
X11183572Y-11591190D01*
X11183572Y-11591190D02*
X11212143Y-11591190D01*
X11212143Y-11591190D02*
X11231191Y-11600714D01*
X11307381Y-11800714D02*
X11316905Y-11791190D01*
X11316905Y-11791190D02*
X11335953Y-11762619D01*
X11335953Y-11762619D02*
X11345477Y-11743571D01*
X11345477Y-11743571D02*
X11355000Y-11715000D01*
X11355000Y-11715000D02*
X11364524Y-11667381D01*
X11364524Y-11667381D02*
X11364524Y-11629286D01*
X11364524Y-11629286D02*
X11355000Y-11581667D01*
X11355000Y-11581667D02*
X11345477Y-11553095D01*
X11345477Y-11553095D02*
X11335953Y-11534048D01*
X11335953Y-11534048D02*
X11316905Y-11505476D01*
X11316905Y-11505476D02*
X11307381Y-11495952D01*
D15*
X6290000Y-11961000D02*
X6355000Y-11896000D01*
X6290000Y-11831000D01*
X6225000Y-11896000D01*
X6290000Y-11961000D01*
D11*
X6707381Y-11988524D02*
X6593095Y-11988524D01*
X6650238Y-11988524D02*
X6650238Y-11788524D01*
X6650238Y-11788524D02*
X6631190Y-11817095D01*
X6631190Y-11817095D02*
X6612143Y-11836143D01*
X6612143Y-11836143D02*
X6593095Y-11845667D01*
X6793095Y-11969476D02*
X6802619Y-11979000D01*
X6802619Y-11979000D02*
X6793095Y-11988524D01*
X6793095Y-11988524D02*
X6783571Y-11979000D01*
X6783571Y-11979000D02*
X6793095Y-11969476D01*
X6793095Y-11969476D02*
X6793095Y-11988524D01*
X6869286Y-11788524D02*
X6993095Y-11788524D01*
X6993095Y-11788524D02*
X6926428Y-11864714D01*
X6926428Y-11864714D02*
X6955000Y-11864714D01*
X6955000Y-11864714D02*
X6974048Y-11874238D01*
X6974048Y-11874238D02*
X6983571Y-11883762D01*
X6983571Y-11883762D02*
X6993095Y-11902809D01*
X6993095Y-11902809D02*
X6993095Y-11950428D01*
X6993095Y-11950428D02*
X6983571Y-11969476D01*
X6983571Y-11969476D02*
X6974048Y-11979000D01*
X6974048Y-11979000D02*
X6955000Y-11988524D01*
X6955000Y-11988524D02*
X6897857Y-11988524D01*
X6897857Y-11988524D02*
X6878809Y-11979000D01*
X6878809Y-11979000D02*
X6869286Y-11969476D01*
X7116905Y-11788524D02*
X7135952Y-11788524D01*
X7135952Y-11788524D02*
X7155000Y-11798048D01*
X7155000Y-11798048D02*
X7164524Y-11807571D01*
X7164524Y-11807571D02*
X7174048Y-11826619D01*
X7174048Y-11826619D02*
X7183571Y-11864714D01*
X7183571Y-11864714D02*
X7183571Y-11912333D01*
X7183571Y-11912333D02*
X7174048Y-11950428D01*
X7174048Y-11950428D02*
X7164524Y-11969476D01*
X7164524Y-11969476D02*
X7155000Y-11979000D01*
X7155000Y-11979000D02*
X7135952Y-11988524D01*
X7135952Y-11988524D02*
X7116905Y-11988524D01*
X7116905Y-11988524D02*
X7097857Y-11979000D01*
X7097857Y-11979000D02*
X7088333Y-11969476D01*
X7088333Y-11969476D02*
X7078809Y-11950428D01*
X7078809Y-11950428D02*
X7069286Y-11912333D01*
X7069286Y-11912333D02*
X7069286Y-11864714D01*
X7069286Y-11864714D02*
X7078809Y-11826619D01*
X7078809Y-11826619D02*
X7088333Y-11807571D01*
X7088333Y-11807571D02*
X7097857Y-11798048D01*
X7097857Y-11798048D02*
X7116905Y-11788524D01*
X7307381Y-11788524D02*
X7326429Y-11788524D01*
X7326429Y-11788524D02*
X7345476Y-11798048D01*
X7345476Y-11798048D02*
X7355000Y-11807571D01*
X7355000Y-11807571D02*
X7364524Y-11826619D01*
X7364524Y-11826619D02*
X7374048Y-11864714D01*
X7374048Y-11864714D02*
X7374048Y-11912333D01*
X7374048Y-11912333D02*
X7364524Y-11950428D01*
X7364524Y-11950428D02*
X7355000Y-11969476D01*
X7355000Y-11969476D02*
X7345476Y-11979000D01*
X7345476Y-11979000D02*
X7326429Y-11988524D01*
X7326429Y-11988524D02*
X7307381Y-11988524D01*
X7307381Y-11988524D02*
X7288333Y-11979000D01*
X7288333Y-11979000D02*
X7278809Y-11969476D01*
X7278809Y-11969476D02*
X7269286Y-11950428D01*
X7269286Y-11950428D02*
X7259762Y-11912333D01*
X7259762Y-11912333D02*
X7259762Y-11864714D01*
X7259762Y-11864714D02*
X7269286Y-11826619D01*
X7269286Y-11826619D02*
X7278809Y-11807571D01*
X7278809Y-11807571D02*
X7288333Y-11798048D01*
X7288333Y-11798048D02*
X7307381Y-11788524D01*
X7459762Y-11988524D02*
X7459762Y-11855190D01*
X7459762Y-11874238D02*
X7469286Y-11864714D01*
X7469286Y-11864714D02*
X7488333Y-11855190D01*
X7488333Y-11855190D02*
X7516905Y-11855190D01*
X7516905Y-11855190D02*
X7535952Y-11864714D01*
X7535952Y-11864714D02*
X7545476Y-11883762D01*
X7545476Y-11883762D02*
X7545476Y-11988524D01*
X7545476Y-11883762D02*
X7555000Y-11864714D01*
X7555000Y-11864714D02*
X7574048Y-11855190D01*
X7574048Y-11855190D02*
X7602619Y-11855190D01*
X7602619Y-11855190D02*
X7621667Y-11864714D01*
X7621667Y-11864714D02*
X7631190Y-11883762D01*
X7631190Y-11883762D02*
X7631190Y-11988524D01*
X7726429Y-11988524D02*
X7726429Y-11855190D01*
X7726429Y-11874238D02*
X7735952Y-11864714D01*
X7735952Y-11864714D02*
X7755000Y-11855190D01*
X7755000Y-11855190D02*
X7783571Y-11855190D01*
X7783571Y-11855190D02*
X7802619Y-11864714D01*
X7802619Y-11864714D02*
X7812143Y-11883762D01*
X7812143Y-11883762D02*
X7812143Y-11988524D01*
X7812143Y-11883762D02*
X7821667Y-11864714D01*
X7821667Y-11864714D02*
X7840714Y-11855190D01*
X7840714Y-11855190D02*
X7869286Y-11855190D01*
X7869286Y-11855190D02*
X7888333Y-11864714D01*
X7888333Y-11864714D02*
X7897857Y-11883762D01*
X7897857Y-11883762D02*
X7897857Y-11988524D01*
X8288333Y-11779000D02*
X8116905Y-12036143D01*
X8545476Y-11788524D02*
X8564524Y-11788524D01*
X8564524Y-11788524D02*
X8583572Y-11798048D01*
X8583572Y-11798048D02*
X8593095Y-11807571D01*
X8593095Y-11807571D02*
X8602619Y-11826619D01*
X8602619Y-11826619D02*
X8612143Y-11864714D01*
X8612143Y-11864714D02*
X8612143Y-11912333D01*
X8612143Y-11912333D02*
X8602619Y-11950428D01*
X8602619Y-11950428D02*
X8593095Y-11969476D01*
X8593095Y-11969476D02*
X8583572Y-11979000D01*
X8583572Y-11979000D02*
X8564524Y-11988524D01*
X8564524Y-11988524D02*
X8545476Y-11988524D01*
X8545476Y-11988524D02*
X8526429Y-11979000D01*
X8526429Y-11979000D02*
X8516905Y-11969476D01*
X8516905Y-11969476D02*
X8507381Y-11950428D01*
X8507381Y-11950428D02*
X8497857Y-11912333D01*
X8497857Y-11912333D02*
X8497857Y-11864714D01*
X8497857Y-11864714D02*
X8507381Y-11826619D01*
X8507381Y-11826619D02*
X8516905Y-11807571D01*
X8516905Y-11807571D02*
X8526429Y-11798048D01*
X8526429Y-11798048D02*
X8545476Y-11788524D01*
X8697857Y-11969476D02*
X8707381Y-11979000D01*
X8707381Y-11979000D02*
X8697857Y-11988524D01*
X8697857Y-11988524D02*
X8688334Y-11979000D01*
X8688334Y-11979000D02*
X8697857Y-11969476D01*
X8697857Y-11969476D02*
X8697857Y-11988524D01*
X8831191Y-11788524D02*
X8850238Y-11788524D01*
X8850238Y-11788524D02*
X8869286Y-11798048D01*
X8869286Y-11798048D02*
X8878810Y-11807571D01*
X8878810Y-11807571D02*
X8888334Y-11826619D01*
X8888334Y-11826619D02*
X8897857Y-11864714D01*
X8897857Y-11864714D02*
X8897857Y-11912333D01*
X8897857Y-11912333D02*
X8888334Y-11950428D01*
X8888334Y-11950428D02*
X8878810Y-11969476D01*
X8878810Y-11969476D02*
X8869286Y-11979000D01*
X8869286Y-11979000D02*
X8850238Y-11988524D01*
X8850238Y-11988524D02*
X8831191Y-11988524D01*
X8831191Y-11988524D02*
X8812143Y-11979000D01*
X8812143Y-11979000D02*
X8802619Y-11969476D01*
X8802619Y-11969476D02*
X8793095Y-11950428D01*
X8793095Y-11950428D02*
X8783572Y-11912333D01*
X8783572Y-11912333D02*
X8783572Y-11864714D01*
X8783572Y-11864714D02*
X8793095Y-11826619D01*
X8793095Y-11826619D02*
X8802619Y-11807571D01*
X8802619Y-11807571D02*
X8812143Y-11798048D01*
X8812143Y-11798048D02*
X8831191Y-11788524D01*
X9078810Y-11788524D02*
X8983572Y-11788524D01*
X8983572Y-11788524D02*
X8974048Y-11883762D01*
X8974048Y-11883762D02*
X8983572Y-11874238D01*
X8983572Y-11874238D02*
X9002619Y-11864714D01*
X9002619Y-11864714D02*
X9050238Y-11864714D01*
X9050238Y-11864714D02*
X9069286Y-11874238D01*
X9069286Y-11874238D02*
X9078810Y-11883762D01*
X9078810Y-11883762D02*
X9088334Y-11902809D01*
X9088334Y-11902809D02*
X9088334Y-11950428D01*
X9088334Y-11950428D02*
X9078810Y-11969476D01*
X9078810Y-11969476D02*
X9069286Y-11979000D01*
X9069286Y-11979000D02*
X9050238Y-11988524D01*
X9050238Y-11988524D02*
X9002619Y-11988524D01*
X9002619Y-11988524D02*
X8983572Y-11979000D01*
X8983572Y-11979000D02*
X8974048Y-11969476D01*
X9278810Y-11988524D02*
X9164524Y-11988524D01*
X9221667Y-11988524D02*
X9221667Y-11788524D01*
X9221667Y-11788524D02*
X9202619Y-11817095D01*
X9202619Y-11817095D02*
X9183572Y-11836143D01*
X9183572Y-11836143D02*
X9164524Y-11845667D01*
X9355000Y-11807571D02*
X9364524Y-11798048D01*
X9364524Y-11798048D02*
X9383572Y-11788524D01*
X9383572Y-11788524D02*
X9431191Y-11788524D01*
X9431191Y-11788524D02*
X9450238Y-11798048D01*
X9450238Y-11798048D02*
X9459762Y-11807571D01*
X9459762Y-11807571D02*
X9469286Y-11826619D01*
X9469286Y-11826619D02*
X9469286Y-11845667D01*
X9469286Y-11845667D02*
X9459762Y-11874238D01*
X9459762Y-11874238D02*
X9345476Y-11988524D01*
X9345476Y-11988524D02*
X9469286Y-11988524D01*
X9545476Y-11788524D02*
X9545476Y-11826619D01*
X9621667Y-11788524D02*
X9621667Y-11826619D01*
X9916905Y-12064714D02*
X9907381Y-12055190D01*
X9907381Y-12055190D02*
X9888334Y-12026619D01*
X9888334Y-12026619D02*
X9878810Y-12007571D01*
X9878810Y-12007571D02*
X9869286Y-11979000D01*
X9869286Y-11979000D02*
X9859762Y-11931381D01*
X9859762Y-11931381D02*
X9859762Y-11893286D01*
X9859762Y-11893286D02*
X9869286Y-11845667D01*
X9869286Y-11845667D02*
X9878810Y-11817095D01*
X9878810Y-11817095D02*
X9888334Y-11798048D01*
X9888334Y-11798048D02*
X9907381Y-11769476D01*
X9907381Y-11769476D02*
X9916905Y-11759952D01*
X10021667Y-11874238D02*
X10002619Y-11864714D01*
X10002619Y-11864714D02*
X9993096Y-11855190D01*
X9993096Y-11855190D02*
X9983572Y-11836143D01*
X9983572Y-11836143D02*
X9983572Y-11826619D01*
X9983572Y-11826619D02*
X9993096Y-11807571D01*
X9993096Y-11807571D02*
X10002619Y-11798048D01*
X10002619Y-11798048D02*
X10021667Y-11788524D01*
X10021667Y-11788524D02*
X10059762Y-11788524D01*
X10059762Y-11788524D02*
X10078810Y-11798048D01*
X10078810Y-11798048D02*
X10088334Y-11807571D01*
X10088334Y-11807571D02*
X10097857Y-11826619D01*
X10097857Y-11826619D02*
X10097857Y-11836143D01*
X10097857Y-11836143D02*
X10088334Y-11855190D01*
X10088334Y-11855190D02*
X10078810Y-11864714D01*
X10078810Y-11864714D02*
X10059762Y-11874238D01*
X10059762Y-11874238D02*
X10021667Y-11874238D01*
X10021667Y-11874238D02*
X10002619Y-11883762D01*
X10002619Y-11883762D02*
X9993096Y-11893286D01*
X9993096Y-11893286D02*
X9983572Y-11912333D01*
X9983572Y-11912333D02*
X9983572Y-11950428D01*
X9983572Y-11950428D02*
X9993096Y-11969476D01*
X9993096Y-11969476D02*
X10002619Y-11979000D01*
X10002619Y-11979000D02*
X10021667Y-11988524D01*
X10021667Y-11988524D02*
X10059762Y-11988524D01*
X10059762Y-11988524D02*
X10078810Y-11979000D01*
X10078810Y-11979000D02*
X10088334Y-11969476D01*
X10088334Y-11969476D02*
X10097857Y-11950428D01*
X10097857Y-11950428D02*
X10097857Y-11912333D01*
X10097857Y-11912333D02*
X10088334Y-11893286D01*
X10088334Y-11893286D02*
X10078810Y-11883762D01*
X10078810Y-11883762D02*
X10059762Y-11874238D01*
X10335953Y-11988524D02*
X10335953Y-11788524D01*
X10421667Y-11988524D02*
X10421667Y-11883762D01*
X10421667Y-11883762D02*
X10412143Y-11864714D01*
X10412143Y-11864714D02*
X10393096Y-11855190D01*
X10393096Y-11855190D02*
X10364524Y-11855190D01*
X10364524Y-11855190D02*
X10345477Y-11864714D01*
X10345477Y-11864714D02*
X10335953Y-11874238D01*
X10545477Y-11988524D02*
X10526429Y-11979000D01*
X10526429Y-11979000D02*
X10516905Y-11969476D01*
X10516905Y-11969476D02*
X10507381Y-11950428D01*
X10507381Y-11950428D02*
X10507381Y-11893286D01*
X10507381Y-11893286D02*
X10516905Y-11874238D01*
X10516905Y-11874238D02*
X10526429Y-11864714D01*
X10526429Y-11864714D02*
X10545477Y-11855190D01*
X10545477Y-11855190D02*
X10574048Y-11855190D01*
X10574048Y-11855190D02*
X10593096Y-11864714D01*
X10593096Y-11864714D02*
X10602619Y-11874238D01*
X10602619Y-11874238D02*
X10612143Y-11893286D01*
X10612143Y-11893286D02*
X10612143Y-11950428D01*
X10612143Y-11950428D02*
X10602619Y-11969476D01*
X10602619Y-11969476D02*
X10593096Y-11979000D01*
X10593096Y-11979000D02*
X10574048Y-11988524D01*
X10574048Y-11988524D02*
X10545477Y-11988524D01*
X10726429Y-11988524D02*
X10707381Y-11979000D01*
X10707381Y-11979000D02*
X10697858Y-11959952D01*
X10697858Y-11959952D02*
X10697858Y-11788524D01*
X10878810Y-11979000D02*
X10859762Y-11988524D01*
X10859762Y-11988524D02*
X10821667Y-11988524D01*
X10821667Y-11988524D02*
X10802619Y-11979000D01*
X10802619Y-11979000D02*
X10793096Y-11959952D01*
X10793096Y-11959952D02*
X10793096Y-11883762D01*
X10793096Y-11883762D02*
X10802619Y-11864714D01*
X10802619Y-11864714D02*
X10821667Y-11855190D01*
X10821667Y-11855190D02*
X10859762Y-11855190D01*
X10859762Y-11855190D02*
X10878810Y-11864714D01*
X10878810Y-11864714D02*
X10888334Y-11883762D01*
X10888334Y-11883762D02*
X10888334Y-11902809D01*
X10888334Y-11902809D02*
X10793096Y-11921857D01*
X10964524Y-11979000D02*
X10983572Y-11988524D01*
X10983572Y-11988524D02*
X11021667Y-11988524D01*
X11021667Y-11988524D02*
X11040715Y-11979000D01*
X11040715Y-11979000D02*
X11050239Y-11959952D01*
X11050239Y-11959952D02*
X11050239Y-11950428D01*
X11050239Y-11950428D02*
X11040715Y-11931381D01*
X11040715Y-11931381D02*
X11021667Y-11921857D01*
X11021667Y-11921857D02*
X10993096Y-11921857D01*
X10993096Y-11921857D02*
X10974048Y-11912333D01*
X10974048Y-11912333D02*
X10964524Y-11893286D01*
X10964524Y-11893286D02*
X10964524Y-11883762D01*
X10964524Y-11883762D02*
X10974048Y-11864714D01*
X10974048Y-11864714D02*
X10993096Y-11855190D01*
X10993096Y-11855190D02*
X11021667Y-11855190D01*
X11021667Y-11855190D02*
X11040715Y-11864714D01*
X11116905Y-12064714D02*
X11126429Y-12055190D01*
X11126429Y-12055190D02*
X11145477Y-12026619D01*
X11145477Y-12026619D02*
X11155000Y-12007571D01*
X11155000Y-12007571D02*
X11164524Y-11979000D01*
X11164524Y-11979000D02*
X11174048Y-11931381D01*
X11174048Y-11931381D02*
X11174048Y-11893286D01*
X11174048Y-11893286D02*
X11164524Y-11845667D01*
X11164524Y-11845667D02*
X11155000Y-11817095D01*
X11155000Y-11817095D02*
X11145477Y-11798048D01*
X11145477Y-11798048D02*
X11126429Y-11769476D01*
X11126429Y-11769476D02*
X11116905Y-11759952D01*
M02*
