%TF.GenerationSoftware,KiCad,Pcbnew,7.0.1*%
%TF.CreationDate,2025-03-04T19:41:26-05:00*%
%TF.ProjectId,front_panel,66726f6e-745f-4706-916e-656c2e6b6963,rev?*%
%TF.SameCoordinates,Original*%
%TF.FileFunction,Copper,L2,Bot*%
%TF.FilePolarity,Positive*%
%FSLAX46Y46*%
G04 Gerber Fmt 4.6, Leading zero omitted, Abs format (unit mm)*
G04 Created by KiCad (PCBNEW 7.0.1) date 2025-03-04 19:41:26*
%MOMM*%
%LPD*%
G01*
G04 APERTURE LIST*
%TA.AperFunction,ComponentPad*%
%ADD10O,1.700000X1.700000*%
%TD*%
%TA.AperFunction,ComponentPad*%
%ADD11R,1.700000X1.700000*%
%TD*%
%TA.AperFunction,ComponentPad*%
%ADD12O,1.850000X3.048000*%
%TD*%
%TA.AperFunction,ComponentPad*%
%ADD13C,1.600000*%
%TD*%
%TA.AperFunction,ComponentPad*%
%ADD14O,1.600000X1.600000*%
%TD*%
%TA.AperFunction,ComponentPad*%
%ADD15O,1.524000X2.524000*%
%TD*%
%TA.AperFunction,ComponentPad*%
%ADD16R,1.524000X2.524000*%
%TD*%
%TA.AperFunction,ViaPad*%
%ADD17C,0.800000*%
%TD*%
%TA.AperFunction,Conductor*%
%ADD18C,0.250000*%
%TD*%
G04 APERTURE END LIST*
D10*
%TO.P,U3,1,GPIO0*%
%TO.N,Net-(U2-C)*%
X115840000Y-75100000D03*
%TO.P,U3,2,GPIO1*%
%TO.N,Net-(U2-DP)*%
X113300000Y-75100000D03*
D11*
%TO.P,U3,3,GND*%
%TO.N,Net-(J2-Pin_1)*%
X110760000Y-75100000D03*
D10*
%TO.P,U3,4,GPIO2*%
%TO.N,Net-(U2-G)*%
X108220000Y-75100000D03*
%TO.P,U3,5,GPIO3*%
%TO.N,Net-(U2-F)*%
X105680000Y-75100000D03*
%TO.P,U3,6,GPIO4*%
%TO.N,Net-(U2-E)*%
X103140000Y-75100000D03*
%TO.P,U3,7,GPIO5*%
%TO.N,Net-(U2-D)*%
X100600000Y-75100000D03*
D11*
%TO.P,U3,8,GND*%
%TO.N,unconnected-(U3-GND-Pad8)*%
X98060000Y-75100000D03*
D10*
%TO.P,U3,9,GPIO6*%
%TO.N,Net-(U2-B)*%
X95520000Y-75100000D03*
%TO.P,U3,10,GPIO7*%
%TO.N,Net-(U2-A)*%
X92980000Y-75100000D03*
%TO.P,U3,11,GPIO8*%
%TO.N,Net-(U1-DP)*%
X90440000Y-75100000D03*
%TO.P,U3,12,GPIO9*%
%TO.N,Net-(U1-G)*%
X87900000Y-75100000D03*
D11*
%TO.P,U3,13,GND*%
%TO.N,unconnected-(U3-GND-Pad13)*%
X85360000Y-75100000D03*
D10*
%TO.P,U3,14,GPIO10*%
%TO.N,Net-(U1-F)*%
X82820000Y-75100000D03*
%TO.P,U3,15,GPIO11*%
%TO.N,Net-(U1-E)*%
X80280000Y-75100000D03*
%TO.P,U3,16,GPIO12*%
%TO.N,Net-(U1-D)*%
X77740000Y-75100000D03*
%TO.P,U3,17,GPIO13*%
%TO.N,Net-(U1-C)*%
X75200000Y-75100000D03*
D11*
%TO.P,U3,18,GND*%
%TO.N,unconnected-(U3-GND-Pad18)*%
X72660000Y-75100000D03*
D10*
%TO.P,U3,19,GPIO14*%
%TO.N,Net-(U1-B)*%
X70120000Y-75100000D03*
%TO.P,U3,20,GPIO15*%
%TO.N,Net-(U1-A)*%
X67580000Y-75100000D03*
%TO.P,U3,21,GPIO16*%
%TO.N,Net-(J1-Pin_3)*%
X67580000Y-92880000D03*
%TO.P,U3,22,GPIO17*%
%TO.N,Net-(J1-Pin_4)*%
X70120000Y-92880000D03*
D11*
%TO.P,U3,23,GND*%
%TO.N,unconnected-(U3-GND-Pad23)*%
X72660000Y-92880000D03*
D10*
%TO.P,U3,24,GPIO18*%
%TO.N,unconnected-(U3-GPIO18-Pad24)*%
X75200000Y-92880000D03*
%TO.P,U3,25,GPIO19*%
%TO.N,unconnected-(U3-GPIO19-Pad25)*%
X77740000Y-92880000D03*
%TO.P,U3,26,GPIO20*%
%TO.N,Net-(U3-GPIO20)*%
X80280000Y-92880000D03*
%TO.P,U3,27,GPIO21*%
%TO.N,Net-(U3-GPIO21)*%
X82820000Y-92880000D03*
D11*
%TO.P,U3,28,GND*%
%TO.N,unconnected-(U3-GND-Pad28)*%
X85360000Y-92880000D03*
D10*
%TO.P,U3,29,GPIO22*%
%TO.N,Net-(J1-Pin_5)*%
X87900000Y-92880000D03*
%TO.P,U3,30,RUN*%
%TO.N,unconnected-(U3-RUN-Pad30)*%
X90440000Y-92880000D03*
%TO.P,U3,31,GPIO26_ADC0*%
%TO.N,unconnected-(U3-GPIO26_ADC0-Pad31)*%
X92980000Y-92880000D03*
%TO.P,U3,32,GPIO27_ADC1*%
%TO.N,unconnected-(U3-GPIO27_ADC1-Pad32)*%
X95520000Y-92880000D03*
D11*
%TO.P,U3,33,AGND*%
%TO.N,unconnected-(U3-AGND-Pad33)*%
X98060000Y-92880000D03*
D10*
%TO.P,U3,34,GPIO28_ADC2*%
%TO.N,unconnected-(U3-GPIO28_ADC2-Pad34)*%
X100600000Y-92880000D03*
%TO.P,U3,35,ADC_VREF*%
%TO.N,unconnected-(U3-ADC_VREF-Pad35)*%
X103140000Y-92880000D03*
%TO.P,U3,36,3V3*%
%TO.N,Net-(J2-Pin_3)*%
X105680000Y-92880000D03*
%TO.P,U3,37,3V3_EN*%
%TO.N,unconnected-(U3-3V3_EN-Pad37)*%
X108220000Y-92880000D03*
D11*
%TO.P,U3,38,GND*%
%TO.N,GND*%
X110760000Y-92880000D03*
D10*
%TO.P,U3,39,VSYS*%
%TO.N,unconnected-(U3-VSYS-Pad39)*%
X113300000Y-92880000D03*
%TO.P,U3,40,VBUS*%
%TO.N,+5V*%
X115840000Y-92880000D03*
%TO.P,U3,41,SWCLK*%
%TO.N,unconnected-(U3-SWCLK-Pad41)*%
X67810000Y-81450000D03*
D11*
%TO.P,U3,42,GND*%
%TO.N,unconnected-(U3-GND-Pad42)*%
X67810000Y-83990000D03*
D10*
%TO.P,U3,43,SWDIO*%
%TO.N,unconnected-(U3-SWDIO-Pad43)*%
X67810000Y-86530000D03*
%TD*%
D12*
%TO.P,SW2,1,1*%
%TO.N,Net-(U3-GPIO20)*%
X94000000Y-56000000D03*
X94000000Y-43500000D03*
%TO.P,SW2,2,2*%
%TO.N,Net-(J2-Pin_1)*%
X89000000Y-56000000D03*
X89000000Y-43500000D03*
%TD*%
D11*
%TO.P,J1,1,Pin_1*%
%TO.N,+5V*%
X82540000Y-66000000D03*
D10*
%TO.P,J1,2,Pin_2*%
%TO.N,GND*%
X80000000Y-66000000D03*
%TO.P,J1,3,Pin_3*%
%TO.N,Net-(J1-Pin_3)*%
X77460000Y-66000000D03*
%TO.P,J1,4,Pin_4*%
%TO.N,Net-(J1-Pin_4)*%
X74920000Y-66000000D03*
%TO.P,J1,5,Pin_5*%
%TO.N,Net-(J1-Pin_5)*%
X72380000Y-66000000D03*
%TO.P,J1,6,Pin_6*%
%TO.N,GND*%
X69840000Y-66000000D03*
%TD*%
D13*
%TO.P,R1,1*%
%TO.N,Net-(R1-Pad1)*%
X101500000Y-51120000D03*
D14*
%TO.P,R1,2*%
%TO.N,Net-(J2-Pin_2)*%
X101500000Y-43500000D03*
%TD*%
D11*
%TO.P,J2,1,Pin_1*%
%TO.N,Net-(J2-Pin_1)*%
X97100000Y-66080000D03*
D10*
%TO.P,J2,2,Pin_2*%
%TO.N,Net-(J2-Pin_2)*%
X97100000Y-63540000D03*
%TO.P,J2,3,Pin_3*%
%TO.N,Net-(J2-Pin_3)*%
X97100000Y-61000000D03*
%TD*%
D15*
%TO.P,U1,10,G*%
%TO.N,Net-(U1-G)*%
X116380000Y-42500000D03*
%TO.P,U1,9,F*%
%TO.N,Net-(U1-F)*%
X113840000Y-42500000D03*
%TO.P,U1,8,CC*%
%TO.N,Net-(R1-Pad1)*%
X111300000Y-42500000D03*
%TO.P,U1,7,A*%
%TO.N,Net-(U1-A)*%
X108760000Y-42500000D03*
%TO.P,U1,6,B*%
%TO.N,Net-(U1-B)*%
X106220000Y-42500000D03*
%TO.P,U1,5,DP*%
%TO.N,Net-(U1-DP)*%
X106220000Y-57740000D03*
%TO.P,U1,4,C*%
%TO.N,Net-(U1-C)*%
X108760000Y-57740000D03*
%TO.P,U1,3,CC*%
%TO.N,Net-(R1-Pad1)*%
X111300000Y-57740000D03*
%TO.P,U1,2,D*%
%TO.N,Net-(U1-D)*%
X113840000Y-57740000D03*
D16*
%TO.P,U1,1,E*%
%TO.N,Net-(U1-E)*%
X116380000Y-57740000D03*
%TD*%
%TO.P,U2,1,E*%
%TO.N,Net-(U2-E)*%
X129280000Y-57740000D03*
D15*
%TO.P,U2,2,D*%
%TO.N,Net-(U2-D)*%
X126740000Y-57740000D03*
%TO.P,U2,3,CC*%
%TO.N,Net-(R1-Pad1)*%
X124200000Y-57740000D03*
%TO.P,U2,4,C*%
%TO.N,Net-(U2-C)*%
X121660000Y-57740000D03*
%TO.P,U2,5,DP*%
%TO.N,Net-(U2-DP)*%
X119120000Y-57740000D03*
%TO.P,U2,6,B*%
%TO.N,Net-(U2-B)*%
X119120000Y-42500000D03*
%TO.P,U2,7,A*%
%TO.N,Net-(U2-A)*%
X121660000Y-42500000D03*
%TO.P,U2,8,CC*%
%TO.N,Net-(R1-Pad1)*%
X124200000Y-42500000D03*
%TO.P,U2,9,F*%
%TO.N,Net-(U2-F)*%
X126740000Y-42500000D03*
%TO.P,U2,10,G*%
%TO.N,Net-(U2-G)*%
X129280000Y-42500000D03*
%TD*%
D12*
%TO.P,SW1,1,1*%
%TO.N,Net-(U3-GPIO21)*%
X72600000Y-56000000D03*
X72600000Y-43500000D03*
%TO.P,SW1,2,2*%
%TO.N,Net-(J2-Pin_1)*%
X67600000Y-56000000D03*
X67600000Y-43500000D03*
%TD*%
D17*
%TO.N,Net-(U1-DP)*%
X106100000Y-63000000D03*
%TO.N,Net-(J2-Pin_1)*%
X101100000Y-56700000D03*
X101100000Y-66000000D03*
%TO.N,Net-(J2-Pin_3)*%
X92000000Y-82300000D03*
%TO.N,Net-(U3-GPIO20)*%
X88400000Y-79900000D03*
%TO.N,Net-(U1-F)*%
X86800000Y-67300000D03*
%TD*%
D18*
%TO.N,Net-(U1-DP)*%
X103074695Y-63000000D02*
X99899695Y-59825000D01*
X99899695Y-59825000D02*
X95138604Y-59825000D01*
X95138604Y-59825000D02*
X90440000Y-64523604D01*
X106100000Y-63000000D02*
X103074695Y-63000000D01*
X90440000Y-64523604D02*
X90440000Y-75100000D01*
%TO.N,GND*%
X111980000Y-94100000D02*
X110760000Y-92880000D01*
X116281701Y-94100000D02*
X111980000Y-94100000D01*
X125600000Y-84781701D02*
X116281701Y-94100000D01*
X125600000Y-41862750D02*
X125600000Y-84781701D01*
X124200250Y-40463000D02*
X125600000Y-41862750D01*
X108759750Y-40463000D02*
X124200250Y-40463000D01*
X107673000Y-41549750D02*
X108759750Y-40463000D01*
X107673000Y-43450250D02*
X107673000Y-41549750D01*
X103615017Y-47508233D02*
X107673000Y-43450250D01*
X100375000Y-47508233D02*
X103615017Y-47508233D01*
X94517767Y-41651000D02*
X100375000Y-47508233D01*
X93482233Y-41651000D02*
X94517767Y-41651000D01*
X87750000Y-47383233D02*
X93482233Y-41651000D01*
X87750000Y-58250000D02*
X87750000Y-47383233D01*
X80000000Y-66000000D02*
X87750000Y-58250000D01*
%TO.N,+5V*%
X87525000Y-66999695D02*
X86525305Y-66000000D01*
X86711396Y-68413909D02*
X87525000Y-67600305D01*
X89083299Y-83025000D02*
X86711396Y-80653097D01*
X87525000Y-67600305D02*
X87525000Y-66999695D01*
X105985000Y-83025000D02*
X89083299Y-83025000D01*
X86525305Y-66000000D02*
X82540000Y-66000000D01*
X115840000Y-92880000D02*
X105985000Y-83025000D01*
X86711396Y-80653097D02*
X86711396Y-68413909D01*
%TO.N,Net-(R1-Pad1)*%
X124200000Y-42500000D02*
X124200000Y-57740000D01*
X122613000Y-40913000D02*
X124200000Y-42500000D01*
X112887000Y-40913000D02*
X122613000Y-40913000D01*
X111300000Y-42500000D02*
X112887000Y-40913000D01*
X104680000Y-51120000D02*
X111300000Y-57740000D01*
X101500000Y-51120000D02*
X104680000Y-51120000D01*
X102680000Y-51120000D02*
X101500000Y-51120000D01*
X111300000Y-42500000D02*
X102680000Y-51120000D01*
%TO.N,Net-(U3-GPIO20)*%
X101825000Y-57000305D02*
X101400305Y-57425000D01*
X95425000Y-57425000D02*
X94000000Y-56000000D01*
X101825000Y-56399695D02*
X101825000Y-57000305D01*
X101400305Y-57425000D02*
X95425000Y-57425000D01*
X94000000Y-48574695D02*
X101825000Y-56399695D01*
X94000000Y-43500000D02*
X94000000Y-48574695D01*
%TO.N,Net-(U3-GPIO21)*%
X72600000Y-56000000D02*
X72600000Y-43500000D01*
%TO.N,Net-(J2-Pin_1)*%
X98551000Y-54151000D02*
X90849000Y-54151000D01*
X101100000Y-56700000D02*
X98551000Y-54151000D01*
X90849000Y-54151000D02*
X89000000Y-56000000D01*
X101100000Y-66000000D02*
X101660000Y-66000000D01*
X101660000Y-66000000D02*
X110760000Y-75100000D01*
%TO.N,Net-(J2-Pin_3)*%
X91805000Y-63795000D02*
X94600000Y-61000000D01*
X91805000Y-82105000D02*
X91805000Y-63795000D01*
X92000000Y-82300000D02*
X91805000Y-82105000D01*
X94600000Y-61000000D02*
X97100000Y-61000000D01*
%TO.N,Net-(U3-GPIO20)*%
X89265000Y-60735000D02*
X94000000Y-56000000D01*
X89265000Y-79035000D02*
X89265000Y-60735000D01*
X88400000Y-79900000D02*
X89265000Y-79035000D01*
%TO.N,Net-(U1-F)*%
X82820000Y-71280000D02*
X82820000Y-75100000D01*
X86800000Y-67300000D02*
X82820000Y-71280000D01*
%TO.N,Net-(J1-Pin_5)*%
X68945000Y-92393299D02*
X71485000Y-89853299D01*
X86725000Y-94055000D02*
X69633299Y-94055000D01*
X69633299Y-94055000D02*
X68945000Y-93366701D01*
X68945000Y-93366701D02*
X68945000Y-92393299D01*
X71485000Y-66895000D02*
X72380000Y-66000000D01*
X87900000Y-92880000D02*
X86725000Y-94055000D01*
X71485000Y-89853299D02*
X71485000Y-66895000D01*
%TO.N,Net-(U3-GPIO21)*%
X76095000Y-59495000D02*
X72600000Y-56000000D01*
X76095000Y-66595000D02*
X76095000Y-59495000D01*
X81645000Y-72145000D02*
X76095000Y-66595000D01*
X81645000Y-91705000D02*
X81645000Y-72145000D01*
X82820000Y-92880000D02*
X81645000Y-91705000D01*
%TO.N,Net-(J1-Pin_4)*%
X73835000Y-67085000D02*
X74920000Y-66000000D01*
X73835000Y-89165000D02*
X73835000Y-67085000D01*
X70120000Y-92880000D02*
X73835000Y-89165000D01*
%TO.N,Net-(U2-A)*%
X114475000Y-72761396D02*
X120573000Y-66663396D01*
X114475000Y-75586701D02*
X114475000Y-72761396D01*
X112111701Y-77950000D02*
X114475000Y-75586701D01*
X95830000Y-77950000D02*
X112111701Y-77950000D01*
X120573000Y-66663396D02*
X120573000Y-43587000D01*
X92980000Y-75100000D02*
X95830000Y-77950000D01*
X120573000Y-43587000D02*
X121660000Y-42500000D01*
%TO.N,Net-(U2-B)*%
X118033000Y-59267000D02*
X118033000Y-49967000D01*
X110710000Y-77500000D02*
X112125000Y-76085000D01*
X112125000Y-65175000D02*
X118033000Y-59267000D01*
X97920000Y-77500000D02*
X110710000Y-77500000D01*
X112125000Y-76085000D02*
X112125000Y-65175000D01*
X118033000Y-49967000D02*
X119120000Y-48880000D01*
X95520000Y-75100000D02*
X97920000Y-77500000D01*
X119120000Y-48880000D02*
X119120000Y-42500000D01*
%TO.N,Net-(U2-C)*%
X121660000Y-69280000D02*
X121660000Y-57740000D01*
X115840000Y-75100000D02*
X121660000Y-69280000D01*
%TO.N,Net-(U2-DP)*%
X119120000Y-67480000D02*
X119120000Y-57740000D01*
X113300000Y-73300000D02*
X119120000Y-67480000D01*
X113300000Y-75100000D02*
X113300000Y-73300000D01*
%TD*%
M02*
