%TF.GenerationSoftware,KiCad,Pcbnew,7.0.1*%
%TF.CreationDate,2025-03-04T19:41:26-05:00*%
%TF.ProjectId,front_panel,66726f6e-745f-4706-916e-656c2e6b6963,rev?*%
%TF.SameCoordinates,Original*%
%TF.FileFunction,Copper,L1,Top*%
%TF.FilePolarity,Positive*%
%FSLAX46Y46*%
G04 Gerber Fmt 4.6, Leading zero omitted, Abs format (unit mm)*
G04 Created by KiCad (PCBNEW 7.0.1) date 2025-03-04 19:41:26*
%MOMM*%
%LPD*%
G01*
G04 APERTURE LIST*
%TA.AperFunction,ComponentPad*%
%ADD10O,1.700000X1.700000*%
%TD*%
%TA.AperFunction,SMDPad,CuDef*%
%ADD11R,1.700000X3.500000*%
%TD*%
%TA.AperFunction,ComponentPad*%
%ADD12R,1.700000X1.700000*%
%TD*%
%TA.AperFunction,SMDPad,CuDef*%
%ADD13R,3.500000X1.700000*%
%TD*%
%TA.AperFunction,ComponentPad*%
%ADD14O,1.850000X3.048000*%
%TD*%
%TA.AperFunction,ComponentPad*%
%ADD15C,1.600000*%
%TD*%
%TA.AperFunction,ComponentPad*%
%ADD16O,1.600000X1.600000*%
%TD*%
%TA.AperFunction,ComponentPad*%
%ADD17O,1.524000X2.524000*%
%TD*%
%TA.AperFunction,ComponentPad*%
%ADD18R,1.524000X2.524000*%
%TD*%
%TA.AperFunction,ViaPad*%
%ADD19C,0.800000*%
%TD*%
%TA.AperFunction,Conductor*%
%ADD20C,0.250000*%
%TD*%
G04 APERTURE END LIST*
D10*
%TO.P,U3,1,GPIO0*%
%TO.N,Net-(U2-C)*%
X115840000Y-75100000D03*
D11*
X115840000Y-74200000D03*
D10*
%TO.P,U3,2,GPIO1*%
%TO.N,Net-(U2-DP)*%
X113300000Y-75100000D03*
D11*
X113300000Y-74200000D03*
D12*
%TO.P,U3,3,GND*%
%TO.N,Net-(J2-Pin_1)*%
X110760000Y-75100000D03*
D11*
X110760000Y-74200000D03*
D10*
%TO.P,U3,4,GPIO2*%
%TO.N,Net-(U2-G)*%
X108220000Y-75100000D03*
D11*
X108220000Y-74200000D03*
D10*
%TO.P,U3,5,GPIO3*%
%TO.N,Net-(U2-F)*%
X105680000Y-75100000D03*
D11*
X105680000Y-74200000D03*
D10*
%TO.P,U3,6,GPIO4*%
%TO.N,Net-(U2-E)*%
X103140000Y-75100000D03*
D11*
X103140000Y-74200000D03*
D10*
%TO.P,U3,7,GPIO5*%
%TO.N,Net-(U2-D)*%
X100600000Y-75100000D03*
D11*
X100600000Y-74200000D03*
D12*
%TO.P,U3,8,GND*%
%TO.N,unconnected-(U3-GND-Pad8)*%
X98060000Y-75100000D03*
D11*
X98060000Y-74200000D03*
D10*
%TO.P,U3,9,GPIO6*%
%TO.N,Net-(U2-B)*%
X95520000Y-75100000D03*
D11*
X95520000Y-74200000D03*
D10*
%TO.P,U3,10,GPIO7*%
%TO.N,Net-(U2-A)*%
X92980000Y-75100000D03*
D11*
X92980000Y-74200000D03*
D10*
%TO.P,U3,11,GPIO8*%
%TO.N,Net-(U1-DP)*%
X90440000Y-75100000D03*
D11*
X90440000Y-74200000D03*
D10*
%TO.P,U3,12,GPIO9*%
%TO.N,Net-(U1-G)*%
X87900000Y-75100000D03*
D11*
X87900000Y-74200000D03*
D12*
%TO.P,U3,13,GND*%
%TO.N,unconnected-(U3-GND-Pad13)*%
X85360000Y-75100000D03*
D11*
X85360000Y-74200000D03*
D10*
%TO.P,U3,14,GPIO10*%
%TO.N,Net-(U1-F)*%
X82820000Y-75100000D03*
D11*
X82820000Y-74200000D03*
D10*
%TO.P,U3,15,GPIO11*%
%TO.N,Net-(U1-E)*%
X80280000Y-75100000D03*
D11*
X80280000Y-74200000D03*
D10*
%TO.P,U3,16,GPIO12*%
%TO.N,Net-(U1-D)*%
X77740000Y-75100000D03*
D11*
X77740000Y-74200000D03*
D10*
%TO.P,U3,17,GPIO13*%
%TO.N,Net-(U1-C)*%
X75200000Y-75100000D03*
D11*
X75200000Y-74200000D03*
D12*
%TO.P,U3,18,GND*%
%TO.N,unconnected-(U3-GND-Pad18)*%
X72660000Y-75100000D03*
D11*
X72660000Y-74200000D03*
D10*
%TO.P,U3,19,GPIO14*%
%TO.N,Net-(U1-B)*%
X70120000Y-75100000D03*
D11*
X70120000Y-74200000D03*
D10*
%TO.P,U3,20,GPIO15*%
%TO.N,Net-(U1-A)*%
X67580000Y-75100000D03*
D11*
X67580000Y-74200000D03*
D10*
%TO.P,U3,21,GPIO16*%
%TO.N,Net-(J1-Pin_3)*%
X67580000Y-92880000D03*
D11*
X67580000Y-93780000D03*
D10*
%TO.P,U3,22,GPIO17*%
%TO.N,Net-(J1-Pin_4)*%
X70120000Y-92880000D03*
D11*
X70120000Y-93780000D03*
D12*
%TO.P,U3,23,GND*%
%TO.N,unconnected-(U3-GND-Pad23)*%
X72660000Y-92880000D03*
D11*
X72660000Y-93780000D03*
D10*
%TO.P,U3,24,GPIO18*%
%TO.N,unconnected-(U3-GPIO18-Pad24)*%
X75200000Y-92880000D03*
D11*
X75200000Y-93780000D03*
D10*
%TO.P,U3,25,GPIO19*%
%TO.N,unconnected-(U3-GPIO19-Pad25)*%
X77740000Y-92880000D03*
D11*
X77740000Y-93780000D03*
D10*
%TO.P,U3,26,GPIO20*%
%TO.N,Net-(U3-GPIO20)*%
X80280000Y-92880000D03*
D11*
X80280000Y-93780000D03*
D10*
%TO.P,U3,27,GPIO21*%
%TO.N,Net-(U3-GPIO21)*%
X82820000Y-92880000D03*
D11*
X82820000Y-93780000D03*
D12*
%TO.P,U3,28,GND*%
%TO.N,unconnected-(U3-GND-Pad28)*%
X85360000Y-92880000D03*
D11*
X85360000Y-93780000D03*
D10*
%TO.P,U3,29,GPIO22*%
%TO.N,Net-(J1-Pin_5)*%
X87900000Y-92880000D03*
D11*
X87900000Y-93780000D03*
D10*
%TO.P,U3,30,RUN*%
%TO.N,unconnected-(U3-RUN-Pad30)*%
X90440000Y-92880000D03*
D11*
X90440000Y-93780000D03*
D10*
%TO.P,U3,31,GPIO26_ADC0*%
%TO.N,unconnected-(U3-GPIO26_ADC0-Pad31)*%
X92980000Y-92880000D03*
D11*
X92980000Y-93780000D03*
D10*
%TO.P,U3,32,GPIO27_ADC1*%
%TO.N,unconnected-(U3-GPIO27_ADC1-Pad32)*%
X95520000Y-92880000D03*
D11*
X95520000Y-93780000D03*
D12*
%TO.P,U3,33,AGND*%
%TO.N,unconnected-(U3-AGND-Pad33)*%
X98060000Y-92880000D03*
D11*
X98060000Y-93780000D03*
D10*
%TO.P,U3,34,GPIO28_ADC2*%
%TO.N,unconnected-(U3-GPIO28_ADC2-Pad34)*%
X100600000Y-92880000D03*
D11*
X100600000Y-93780000D03*
D10*
%TO.P,U3,35,ADC_VREF*%
%TO.N,unconnected-(U3-ADC_VREF-Pad35)*%
X103140000Y-92880000D03*
D11*
X103140000Y-93780000D03*
D10*
%TO.P,U3,36,3V3*%
%TO.N,Net-(J2-Pin_3)*%
X105680000Y-92880000D03*
D11*
X105680000Y-93780000D03*
D10*
%TO.P,U3,37,3V3_EN*%
%TO.N,unconnected-(U3-3V3_EN-Pad37)*%
X108220000Y-92880000D03*
D11*
X108220000Y-93780000D03*
D12*
%TO.P,U3,38,GND*%
%TO.N,GND*%
X110760000Y-92880000D03*
D11*
X110760000Y-93780000D03*
D10*
%TO.P,U3,39,VSYS*%
%TO.N,unconnected-(U3-VSYS-Pad39)*%
X113300000Y-92880000D03*
D11*
X113300000Y-93780000D03*
D10*
%TO.P,U3,40,VBUS*%
%TO.N,+5V*%
X115840000Y-92880000D03*
D11*
X115840000Y-93780000D03*
D10*
%TO.P,U3,41,SWCLK*%
%TO.N,unconnected-(U3-SWCLK-Pad41)*%
X67810000Y-81450000D03*
D13*
X66910000Y-81450000D03*
D12*
%TO.P,U3,42,GND*%
%TO.N,unconnected-(U3-GND-Pad42)*%
X67810000Y-83990000D03*
D13*
X66910000Y-83990000D03*
D10*
%TO.P,U3,43,SWDIO*%
%TO.N,unconnected-(U3-SWDIO-Pad43)*%
X67810000Y-86530000D03*
D13*
X66910000Y-86530000D03*
%TD*%
D14*
%TO.P,SW2,1,1*%
%TO.N,Net-(U3-GPIO20)*%
X94000000Y-56000000D03*
X94000000Y-43500000D03*
%TO.P,SW2,2,2*%
%TO.N,Net-(J2-Pin_1)*%
X89000000Y-56000000D03*
X89000000Y-43500000D03*
%TD*%
D12*
%TO.P,J1,1,Pin_1*%
%TO.N,+5V*%
X82540000Y-66000000D03*
D10*
%TO.P,J1,2,Pin_2*%
%TO.N,GND*%
X80000000Y-66000000D03*
%TO.P,J1,3,Pin_3*%
%TO.N,Net-(J1-Pin_3)*%
X77460000Y-66000000D03*
%TO.P,J1,4,Pin_4*%
%TO.N,Net-(J1-Pin_4)*%
X74920000Y-66000000D03*
%TO.P,J1,5,Pin_5*%
%TO.N,Net-(J1-Pin_5)*%
X72380000Y-66000000D03*
%TO.P,J1,6,Pin_6*%
%TO.N,GND*%
X69840000Y-66000000D03*
%TD*%
D15*
%TO.P,R1,1*%
%TO.N,Net-(R1-Pad1)*%
X101500000Y-51120000D03*
D16*
%TO.P,R1,2*%
%TO.N,Net-(J2-Pin_2)*%
X101500000Y-43500000D03*
%TD*%
D12*
%TO.P,J2,1,Pin_1*%
%TO.N,Net-(J2-Pin_1)*%
X97100000Y-66080000D03*
D10*
%TO.P,J2,2,Pin_2*%
%TO.N,Net-(J2-Pin_2)*%
X97100000Y-63540000D03*
%TO.P,J2,3,Pin_3*%
%TO.N,Net-(J2-Pin_3)*%
X97100000Y-61000000D03*
%TD*%
D17*
%TO.P,U1,10,G*%
%TO.N,Net-(U1-G)*%
X116380000Y-42500000D03*
%TO.P,U1,9,F*%
%TO.N,Net-(U1-F)*%
X113840000Y-42500000D03*
%TO.P,U1,8,CC*%
%TO.N,Net-(R1-Pad1)*%
X111300000Y-42500000D03*
%TO.P,U1,7,A*%
%TO.N,Net-(U1-A)*%
X108760000Y-42500000D03*
%TO.P,U1,6,B*%
%TO.N,Net-(U1-B)*%
X106220000Y-42500000D03*
%TO.P,U1,5,DP*%
%TO.N,Net-(U1-DP)*%
X106220000Y-57740000D03*
%TO.P,U1,4,C*%
%TO.N,Net-(U1-C)*%
X108760000Y-57740000D03*
%TO.P,U1,3,CC*%
%TO.N,Net-(R1-Pad1)*%
X111300000Y-57740000D03*
%TO.P,U1,2,D*%
%TO.N,Net-(U1-D)*%
X113840000Y-57740000D03*
D18*
%TO.P,U1,1,E*%
%TO.N,Net-(U1-E)*%
X116380000Y-57740000D03*
%TD*%
%TO.P,U2,1,E*%
%TO.N,Net-(U2-E)*%
X129280000Y-57740000D03*
D17*
%TO.P,U2,2,D*%
%TO.N,Net-(U2-D)*%
X126740000Y-57740000D03*
%TO.P,U2,3,CC*%
%TO.N,Net-(R1-Pad1)*%
X124200000Y-57740000D03*
%TO.P,U2,4,C*%
%TO.N,Net-(U2-C)*%
X121660000Y-57740000D03*
%TO.P,U2,5,DP*%
%TO.N,Net-(U2-DP)*%
X119120000Y-57740000D03*
%TO.P,U2,6,B*%
%TO.N,Net-(U2-B)*%
X119120000Y-42500000D03*
%TO.P,U2,7,A*%
%TO.N,Net-(U2-A)*%
X121660000Y-42500000D03*
%TO.P,U2,8,CC*%
%TO.N,Net-(R1-Pad1)*%
X124200000Y-42500000D03*
%TO.P,U2,9,F*%
%TO.N,Net-(U2-F)*%
X126740000Y-42500000D03*
%TO.P,U2,10,G*%
%TO.N,Net-(U2-G)*%
X129280000Y-42500000D03*
%TD*%
D14*
%TO.P,SW1,1,1*%
%TO.N,Net-(U3-GPIO21)*%
X72600000Y-56000000D03*
X72600000Y-43500000D03*
%TO.P,SW1,2,2*%
%TO.N,Net-(J2-Pin_1)*%
X67600000Y-56000000D03*
X67600000Y-43500000D03*
%TD*%
D19*
%TO.N,Net-(U1-DP)*%
X106100000Y-63000000D03*
%TO.N,Net-(J2-Pin_1)*%
X101100000Y-56700000D03*
X101100000Y-66000000D03*
%TO.N,Net-(J2-Pin_3)*%
X92000000Y-82300000D03*
%TO.N,Net-(U3-GPIO20)*%
X88400000Y-79900000D03*
%TO.N,Net-(U1-F)*%
X86800000Y-67300000D03*
%TD*%
D20*
%TO.N,Net-(U1-G)*%
X107750000Y-80450000D02*
X93250000Y-80450000D01*
X110900000Y-83600000D02*
X107750000Y-80450000D01*
X93250000Y-80450000D02*
X87900000Y-75100000D01*
X111900000Y-83600000D02*
X110900000Y-83600000D01*
X112100000Y-83400000D02*
X111900000Y-83600000D01*
X126596396Y-83400000D02*
X112100000Y-83400000D01*
X129730250Y-40913000D02*
X130367000Y-41549750D01*
X130367000Y-41549750D02*
X130367000Y-79629396D01*
X130367000Y-79629396D02*
X126596396Y-83400000D01*
X116380000Y-42500000D02*
X117967000Y-40913000D01*
X117967000Y-40913000D02*
X129730250Y-40913000D01*
%TO.N,Net-(U2-E)*%
X129300000Y-57760000D02*
X129280000Y-57740000D01*
X103865000Y-78001396D02*
X105713604Y-79850000D01*
X105713604Y-79850000D02*
X129250000Y-79850000D01*
X103865000Y-75825000D02*
X103865000Y-78001396D01*
X129250000Y-79850000D02*
X129300000Y-79900000D01*
X103140000Y-75100000D02*
X103865000Y-75825000D01*
X129300000Y-79900000D02*
X129300000Y-57760000D01*
%TO.N,Net-(U1-DP)*%
X106220000Y-62880000D02*
X106100000Y-63000000D01*
X106220000Y-57740000D02*
X106220000Y-62880000D01*
%TO.N,Net-(U2-D)*%
X105900000Y-79400000D02*
X126500000Y-79400000D01*
X126740000Y-79160000D02*
X126740000Y-57740000D01*
X104315000Y-77815000D02*
X105900000Y-79400000D01*
X104315000Y-72125000D02*
X104315000Y-77815000D01*
X101965000Y-72125000D02*
X104315000Y-72125000D01*
X100600000Y-73490000D02*
X101965000Y-72125000D01*
X126500000Y-79400000D02*
X126740000Y-79160000D01*
X100600000Y-75100000D02*
X100600000Y-73490000D01*
%TO.N,GND*%
X78825000Y-64825000D02*
X80000000Y-66000000D01*
X71015000Y-64825000D02*
X78825000Y-64825000D01*
X69840000Y-66000000D02*
X71015000Y-64825000D01*
%TO.N,Net-(J2-Pin_1)*%
X67600000Y-43500000D02*
X67600000Y-56000000D01*
X68100000Y-52800000D02*
X67600000Y-53300000D01*
X85800000Y-52800000D02*
X68100000Y-52800000D01*
X67600000Y-53300000D02*
X67600000Y-56000000D01*
X89000000Y-56000000D02*
X85800000Y-52800000D01*
X89000000Y-56000000D02*
X89000000Y-43500000D01*
X101100000Y-62080000D02*
X101100000Y-56700000D01*
X97100000Y-66080000D02*
X101100000Y-62080000D01*
%TO.N,Net-(J2-Pin_2)*%
X86075000Y-67600305D02*
X86075000Y-61325000D01*
X101500000Y-45900000D02*
X101500000Y-43500000D01*
X86499695Y-68025000D02*
X86075000Y-67600305D01*
X92615000Y-68025000D02*
X86499695Y-68025000D01*
X86075000Y-61325000D02*
X101500000Y-45900000D01*
X97100000Y-63540000D02*
X92615000Y-68025000D01*
%TO.N,Net-(J2-Pin_1)*%
X101020000Y-66080000D02*
X101100000Y-66000000D01*
X97100000Y-66080000D02*
X101020000Y-66080000D01*
%TO.N,Net-(J2-Pin_3)*%
X95100000Y-82300000D02*
X92000000Y-82300000D01*
X105680000Y-92880000D02*
X95100000Y-82300000D01*
%TO.N,Net-(U3-GPIO20)*%
X86725000Y-81575000D02*
X88400000Y-79900000D01*
X86725000Y-86435000D02*
X86725000Y-81575000D01*
X80280000Y-92880000D02*
X86725000Y-86435000D01*
%TO.N,Net-(U1-F)*%
X102900000Y-51400000D02*
X87000000Y-67300000D01*
X105500604Y-40463000D02*
X102900000Y-43063604D01*
X87000000Y-67300000D02*
X86800000Y-67300000D01*
X102900000Y-43063604D02*
X102900000Y-51400000D01*
X111803000Y-40463000D02*
X105500604Y-40463000D01*
X113840000Y-42500000D02*
X111803000Y-40463000D01*
%TO.N,Net-(J1-Pin_3)*%
X77460000Y-68340000D02*
X77460000Y-66000000D01*
X64100000Y-74430000D02*
X70030000Y-68500000D01*
X77300000Y-68500000D02*
X77460000Y-68340000D01*
X70030000Y-68500000D02*
X77300000Y-68500000D01*
X64100000Y-89400000D02*
X64100000Y-74430000D01*
X67580000Y-92880000D02*
X64100000Y-89400000D01*
%TO.N,Net-(U1-A)*%
X107173000Y-40913000D02*
X108760000Y-42500000D01*
X105687000Y-40913000D02*
X107173000Y-40913000D01*
X105133000Y-41467000D02*
X105687000Y-40913000D01*
X105133000Y-43450250D02*
X105133000Y-41467000D01*
X106282750Y-44600000D02*
X105133000Y-43450250D01*
X107200000Y-44600000D02*
X106282750Y-44600000D01*
X107200000Y-53400000D02*
X107200000Y-44600000D01*
X103600000Y-57000000D02*
X107200000Y-53400000D01*
X103600000Y-69100000D02*
X103600000Y-57000000D01*
X71970000Y-69100000D02*
X103600000Y-69100000D01*
X67580000Y-73490000D02*
X71970000Y-69100000D01*
X67580000Y-75100000D02*
X67580000Y-73490000D01*
%TO.N,Net-(U1-B)*%
X107673000Y-43953000D02*
X106220000Y-42500000D01*
X107673000Y-65854208D02*
X107673000Y-43953000D01*
X103913604Y-69613604D02*
X107673000Y-65854208D01*
X76536396Y-69613604D02*
X103913604Y-69613604D01*
X74025000Y-72125000D02*
X76536396Y-69613604D01*
X74025000Y-76275000D02*
X74025000Y-72125000D01*
X71295000Y-76275000D02*
X74025000Y-76275000D01*
X70120000Y-75100000D02*
X71295000Y-76275000D01*
%TO.N,Net-(U1-C)*%
X108760000Y-65403604D02*
X108760000Y-57740000D01*
X78508198Y-70181802D02*
X103981802Y-70181802D01*
X75200000Y-73490000D02*
X78508198Y-70181802D01*
X103981802Y-70181802D02*
X108760000Y-65403604D01*
X75200000Y-75100000D02*
X75200000Y-73490000D01*
%TO.N,Net-(U1-D)*%
X77740000Y-73460000D02*
X77740000Y-75100000D01*
X80300000Y-70900000D02*
X77740000Y-73460000D01*
X103900000Y-70900000D02*
X80300000Y-70900000D01*
X113840000Y-60960000D02*
X103900000Y-70900000D01*
X113840000Y-57740000D02*
X113840000Y-60960000D01*
%TO.N,Net-(U1-E)*%
X80280000Y-72320000D02*
X80280000Y-75100000D01*
X104100000Y-71500000D02*
X81100000Y-71500000D01*
X116380000Y-59220000D02*
X104100000Y-71500000D01*
X81100000Y-71500000D02*
X80280000Y-72320000D01*
X116380000Y-57740000D02*
X116380000Y-59220000D01*
%TO.N,Net-(U2-F)*%
X123113000Y-47987000D02*
X126740000Y-44360000D01*
X123113000Y-58690250D02*
X123113000Y-47987000D01*
X126740000Y-44360000D02*
X126740000Y-44040000D01*
X124900000Y-60477250D02*
X123113000Y-58690250D01*
X124900000Y-67600000D02*
X124900000Y-60477250D01*
X111570000Y-67600000D02*
X124900000Y-67600000D01*
X105680000Y-73490000D02*
X111570000Y-67600000D01*
X105680000Y-75100000D02*
X105680000Y-73490000D01*
X126740000Y-44040000D02*
X126740000Y-42500000D01*
%TO.N,Net-(U2-G)*%
X108220000Y-73680000D02*
X108220000Y-75100000D01*
X109775000Y-72125000D02*
X108220000Y-73680000D01*
X121011396Y-72125000D02*
X109775000Y-72125000D01*
X125350000Y-46430000D02*
X125350000Y-67786396D01*
X129280000Y-42500000D02*
X125350000Y-46430000D01*
X125350000Y-67786396D02*
X121011396Y-72125000D01*
%TD*%
M02*
