%TF.GenerationSoftware,KiCad,Pcbnew,7.0.1*%
%TF.CreationDate,2025-03-04T19:41:26-05:00*%
%TF.ProjectId,front_panel,66726f6e-745f-4706-916e-656c2e6b6963,rev?*%
%TF.SameCoordinates,Original*%
%TF.FileFunction,Legend,Top*%
%TF.FilePolarity,Positive*%
%FSLAX46Y46*%
G04 Gerber Fmt 4.6, Leading zero omitted, Abs format (unit mm)*
G04 Created by KiCad (PCBNEW 7.0.1) date 2025-03-04 19:41:26*
%MOMM*%
%LPD*%
G01*
G04 APERTURE LIST*
%ADD10C,0.150000*%
%ADD11C,0.120000*%
G04 APERTURE END LIST*
D10*
X87609523Y-60782380D02*
X87561904Y-60830000D01*
X87561904Y-60830000D02*
X87419047Y-60877619D01*
X87419047Y-60877619D02*
X87323809Y-60877619D01*
X87323809Y-60877619D02*
X87180952Y-60830000D01*
X87180952Y-60830000D02*
X87085714Y-60734761D01*
X87085714Y-60734761D02*
X87038095Y-60639523D01*
X87038095Y-60639523D02*
X86990476Y-60449047D01*
X86990476Y-60449047D02*
X86990476Y-60306190D01*
X86990476Y-60306190D02*
X87038095Y-60115714D01*
X87038095Y-60115714D02*
X87085714Y-60020476D01*
X87085714Y-60020476D02*
X87180952Y-59925238D01*
X87180952Y-59925238D02*
X87323809Y-59877619D01*
X87323809Y-59877619D02*
X87419047Y-59877619D01*
X87419047Y-59877619D02*
X87561904Y-59925238D01*
X87561904Y-59925238D02*
X87609523Y-59972857D01*
X88038095Y-60782380D02*
X88085714Y-60830000D01*
X88085714Y-60830000D02*
X88038095Y-60877619D01*
X88038095Y-60877619D02*
X87990476Y-60830000D01*
X87990476Y-60830000D02*
X88038095Y-60782380D01*
X88038095Y-60782380D02*
X88038095Y-60877619D01*
X89085713Y-60782380D02*
X89038094Y-60830000D01*
X89038094Y-60830000D02*
X88895237Y-60877619D01*
X88895237Y-60877619D02*
X88799999Y-60877619D01*
X88799999Y-60877619D02*
X88657142Y-60830000D01*
X88657142Y-60830000D02*
X88561904Y-60734761D01*
X88561904Y-60734761D02*
X88514285Y-60639523D01*
X88514285Y-60639523D02*
X88466666Y-60449047D01*
X88466666Y-60449047D02*
X88466666Y-60306190D01*
X88466666Y-60306190D02*
X88514285Y-60115714D01*
X88514285Y-60115714D02*
X88561904Y-60020476D01*
X88561904Y-60020476D02*
X88657142Y-59925238D01*
X88657142Y-59925238D02*
X88799999Y-59877619D01*
X88799999Y-59877619D02*
X88895237Y-59877619D01*
X88895237Y-59877619D02*
X89038094Y-59925238D01*
X89038094Y-59925238D02*
X89085713Y-59972857D01*
X89514285Y-60782380D02*
X89561904Y-60830000D01*
X89561904Y-60830000D02*
X89514285Y-60877619D01*
X89514285Y-60877619D02*
X89466666Y-60830000D01*
X89466666Y-60830000D02*
X89514285Y-60782380D01*
X89514285Y-60782380D02*
X89514285Y-60877619D01*
X90657142Y-59877619D02*
X91323808Y-59877619D01*
X91323808Y-59877619D02*
X90895237Y-60877619D01*
X92419047Y-60830000D02*
X92561904Y-60877619D01*
X92561904Y-60877619D02*
X92799999Y-60877619D01*
X92799999Y-60877619D02*
X92895237Y-60830000D01*
X92895237Y-60830000D02*
X92942856Y-60782380D01*
X92942856Y-60782380D02*
X92990475Y-60687142D01*
X92990475Y-60687142D02*
X92990475Y-60591904D01*
X92990475Y-60591904D02*
X92942856Y-60496666D01*
X92942856Y-60496666D02*
X92895237Y-60449047D01*
X92895237Y-60449047D02*
X92799999Y-60401428D01*
X92799999Y-60401428D02*
X92609523Y-60353809D01*
X92609523Y-60353809D02*
X92514285Y-60306190D01*
X92514285Y-60306190D02*
X92466666Y-60258571D01*
X92466666Y-60258571D02*
X92419047Y-60163333D01*
X92419047Y-60163333D02*
X92419047Y-60068095D01*
X92419047Y-60068095D02*
X92466666Y-59972857D01*
X92466666Y-59972857D02*
X92514285Y-59925238D01*
X92514285Y-59925238D02*
X92609523Y-59877619D01*
X92609523Y-59877619D02*
X92847618Y-59877619D01*
X92847618Y-59877619D02*
X92990475Y-59925238D01*
X93799999Y-60830000D02*
X93704761Y-60877619D01*
X93704761Y-60877619D02*
X93514285Y-60877619D01*
X93514285Y-60877619D02*
X93419047Y-60830000D01*
X93419047Y-60830000D02*
X93371428Y-60734761D01*
X93371428Y-60734761D02*
X93371428Y-60353809D01*
X93371428Y-60353809D02*
X93419047Y-60258571D01*
X93419047Y-60258571D02*
X93514285Y-60210952D01*
X93514285Y-60210952D02*
X93704761Y-60210952D01*
X93704761Y-60210952D02*
X93799999Y-60258571D01*
X93799999Y-60258571D02*
X93847618Y-60353809D01*
X93847618Y-60353809D02*
X93847618Y-60449047D01*
X93847618Y-60449047D02*
X93371428Y-60544285D01*
X94704761Y-60210952D02*
X94704761Y-61020476D01*
X94704761Y-61020476D02*
X94657142Y-61115714D01*
X94657142Y-61115714D02*
X94609523Y-61163333D01*
X94609523Y-61163333D02*
X94514285Y-61210952D01*
X94514285Y-61210952D02*
X94371428Y-61210952D01*
X94371428Y-61210952D02*
X94276190Y-61163333D01*
X94704761Y-60830000D02*
X94609523Y-60877619D01*
X94609523Y-60877619D02*
X94419047Y-60877619D01*
X94419047Y-60877619D02*
X94323809Y-60830000D01*
X94323809Y-60830000D02*
X94276190Y-60782380D01*
X94276190Y-60782380D02*
X94228571Y-60687142D01*
X94228571Y-60687142D02*
X94228571Y-60401428D01*
X94228571Y-60401428D02*
X94276190Y-60306190D01*
X94276190Y-60306190D02*
X94323809Y-60258571D01*
X94323809Y-60258571D02*
X94419047Y-60210952D01*
X94419047Y-60210952D02*
X94609523Y-60210952D01*
X94609523Y-60210952D02*
X94704761Y-60258571D01*
X72025238Y-63138095D02*
X71977619Y-63233333D01*
X71977619Y-63233333D02*
X71977619Y-63376190D01*
X71977619Y-63376190D02*
X72025238Y-63519047D01*
X72025238Y-63519047D02*
X72120476Y-63614285D01*
X72120476Y-63614285D02*
X72215714Y-63661904D01*
X72215714Y-63661904D02*
X72406190Y-63709523D01*
X72406190Y-63709523D02*
X72549047Y-63709523D01*
X72549047Y-63709523D02*
X72739523Y-63661904D01*
X72739523Y-63661904D02*
X72834761Y-63614285D01*
X72834761Y-63614285D02*
X72930000Y-63519047D01*
X72930000Y-63519047D02*
X72977619Y-63376190D01*
X72977619Y-63376190D02*
X72977619Y-63280952D01*
X72977619Y-63280952D02*
X72930000Y-63138095D01*
X72930000Y-63138095D02*
X72882380Y-63090476D01*
X72882380Y-63090476D02*
X72549047Y-63090476D01*
X72549047Y-63090476D02*
X72549047Y-63280952D01*
X72977619Y-62661904D02*
X71977619Y-62661904D01*
X71977619Y-62661904D02*
X71977619Y-62280952D01*
X71977619Y-62280952D02*
X72025238Y-62185714D01*
X72025238Y-62185714D02*
X72072857Y-62138095D01*
X72072857Y-62138095D02*
X72168095Y-62090476D01*
X72168095Y-62090476D02*
X72310952Y-62090476D01*
X72310952Y-62090476D02*
X72406190Y-62138095D01*
X72406190Y-62138095D02*
X72453809Y-62185714D01*
X72453809Y-62185714D02*
X72501428Y-62280952D01*
X72501428Y-62280952D02*
X72501428Y-62661904D01*
X72072857Y-61709523D02*
X72025238Y-61661904D01*
X72025238Y-61661904D02*
X71977619Y-61566666D01*
X71977619Y-61566666D02*
X71977619Y-61328571D01*
X71977619Y-61328571D02*
X72025238Y-61233333D01*
X72025238Y-61233333D02*
X72072857Y-61185714D01*
X72072857Y-61185714D02*
X72168095Y-61138095D01*
X72168095Y-61138095D02*
X72263333Y-61138095D01*
X72263333Y-61138095D02*
X72406190Y-61185714D01*
X72406190Y-61185714D02*
X72977619Y-61757142D01*
X72977619Y-61757142D02*
X72977619Y-61138095D01*
X72072857Y-60757142D02*
X72025238Y-60709523D01*
X72025238Y-60709523D02*
X71977619Y-60614285D01*
X71977619Y-60614285D02*
X71977619Y-60376190D01*
X71977619Y-60376190D02*
X72025238Y-60280952D01*
X72025238Y-60280952D02*
X72072857Y-60233333D01*
X72072857Y-60233333D02*
X72168095Y-60185714D01*
X72168095Y-60185714D02*
X72263333Y-60185714D01*
X72263333Y-60185714D02*
X72406190Y-60233333D01*
X72406190Y-60233333D02*
X72977619Y-60804761D01*
X72977619Y-60804761D02*
X72977619Y-60185714D01*
X72930000Y-59804761D02*
X72977619Y-59661904D01*
X72977619Y-59661904D02*
X72977619Y-59423809D01*
X72977619Y-59423809D02*
X72930000Y-59328571D01*
X72930000Y-59328571D02*
X72882380Y-59280952D01*
X72882380Y-59280952D02*
X72787142Y-59233333D01*
X72787142Y-59233333D02*
X72691904Y-59233333D01*
X72691904Y-59233333D02*
X72596666Y-59280952D01*
X72596666Y-59280952D02*
X72549047Y-59328571D01*
X72549047Y-59328571D02*
X72501428Y-59423809D01*
X72501428Y-59423809D02*
X72453809Y-59614285D01*
X72453809Y-59614285D02*
X72406190Y-59709523D01*
X72406190Y-59709523D02*
X72358571Y-59757142D01*
X72358571Y-59757142D02*
X72263333Y-59804761D01*
X72263333Y-59804761D02*
X72168095Y-59804761D01*
X72168095Y-59804761D02*
X72072857Y-59757142D01*
X72072857Y-59757142D02*
X72025238Y-59709523D01*
X72025238Y-59709523D02*
X71977619Y-59614285D01*
X71977619Y-59614285D02*
X71977619Y-59376190D01*
X71977619Y-59376190D02*
X72025238Y-59233333D01*
X71977619Y-58899999D02*
X72977619Y-58661904D01*
X72977619Y-58661904D02*
X72263333Y-58471428D01*
X72263333Y-58471428D02*
X72977619Y-58280952D01*
X72977619Y-58280952D02*
X71977619Y-58042857D01*
X74725238Y-63038095D02*
X74677619Y-63133333D01*
X74677619Y-63133333D02*
X74677619Y-63276190D01*
X74677619Y-63276190D02*
X74725238Y-63419047D01*
X74725238Y-63419047D02*
X74820476Y-63514285D01*
X74820476Y-63514285D02*
X74915714Y-63561904D01*
X74915714Y-63561904D02*
X75106190Y-63609523D01*
X75106190Y-63609523D02*
X75249047Y-63609523D01*
X75249047Y-63609523D02*
X75439523Y-63561904D01*
X75439523Y-63561904D02*
X75534761Y-63514285D01*
X75534761Y-63514285D02*
X75630000Y-63419047D01*
X75630000Y-63419047D02*
X75677619Y-63276190D01*
X75677619Y-63276190D02*
X75677619Y-63180952D01*
X75677619Y-63180952D02*
X75630000Y-63038095D01*
X75630000Y-63038095D02*
X75582380Y-62990476D01*
X75582380Y-62990476D02*
X75249047Y-62990476D01*
X75249047Y-62990476D02*
X75249047Y-63180952D01*
X75677619Y-62561904D02*
X74677619Y-62561904D01*
X74677619Y-62561904D02*
X74677619Y-62180952D01*
X74677619Y-62180952D02*
X74725238Y-62085714D01*
X74725238Y-62085714D02*
X74772857Y-62038095D01*
X74772857Y-62038095D02*
X74868095Y-61990476D01*
X74868095Y-61990476D02*
X75010952Y-61990476D01*
X75010952Y-61990476D02*
X75106190Y-62038095D01*
X75106190Y-62038095D02*
X75153809Y-62085714D01*
X75153809Y-62085714D02*
X75201428Y-62180952D01*
X75201428Y-62180952D02*
X75201428Y-62561904D01*
X75677619Y-61038095D02*
X75677619Y-61609523D01*
X75677619Y-61323809D02*
X74677619Y-61323809D01*
X74677619Y-61323809D02*
X74820476Y-61419047D01*
X74820476Y-61419047D02*
X74915714Y-61514285D01*
X74915714Y-61514285D02*
X74963333Y-61609523D01*
X74677619Y-60704761D02*
X74677619Y-60038095D01*
X74677619Y-60038095D02*
X75677619Y-60466666D01*
X75296666Y-58895237D02*
X75296666Y-58133333D01*
X75677619Y-57085714D02*
X75201428Y-57419047D01*
X75677619Y-57657142D02*
X74677619Y-57657142D01*
X74677619Y-57657142D02*
X74677619Y-57276190D01*
X74677619Y-57276190D02*
X74725238Y-57180952D01*
X74725238Y-57180952D02*
X74772857Y-57133333D01*
X74772857Y-57133333D02*
X74868095Y-57085714D01*
X74868095Y-57085714D02*
X75010952Y-57085714D01*
X75010952Y-57085714D02*
X75106190Y-57133333D01*
X75106190Y-57133333D02*
X75153809Y-57180952D01*
X75153809Y-57180952D02*
X75201428Y-57276190D01*
X75201428Y-57276190D02*
X75201428Y-57657142D01*
X74677619Y-56752380D02*
X75677619Y-56085714D01*
X74677619Y-56085714D02*
X75677619Y-56752380D01*
X69225238Y-63038095D02*
X69177619Y-63133333D01*
X69177619Y-63133333D02*
X69177619Y-63276190D01*
X69177619Y-63276190D02*
X69225238Y-63419047D01*
X69225238Y-63419047D02*
X69320476Y-63514285D01*
X69320476Y-63514285D02*
X69415714Y-63561904D01*
X69415714Y-63561904D02*
X69606190Y-63609523D01*
X69606190Y-63609523D02*
X69749047Y-63609523D01*
X69749047Y-63609523D02*
X69939523Y-63561904D01*
X69939523Y-63561904D02*
X70034761Y-63514285D01*
X70034761Y-63514285D02*
X70130000Y-63419047D01*
X70130000Y-63419047D02*
X70177619Y-63276190D01*
X70177619Y-63276190D02*
X70177619Y-63180952D01*
X70177619Y-63180952D02*
X70130000Y-63038095D01*
X70130000Y-63038095D02*
X70082380Y-62990476D01*
X70082380Y-62990476D02*
X69749047Y-62990476D01*
X69749047Y-62990476D02*
X69749047Y-63180952D01*
X70177619Y-62561904D02*
X69177619Y-62561904D01*
X69177619Y-62561904D02*
X70177619Y-61990476D01*
X70177619Y-61990476D02*
X69177619Y-61990476D01*
X70177619Y-61514285D02*
X69177619Y-61514285D01*
X69177619Y-61514285D02*
X69177619Y-61276190D01*
X69177619Y-61276190D02*
X69225238Y-61133333D01*
X69225238Y-61133333D02*
X69320476Y-61038095D01*
X69320476Y-61038095D02*
X69415714Y-60990476D01*
X69415714Y-60990476D02*
X69606190Y-60942857D01*
X69606190Y-60942857D02*
X69749047Y-60942857D01*
X69749047Y-60942857D02*
X69939523Y-60990476D01*
X69939523Y-60990476D02*
X70034761Y-61038095D01*
X70034761Y-61038095D02*
X70130000Y-61133333D01*
X70130000Y-61133333D02*
X70177619Y-61276190D01*
X70177619Y-61276190D02*
X70177619Y-61514285D01*
X69796666Y-60514285D02*
X69796666Y-59752381D01*
X70130000Y-59323809D02*
X70177619Y-59180952D01*
X70177619Y-59180952D02*
X70177619Y-58942857D01*
X70177619Y-58942857D02*
X70130000Y-58847619D01*
X70130000Y-58847619D02*
X70082380Y-58800000D01*
X70082380Y-58800000D02*
X69987142Y-58752381D01*
X69987142Y-58752381D02*
X69891904Y-58752381D01*
X69891904Y-58752381D02*
X69796666Y-58800000D01*
X69796666Y-58800000D02*
X69749047Y-58847619D01*
X69749047Y-58847619D02*
X69701428Y-58942857D01*
X69701428Y-58942857D02*
X69653809Y-59133333D01*
X69653809Y-59133333D02*
X69606190Y-59228571D01*
X69606190Y-59228571D02*
X69558571Y-59276190D01*
X69558571Y-59276190D02*
X69463333Y-59323809D01*
X69463333Y-59323809D02*
X69368095Y-59323809D01*
X69368095Y-59323809D02*
X69272857Y-59276190D01*
X69272857Y-59276190D02*
X69225238Y-59228571D01*
X69225238Y-59228571D02*
X69177619Y-59133333D01*
X69177619Y-59133333D02*
X69177619Y-58895238D01*
X69177619Y-58895238D02*
X69225238Y-58752381D01*
X69177619Y-58419047D02*
X70177619Y-58180952D01*
X70177619Y-58180952D02*
X69463333Y-57990476D01*
X69463333Y-57990476D02*
X70177619Y-57800000D01*
X70177619Y-57800000D02*
X69177619Y-57561905D01*
X79925238Y-62438095D02*
X79877619Y-62533333D01*
X79877619Y-62533333D02*
X79877619Y-62676190D01*
X79877619Y-62676190D02*
X79925238Y-62819047D01*
X79925238Y-62819047D02*
X80020476Y-62914285D01*
X80020476Y-62914285D02*
X80115714Y-62961904D01*
X80115714Y-62961904D02*
X80306190Y-63009523D01*
X80306190Y-63009523D02*
X80449047Y-63009523D01*
X80449047Y-63009523D02*
X80639523Y-62961904D01*
X80639523Y-62961904D02*
X80734761Y-62914285D01*
X80734761Y-62914285D02*
X80830000Y-62819047D01*
X80830000Y-62819047D02*
X80877619Y-62676190D01*
X80877619Y-62676190D02*
X80877619Y-62580952D01*
X80877619Y-62580952D02*
X80830000Y-62438095D01*
X80830000Y-62438095D02*
X80782380Y-62390476D01*
X80782380Y-62390476D02*
X80449047Y-62390476D01*
X80449047Y-62390476D02*
X80449047Y-62580952D01*
X80877619Y-61961904D02*
X79877619Y-61961904D01*
X79877619Y-61961904D02*
X80877619Y-61390476D01*
X80877619Y-61390476D02*
X79877619Y-61390476D01*
X80877619Y-60914285D02*
X79877619Y-60914285D01*
X79877619Y-60914285D02*
X79877619Y-60676190D01*
X79877619Y-60676190D02*
X79925238Y-60533333D01*
X79925238Y-60533333D02*
X80020476Y-60438095D01*
X80020476Y-60438095D02*
X80115714Y-60390476D01*
X80115714Y-60390476D02*
X80306190Y-60342857D01*
X80306190Y-60342857D02*
X80449047Y-60342857D01*
X80449047Y-60342857D02*
X80639523Y-60390476D01*
X80639523Y-60390476D02*
X80734761Y-60438095D01*
X80734761Y-60438095D02*
X80830000Y-60533333D01*
X80830000Y-60533333D02*
X80877619Y-60676190D01*
X80877619Y-60676190D02*
X80877619Y-60914285D01*
X77025238Y-63138095D02*
X76977619Y-63233333D01*
X76977619Y-63233333D02*
X76977619Y-63376190D01*
X76977619Y-63376190D02*
X77025238Y-63519047D01*
X77025238Y-63519047D02*
X77120476Y-63614285D01*
X77120476Y-63614285D02*
X77215714Y-63661904D01*
X77215714Y-63661904D02*
X77406190Y-63709523D01*
X77406190Y-63709523D02*
X77549047Y-63709523D01*
X77549047Y-63709523D02*
X77739523Y-63661904D01*
X77739523Y-63661904D02*
X77834761Y-63614285D01*
X77834761Y-63614285D02*
X77930000Y-63519047D01*
X77930000Y-63519047D02*
X77977619Y-63376190D01*
X77977619Y-63376190D02*
X77977619Y-63280952D01*
X77977619Y-63280952D02*
X77930000Y-63138095D01*
X77930000Y-63138095D02*
X77882380Y-63090476D01*
X77882380Y-63090476D02*
X77549047Y-63090476D01*
X77549047Y-63090476D02*
X77549047Y-63280952D01*
X77977619Y-62661904D02*
X76977619Y-62661904D01*
X76977619Y-62661904D02*
X76977619Y-62280952D01*
X76977619Y-62280952D02*
X77025238Y-62185714D01*
X77025238Y-62185714D02*
X77072857Y-62138095D01*
X77072857Y-62138095D02*
X77168095Y-62090476D01*
X77168095Y-62090476D02*
X77310952Y-62090476D01*
X77310952Y-62090476D02*
X77406190Y-62138095D01*
X77406190Y-62138095D02*
X77453809Y-62185714D01*
X77453809Y-62185714D02*
X77501428Y-62280952D01*
X77501428Y-62280952D02*
X77501428Y-62661904D01*
X77977619Y-61138095D02*
X77977619Y-61709523D01*
X77977619Y-61423809D02*
X76977619Y-61423809D01*
X76977619Y-61423809D02*
X77120476Y-61519047D01*
X77120476Y-61519047D02*
X77215714Y-61614285D01*
X77215714Y-61614285D02*
X77263333Y-61709523D01*
X76977619Y-60280952D02*
X76977619Y-60471428D01*
X76977619Y-60471428D02*
X77025238Y-60566666D01*
X77025238Y-60566666D02*
X77072857Y-60614285D01*
X77072857Y-60614285D02*
X77215714Y-60709523D01*
X77215714Y-60709523D02*
X77406190Y-60757142D01*
X77406190Y-60757142D02*
X77787142Y-60757142D01*
X77787142Y-60757142D02*
X77882380Y-60709523D01*
X77882380Y-60709523D02*
X77930000Y-60661904D01*
X77930000Y-60661904D02*
X77977619Y-60566666D01*
X77977619Y-60566666D02*
X77977619Y-60376190D01*
X77977619Y-60376190D02*
X77930000Y-60280952D01*
X77930000Y-60280952D02*
X77882380Y-60233333D01*
X77882380Y-60233333D02*
X77787142Y-60185714D01*
X77787142Y-60185714D02*
X77549047Y-60185714D01*
X77549047Y-60185714D02*
X77453809Y-60233333D01*
X77453809Y-60233333D02*
X77406190Y-60280952D01*
X77406190Y-60280952D02*
X77358571Y-60376190D01*
X77358571Y-60376190D02*
X77358571Y-60566666D01*
X77358571Y-60566666D02*
X77406190Y-60661904D01*
X77406190Y-60661904D02*
X77453809Y-60709523D01*
X77453809Y-60709523D02*
X77549047Y-60757142D01*
X77596666Y-59757142D02*
X77596666Y-58995238D01*
X76977619Y-58661904D02*
X76977619Y-58090476D01*
X77977619Y-58376190D02*
X76977619Y-58376190D01*
X76977619Y-57852380D02*
X77977619Y-57185714D01*
X76977619Y-57185714D02*
X77977619Y-57852380D01*
X87042857Y-62577619D02*
X87709523Y-62577619D01*
X87709523Y-62577619D02*
X87280952Y-63577619D01*
X88804762Y-63530000D02*
X88947619Y-63577619D01*
X88947619Y-63577619D02*
X89185714Y-63577619D01*
X89185714Y-63577619D02*
X89280952Y-63530000D01*
X89280952Y-63530000D02*
X89328571Y-63482380D01*
X89328571Y-63482380D02*
X89376190Y-63387142D01*
X89376190Y-63387142D02*
X89376190Y-63291904D01*
X89376190Y-63291904D02*
X89328571Y-63196666D01*
X89328571Y-63196666D02*
X89280952Y-63149047D01*
X89280952Y-63149047D02*
X89185714Y-63101428D01*
X89185714Y-63101428D02*
X88995238Y-63053809D01*
X88995238Y-63053809D02*
X88900000Y-63006190D01*
X88900000Y-63006190D02*
X88852381Y-62958571D01*
X88852381Y-62958571D02*
X88804762Y-62863333D01*
X88804762Y-62863333D02*
X88804762Y-62768095D01*
X88804762Y-62768095D02*
X88852381Y-62672857D01*
X88852381Y-62672857D02*
X88900000Y-62625238D01*
X88900000Y-62625238D02*
X88995238Y-62577619D01*
X88995238Y-62577619D02*
X89233333Y-62577619D01*
X89233333Y-62577619D02*
X89376190Y-62625238D01*
X90185714Y-63530000D02*
X90090476Y-63577619D01*
X90090476Y-63577619D02*
X89900000Y-63577619D01*
X89900000Y-63577619D02*
X89804762Y-63530000D01*
X89804762Y-63530000D02*
X89757143Y-63434761D01*
X89757143Y-63434761D02*
X89757143Y-63053809D01*
X89757143Y-63053809D02*
X89804762Y-62958571D01*
X89804762Y-62958571D02*
X89900000Y-62910952D01*
X89900000Y-62910952D02*
X90090476Y-62910952D01*
X90090476Y-62910952D02*
X90185714Y-62958571D01*
X90185714Y-62958571D02*
X90233333Y-63053809D01*
X90233333Y-63053809D02*
X90233333Y-63149047D01*
X90233333Y-63149047D02*
X89757143Y-63244285D01*
X91090476Y-62910952D02*
X91090476Y-63720476D01*
X91090476Y-63720476D02*
X91042857Y-63815714D01*
X91042857Y-63815714D02*
X90995238Y-63863333D01*
X90995238Y-63863333D02*
X90900000Y-63910952D01*
X90900000Y-63910952D02*
X90757143Y-63910952D01*
X90757143Y-63910952D02*
X90661905Y-63863333D01*
X91090476Y-63530000D02*
X90995238Y-63577619D01*
X90995238Y-63577619D02*
X90804762Y-63577619D01*
X90804762Y-63577619D02*
X90709524Y-63530000D01*
X90709524Y-63530000D02*
X90661905Y-63482380D01*
X90661905Y-63482380D02*
X90614286Y-63387142D01*
X90614286Y-63387142D02*
X90614286Y-63101428D01*
X90614286Y-63101428D02*
X90661905Y-63006190D01*
X90661905Y-63006190D02*
X90709524Y-62958571D01*
X90709524Y-62958571D02*
X90804762Y-62910952D01*
X90804762Y-62910952D02*
X90995238Y-62910952D01*
X90995238Y-62910952D02*
X91090476Y-62958571D01*
X91566667Y-63577619D02*
X91566667Y-62910952D01*
X91566667Y-63006190D02*
X91614286Y-62958571D01*
X91614286Y-62958571D02*
X91709524Y-62910952D01*
X91709524Y-62910952D02*
X91852381Y-62910952D01*
X91852381Y-62910952D02*
X91947619Y-62958571D01*
X91947619Y-62958571D02*
X91995238Y-63053809D01*
X91995238Y-63053809D02*
X91995238Y-63577619D01*
X91995238Y-63053809D02*
X92042857Y-62958571D01*
X92042857Y-62958571D02*
X92138095Y-62910952D01*
X92138095Y-62910952D02*
X92280952Y-62910952D01*
X92280952Y-62910952D02*
X92376191Y-62958571D01*
X92376191Y-62958571D02*
X92423810Y-63053809D01*
X92423810Y-63053809D02*
X92423810Y-63577619D01*
X93280952Y-63530000D02*
X93185714Y-63577619D01*
X93185714Y-63577619D02*
X92995238Y-63577619D01*
X92995238Y-63577619D02*
X92900000Y-63530000D01*
X92900000Y-63530000D02*
X92852381Y-63434761D01*
X92852381Y-63434761D02*
X92852381Y-63053809D01*
X92852381Y-63053809D02*
X92900000Y-62958571D01*
X92900000Y-62958571D02*
X92995238Y-62910952D01*
X92995238Y-62910952D02*
X93185714Y-62910952D01*
X93185714Y-62910952D02*
X93280952Y-62958571D01*
X93280952Y-62958571D02*
X93328571Y-63053809D01*
X93328571Y-63053809D02*
X93328571Y-63149047D01*
X93328571Y-63149047D02*
X92852381Y-63244285D01*
X93757143Y-62910952D02*
X93757143Y-63577619D01*
X93757143Y-63006190D02*
X93804762Y-62958571D01*
X93804762Y-62958571D02*
X93900000Y-62910952D01*
X93900000Y-62910952D02*
X94042857Y-62910952D01*
X94042857Y-62910952D02*
X94138095Y-62958571D01*
X94138095Y-62958571D02*
X94185714Y-63053809D01*
X94185714Y-63053809D02*
X94185714Y-63577619D01*
X94519048Y-62910952D02*
X94900000Y-62910952D01*
X94661905Y-62577619D02*
X94661905Y-63434761D01*
X94661905Y-63434761D02*
X94709524Y-63530000D01*
X94709524Y-63530000D02*
X94804762Y-63577619D01*
X94804762Y-63577619D02*
X94900000Y-63577619D01*
X87709523Y-66582380D02*
X87661904Y-66630000D01*
X87661904Y-66630000D02*
X87519047Y-66677619D01*
X87519047Y-66677619D02*
X87423809Y-66677619D01*
X87423809Y-66677619D02*
X87280952Y-66630000D01*
X87280952Y-66630000D02*
X87185714Y-66534761D01*
X87185714Y-66534761D02*
X87138095Y-66439523D01*
X87138095Y-66439523D02*
X87090476Y-66249047D01*
X87090476Y-66249047D02*
X87090476Y-66106190D01*
X87090476Y-66106190D02*
X87138095Y-65915714D01*
X87138095Y-65915714D02*
X87185714Y-65820476D01*
X87185714Y-65820476D02*
X87280952Y-65725238D01*
X87280952Y-65725238D02*
X87423809Y-65677619D01*
X87423809Y-65677619D02*
X87519047Y-65677619D01*
X87519047Y-65677619D02*
X87661904Y-65725238D01*
X87661904Y-65725238D02*
X87709523Y-65772857D01*
X88138095Y-66582380D02*
X88185714Y-66630000D01*
X88185714Y-66630000D02*
X88138095Y-66677619D01*
X88138095Y-66677619D02*
X88090476Y-66630000D01*
X88090476Y-66630000D02*
X88138095Y-66582380D01*
X88138095Y-66582380D02*
X88138095Y-66677619D01*
X88566666Y-66391904D02*
X89042856Y-66391904D01*
X88471428Y-66677619D02*
X88804761Y-65677619D01*
X88804761Y-65677619D02*
X89138094Y-66677619D01*
X89471428Y-66582380D02*
X89519047Y-66630000D01*
X89519047Y-66630000D02*
X89471428Y-66677619D01*
X89471428Y-66677619D02*
X89423809Y-66630000D01*
X89423809Y-66630000D02*
X89471428Y-66582380D01*
X89471428Y-66582380D02*
X89471428Y-66677619D01*
X90614285Y-65677619D02*
X91280951Y-65677619D01*
X91280951Y-65677619D02*
X90852380Y-66677619D01*
X92376190Y-66630000D02*
X92519047Y-66677619D01*
X92519047Y-66677619D02*
X92757142Y-66677619D01*
X92757142Y-66677619D02*
X92852380Y-66630000D01*
X92852380Y-66630000D02*
X92899999Y-66582380D01*
X92899999Y-66582380D02*
X92947618Y-66487142D01*
X92947618Y-66487142D02*
X92947618Y-66391904D01*
X92947618Y-66391904D02*
X92899999Y-66296666D01*
X92899999Y-66296666D02*
X92852380Y-66249047D01*
X92852380Y-66249047D02*
X92757142Y-66201428D01*
X92757142Y-66201428D02*
X92566666Y-66153809D01*
X92566666Y-66153809D02*
X92471428Y-66106190D01*
X92471428Y-66106190D02*
X92423809Y-66058571D01*
X92423809Y-66058571D02*
X92376190Y-65963333D01*
X92376190Y-65963333D02*
X92376190Y-65868095D01*
X92376190Y-65868095D02*
X92423809Y-65772857D01*
X92423809Y-65772857D02*
X92471428Y-65725238D01*
X92471428Y-65725238D02*
X92566666Y-65677619D01*
X92566666Y-65677619D02*
X92804761Y-65677619D01*
X92804761Y-65677619D02*
X92947618Y-65725238D01*
X93757142Y-66630000D02*
X93661904Y-66677619D01*
X93661904Y-66677619D02*
X93471428Y-66677619D01*
X93471428Y-66677619D02*
X93376190Y-66630000D01*
X93376190Y-66630000D02*
X93328571Y-66534761D01*
X93328571Y-66534761D02*
X93328571Y-66153809D01*
X93328571Y-66153809D02*
X93376190Y-66058571D01*
X93376190Y-66058571D02*
X93471428Y-66010952D01*
X93471428Y-66010952D02*
X93661904Y-66010952D01*
X93661904Y-66010952D02*
X93757142Y-66058571D01*
X93757142Y-66058571D02*
X93804761Y-66153809D01*
X93804761Y-66153809D02*
X93804761Y-66249047D01*
X93804761Y-66249047D02*
X93328571Y-66344285D01*
X94661904Y-66010952D02*
X94661904Y-66820476D01*
X94661904Y-66820476D02*
X94614285Y-66915714D01*
X94614285Y-66915714D02*
X94566666Y-66963333D01*
X94566666Y-66963333D02*
X94471428Y-67010952D01*
X94471428Y-67010952D02*
X94328571Y-67010952D01*
X94328571Y-67010952D02*
X94233333Y-66963333D01*
X94661904Y-66630000D02*
X94566666Y-66677619D01*
X94566666Y-66677619D02*
X94376190Y-66677619D01*
X94376190Y-66677619D02*
X94280952Y-66630000D01*
X94280952Y-66630000D02*
X94233333Y-66582380D01*
X94233333Y-66582380D02*
X94185714Y-66487142D01*
X94185714Y-66487142D02*
X94185714Y-66201428D01*
X94185714Y-66201428D02*
X94233333Y-66106190D01*
X94233333Y-66106190D02*
X94280952Y-66058571D01*
X94280952Y-66058571D02*
X94376190Y-66010952D01*
X94376190Y-66010952D02*
X94566666Y-66010952D01*
X94566666Y-66010952D02*
X94661904Y-66058571D01*
X82177619Y-61985714D02*
X82177619Y-62461904D01*
X82177619Y-62461904D02*
X82653809Y-62509523D01*
X82653809Y-62509523D02*
X82606190Y-62461904D01*
X82606190Y-62461904D02*
X82558571Y-62366666D01*
X82558571Y-62366666D02*
X82558571Y-62128571D01*
X82558571Y-62128571D02*
X82606190Y-62033333D01*
X82606190Y-62033333D02*
X82653809Y-61985714D01*
X82653809Y-61985714D02*
X82749047Y-61938095D01*
X82749047Y-61938095D02*
X82987142Y-61938095D01*
X82987142Y-61938095D02*
X83082380Y-61985714D01*
X83082380Y-61985714D02*
X83130000Y-62033333D01*
X83130000Y-62033333D02*
X83177619Y-62128571D01*
X83177619Y-62128571D02*
X83177619Y-62366666D01*
X83177619Y-62366666D02*
X83130000Y-62461904D01*
X83130000Y-62461904D02*
X83082380Y-62509523D01*
X82177619Y-61652380D02*
X83177619Y-61319047D01*
X83177619Y-61319047D02*
X82177619Y-60985714D01*
%TO.C,U3*%
X91172619Y-84751904D02*
X91982142Y-84751904D01*
X91982142Y-84751904D02*
X92077380Y-84704285D01*
X92077380Y-84704285D02*
X92125000Y-84656666D01*
X92125000Y-84656666D02*
X92172619Y-84561428D01*
X92172619Y-84561428D02*
X92172619Y-84370952D01*
X92172619Y-84370952D02*
X92125000Y-84275714D01*
X92125000Y-84275714D02*
X92077380Y-84228095D01*
X92077380Y-84228095D02*
X91982142Y-84180476D01*
X91982142Y-84180476D02*
X91172619Y-84180476D01*
X91172619Y-83799523D02*
X91172619Y-83180476D01*
X91172619Y-83180476D02*
X91553571Y-83513809D01*
X91553571Y-83513809D02*
X91553571Y-83370952D01*
X91553571Y-83370952D02*
X91601190Y-83275714D01*
X91601190Y-83275714D02*
X91648809Y-83228095D01*
X91648809Y-83228095D02*
X91744047Y-83180476D01*
X91744047Y-83180476D02*
X91982142Y-83180476D01*
X91982142Y-83180476D02*
X92077380Y-83228095D01*
X92077380Y-83228095D02*
X92125000Y-83275714D01*
X92125000Y-83275714D02*
X92172619Y-83370952D01*
X92172619Y-83370952D02*
X92172619Y-83656666D01*
X92172619Y-83656666D02*
X92125000Y-83751904D01*
X92125000Y-83751904D02*
X92077380Y-83799523D01*
X107745900Y-95917923D02*
X108096086Y-96268109D01*
X108096086Y-96268109D02*
X107692025Y-96295046D01*
X107692025Y-96295046D02*
X107772837Y-96375859D01*
X107772837Y-96375859D02*
X107799775Y-96456671D01*
X107799775Y-96456671D02*
X107799775Y-96510546D01*
X107799775Y-96510546D02*
X107772837Y-96591358D01*
X107772837Y-96591358D02*
X107638150Y-96726045D01*
X107638150Y-96726045D02*
X107557338Y-96752982D01*
X107557338Y-96752982D02*
X107503463Y-96752982D01*
X107503463Y-96752982D02*
X107422651Y-96726045D01*
X107422651Y-96726045D02*
X107261027Y-96564420D01*
X107261027Y-96564420D02*
X107234089Y-96483608D01*
X107234089Y-96483608D02*
X107234089Y-96429733D01*
X108257711Y-96429733D02*
X107880587Y-97183981D01*
X107880587Y-97183981D02*
X108634834Y-96806857D01*
X108769521Y-96941544D02*
X109119707Y-97291730D01*
X109119707Y-97291730D02*
X108715646Y-97318668D01*
X108715646Y-97318668D02*
X108796458Y-97399480D01*
X108796458Y-97399480D02*
X108823396Y-97480292D01*
X108823396Y-97480292D02*
X108823396Y-97534167D01*
X108823396Y-97534167D02*
X108796458Y-97614979D01*
X108796458Y-97614979D02*
X108661771Y-97749666D01*
X108661771Y-97749666D02*
X108580959Y-97776603D01*
X108580959Y-97776603D02*
X108527084Y-97776603D01*
X108527084Y-97776603D02*
X108446272Y-97749666D01*
X108446272Y-97749666D02*
X108284648Y-97588042D01*
X108284648Y-97588042D02*
X108257710Y-97507229D01*
X108257710Y-97507229D02*
X108257710Y-97453355D01*
X108607897Y-98019040D02*
X109038895Y-98450039D01*
X109523769Y-98234539D02*
X109712330Y-98423101D01*
X109496831Y-98800225D02*
X109227457Y-98530851D01*
X109227457Y-98530851D02*
X109793143Y-97965165D01*
X109793143Y-97965165D02*
X110062517Y-98234539D01*
X109739268Y-99042662D02*
X110304954Y-98476976D01*
X110304954Y-98476976D02*
X110062517Y-99365911D01*
X110062517Y-99365911D02*
X110628202Y-98800225D01*
X100457615Y-96093513D02*
X100430678Y-96012701D01*
X100430678Y-96012701D02*
X100349866Y-95931889D01*
X100349866Y-95931889D02*
X100242116Y-95878014D01*
X100242116Y-95878014D02*
X100134367Y-95878014D01*
X100134367Y-95878014D02*
X100053554Y-95904951D01*
X100053554Y-95904951D02*
X99918867Y-95985764D01*
X99918867Y-95985764D02*
X99838055Y-96066576D01*
X99838055Y-96066576D02*
X99757243Y-96201263D01*
X99757243Y-96201263D02*
X99730306Y-96282075D01*
X99730306Y-96282075D02*
X99730306Y-96389825D01*
X99730306Y-96389825D02*
X99784180Y-96497574D01*
X99784180Y-96497574D02*
X99838055Y-96551449D01*
X99838055Y-96551449D02*
X99945805Y-96605324D01*
X99945805Y-96605324D02*
X99999680Y-96605324D01*
X99999680Y-96605324D02*
X100188241Y-96416762D01*
X100188241Y-96416762D02*
X100080492Y-96309012D01*
X100188241Y-96901635D02*
X100753927Y-96335950D01*
X100753927Y-96335950D02*
X100969426Y-96551449D01*
X100969426Y-96551449D02*
X100996363Y-96632261D01*
X100996363Y-96632261D02*
X100996363Y-96686136D01*
X100996363Y-96686136D02*
X100969426Y-96766948D01*
X100969426Y-96766948D02*
X100888614Y-96847760D01*
X100888614Y-96847760D02*
X100807802Y-96874698D01*
X100807802Y-96874698D02*
X100753927Y-96874698D01*
X100753927Y-96874698D02*
X100673115Y-96847760D01*
X100673115Y-96847760D02*
X100457615Y-96632261D01*
X101238800Y-96928573D02*
X101292675Y-96928573D01*
X101292675Y-96928573D02*
X101373487Y-96955510D01*
X101373487Y-96955510D02*
X101508174Y-97090197D01*
X101508174Y-97090197D02*
X101535112Y-97171009D01*
X101535112Y-97171009D02*
X101535112Y-97224884D01*
X101535112Y-97224884D02*
X101508174Y-97305696D01*
X101508174Y-97305696D02*
X101454299Y-97359571D01*
X101454299Y-97359571D02*
X101346550Y-97413446D01*
X101346550Y-97413446D02*
X100700052Y-97413446D01*
X100700052Y-97413446D02*
X101050238Y-97763632D01*
X101696736Y-97763632D02*
X101669799Y-97682820D01*
X101669799Y-97682820D02*
X101669799Y-97628945D01*
X101669799Y-97628945D02*
X101696736Y-97548133D01*
X101696736Y-97548133D02*
X101723673Y-97521196D01*
X101723673Y-97521196D02*
X101804486Y-97494258D01*
X101804486Y-97494258D02*
X101858361Y-97494258D01*
X101858361Y-97494258D02*
X101939173Y-97521196D01*
X101939173Y-97521196D02*
X102046922Y-97628945D01*
X102046922Y-97628945D02*
X102073860Y-97709757D01*
X102073860Y-97709757D02*
X102073860Y-97763632D01*
X102073860Y-97763632D02*
X102046922Y-97844444D01*
X102046922Y-97844444D02*
X102019985Y-97871382D01*
X102019985Y-97871382D02*
X101939173Y-97898319D01*
X101939173Y-97898319D02*
X101885298Y-97898319D01*
X101885298Y-97898319D02*
X101804486Y-97871382D01*
X101804486Y-97871382D02*
X101696736Y-97763632D01*
X101696736Y-97763632D02*
X101615924Y-97736695D01*
X101615924Y-97736695D02*
X101562049Y-97736695D01*
X101562049Y-97736695D02*
X101481237Y-97763632D01*
X101481237Y-97763632D02*
X101373487Y-97871382D01*
X101373487Y-97871382D02*
X101346550Y-97952194D01*
X101346550Y-97952194D02*
X101346550Y-98006069D01*
X101346550Y-98006069D02*
X101373487Y-98086881D01*
X101373487Y-98086881D02*
X101481237Y-98194631D01*
X101481237Y-98194631D02*
X101562049Y-98221568D01*
X101562049Y-98221568D02*
X101615924Y-98221568D01*
X101615924Y-98221568D02*
X101696736Y-98194631D01*
X101696736Y-98194631D02*
X101804486Y-98086881D01*
X101804486Y-98086881D02*
X101831423Y-98006069D01*
X101831423Y-98006069D02*
X101831423Y-97952194D01*
X101831423Y-97952194D02*
X101804486Y-97871382D01*
X79883615Y-96093513D02*
X79856678Y-96012701D01*
X79856678Y-96012701D02*
X79775866Y-95931889D01*
X79775866Y-95931889D02*
X79668116Y-95878014D01*
X79668116Y-95878014D02*
X79560367Y-95878014D01*
X79560367Y-95878014D02*
X79479554Y-95904951D01*
X79479554Y-95904951D02*
X79344867Y-95985764D01*
X79344867Y-95985764D02*
X79264055Y-96066576D01*
X79264055Y-96066576D02*
X79183243Y-96201263D01*
X79183243Y-96201263D02*
X79156306Y-96282075D01*
X79156306Y-96282075D02*
X79156306Y-96389825D01*
X79156306Y-96389825D02*
X79210180Y-96497574D01*
X79210180Y-96497574D02*
X79264055Y-96551449D01*
X79264055Y-96551449D02*
X79371805Y-96605324D01*
X79371805Y-96605324D02*
X79425680Y-96605324D01*
X79425680Y-96605324D02*
X79614241Y-96416762D01*
X79614241Y-96416762D02*
X79506492Y-96309012D01*
X79614241Y-96901635D02*
X80179927Y-96335950D01*
X80179927Y-96335950D02*
X80395426Y-96551449D01*
X80395426Y-96551449D02*
X80422363Y-96632261D01*
X80422363Y-96632261D02*
X80422363Y-96686136D01*
X80422363Y-96686136D02*
X80395426Y-96766948D01*
X80395426Y-96766948D02*
X80314614Y-96847760D01*
X80314614Y-96847760D02*
X80233802Y-96874698D01*
X80233802Y-96874698D02*
X80179927Y-96874698D01*
X80179927Y-96874698D02*
X80099115Y-96847760D01*
X80099115Y-96847760D02*
X79883615Y-96632261D01*
X80664800Y-96928573D02*
X80718675Y-96928573D01*
X80718675Y-96928573D02*
X80799487Y-96955510D01*
X80799487Y-96955510D02*
X80934174Y-97090197D01*
X80934174Y-97090197D02*
X80961112Y-97171009D01*
X80961112Y-97171009D02*
X80961112Y-97224884D01*
X80961112Y-97224884D02*
X80934174Y-97305696D01*
X80934174Y-97305696D02*
X80880299Y-97359571D01*
X80880299Y-97359571D02*
X80772550Y-97413446D01*
X80772550Y-97413446D02*
X80126052Y-97413446D01*
X80126052Y-97413446D02*
X80476238Y-97763632D01*
X81392110Y-97548133D02*
X81445985Y-97602008D01*
X81445985Y-97602008D02*
X81472922Y-97682820D01*
X81472922Y-97682820D02*
X81472922Y-97736695D01*
X81472922Y-97736695D02*
X81445985Y-97817507D01*
X81445985Y-97817507D02*
X81365173Y-97952194D01*
X81365173Y-97952194D02*
X81230486Y-98086881D01*
X81230486Y-98086881D02*
X81095799Y-98167693D01*
X81095799Y-98167693D02*
X81014986Y-98194631D01*
X81014986Y-98194631D02*
X80961112Y-98194631D01*
X80961112Y-98194631D02*
X80880299Y-98167693D01*
X80880299Y-98167693D02*
X80826425Y-98113818D01*
X80826425Y-98113818D02*
X80799487Y-98033006D01*
X80799487Y-98033006D02*
X80799487Y-97979131D01*
X80799487Y-97979131D02*
X80826425Y-97898319D01*
X80826425Y-97898319D02*
X80907237Y-97763632D01*
X80907237Y-97763632D02*
X81041924Y-97628945D01*
X81041924Y-97628945D02*
X81176611Y-97548133D01*
X81176611Y-97548133D02*
X81257423Y-97521196D01*
X81257423Y-97521196D02*
X81311298Y-97521196D01*
X81311298Y-97521196D02*
X81392110Y-97548133D01*
X67183615Y-69985513D02*
X67156678Y-69904701D01*
X67156678Y-69904701D02*
X67075866Y-69823889D01*
X67075866Y-69823889D02*
X66968116Y-69770014D01*
X66968116Y-69770014D02*
X66860367Y-69770014D01*
X66860367Y-69770014D02*
X66779554Y-69796951D01*
X66779554Y-69796951D02*
X66644867Y-69877764D01*
X66644867Y-69877764D02*
X66564055Y-69958576D01*
X66564055Y-69958576D02*
X66483243Y-70093263D01*
X66483243Y-70093263D02*
X66456306Y-70174075D01*
X66456306Y-70174075D02*
X66456306Y-70281825D01*
X66456306Y-70281825D02*
X66510180Y-70389574D01*
X66510180Y-70389574D02*
X66564055Y-70443449D01*
X66564055Y-70443449D02*
X66671805Y-70497324D01*
X66671805Y-70497324D02*
X66725680Y-70497324D01*
X66725680Y-70497324D02*
X66914241Y-70308762D01*
X66914241Y-70308762D02*
X66806492Y-70201012D01*
X66914241Y-70793635D02*
X67479927Y-70227950D01*
X67479927Y-70227950D02*
X67695426Y-70443449D01*
X67695426Y-70443449D02*
X67722363Y-70524261D01*
X67722363Y-70524261D02*
X67722363Y-70578136D01*
X67722363Y-70578136D02*
X67695426Y-70658948D01*
X67695426Y-70658948D02*
X67614614Y-70739760D01*
X67614614Y-70739760D02*
X67533802Y-70766698D01*
X67533802Y-70766698D02*
X67479927Y-70766698D01*
X67479927Y-70766698D02*
X67399115Y-70739760D01*
X67399115Y-70739760D02*
X67183615Y-70524261D01*
X67776238Y-71655632D02*
X67452989Y-71332383D01*
X67614614Y-71494008D02*
X68180299Y-70928322D01*
X68180299Y-70928322D02*
X68045612Y-70955260D01*
X68045612Y-70955260D02*
X67937863Y-70955260D01*
X67937863Y-70955260D02*
X67857051Y-70928322D01*
X68853735Y-71601757D02*
X68584361Y-71332383D01*
X68584361Y-71332383D02*
X68288049Y-71574820D01*
X68288049Y-71574820D02*
X68341924Y-71574820D01*
X68341924Y-71574820D02*
X68422736Y-71601757D01*
X68422736Y-71601757D02*
X68557423Y-71736444D01*
X68557423Y-71736444D02*
X68584361Y-71817257D01*
X68584361Y-71817257D02*
X68584361Y-71871131D01*
X68584361Y-71871131D02*
X68557423Y-71951944D01*
X68557423Y-71951944D02*
X68422736Y-72086631D01*
X68422736Y-72086631D02*
X68341924Y-72113568D01*
X68341924Y-72113568D02*
X68288049Y-72113568D01*
X68288049Y-72113568D02*
X68207237Y-72086631D01*
X68207237Y-72086631D02*
X68072550Y-71951944D01*
X68072550Y-71951944D02*
X68045612Y-71871131D01*
X68045612Y-71871131D02*
X68045612Y-71817257D01*
X113182990Y-70408888D02*
X113156053Y-70328075D01*
X113156053Y-70328075D02*
X113075240Y-70247263D01*
X113075240Y-70247263D02*
X112967491Y-70193388D01*
X112967491Y-70193388D02*
X112859741Y-70193388D01*
X112859741Y-70193388D02*
X112778929Y-70220326D01*
X112778929Y-70220326D02*
X112644242Y-70301138D01*
X112644242Y-70301138D02*
X112563430Y-70381950D01*
X112563430Y-70381950D02*
X112482617Y-70516637D01*
X112482617Y-70516637D02*
X112455680Y-70597449D01*
X112455680Y-70597449D02*
X112455680Y-70705199D01*
X112455680Y-70705199D02*
X112509555Y-70812949D01*
X112509555Y-70812949D02*
X112563430Y-70866823D01*
X112563430Y-70866823D02*
X112671179Y-70920698D01*
X112671179Y-70920698D02*
X112725054Y-70920698D01*
X112725054Y-70920698D02*
X112913616Y-70732136D01*
X112913616Y-70732136D02*
X112805866Y-70624387D01*
X112913616Y-71217010D02*
X113479301Y-70651324D01*
X113479301Y-70651324D02*
X113694801Y-70866823D01*
X113694801Y-70866823D02*
X113721738Y-70947636D01*
X113721738Y-70947636D02*
X113721738Y-71001510D01*
X113721738Y-71001510D02*
X113694801Y-71082323D01*
X113694801Y-71082323D02*
X113613988Y-71163135D01*
X113613988Y-71163135D02*
X113533176Y-71190072D01*
X113533176Y-71190072D02*
X113479301Y-71190072D01*
X113479301Y-71190072D02*
X113398489Y-71163135D01*
X113398489Y-71163135D02*
X113182990Y-70947636D01*
X113775613Y-72079006D02*
X113452364Y-71755758D01*
X113613988Y-71917382D02*
X114179674Y-71351697D01*
X114179674Y-71351697D02*
X114044987Y-71378634D01*
X114044987Y-71378634D02*
X113937237Y-71378634D01*
X113937237Y-71378634D02*
X113856425Y-71351697D01*
X87772990Y-70508888D02*
X87746053Y-70428075D01*
X87746053Y-70428075D02*
X87665240Y-70347263D01*
X87665240Y-70347263D02*
X87557491Y-70293388D01*
X87557491Y-70293388D02*
X87449741Y-70293388D01*
X87449741Y-70293388D02*
X87368929Y-70320326D01*
X87368929Y-70320326D02*
X87234242Y-70401138D01*
X87234242Y-70401138D02*
X87153430Y-70481950D01*
X87153430Y-70481950D02*
X87072617Y-70616637D01*
X87072617Y-70616637D02*
X87045680Y-70697449D01*
X87045680Y-70697449D02*
X87045680Y-70805199D01*
X87045680Y-70805199D02*
X87099555Y-70912949D01*
X87099555Y-70912949D02*
X87153430Y-70966823D01*
X87153430Y-70966823D02*
X87261179Y-71020698D01*
X87261179Y-71020698D02*
X87315054Y-71020698D01*
X87315054Y-71020698D02*
X87503616Y-70832136D01*
X87503616Y-70832136D02*
X87395866Y-70724387D01*
X87503616Y-71317010D02*
X88069301Y-70751324D01*
X88069301Y-70751324D02*
X88284801Y-70966823D01*
X88284801Y-70966823D02*
X88311738Y-71047636D01*
X88311738Y-71047636D02*
X88311738Y-71101510D01*
X88311738Y-71101510D02*
X88284801Y-71182323D01*
X88284801Y-71182323D02*
X88203988Y-71263135D01*
X88203988Y-71263135D02*
X88123176Y-71290072D01*
X88123176Y-71290072D02*
X88069301Y-71290072D01*
X88069301Y-71290072D02*
X87988489Y-71263135D01*
X87988489Y-71263135D02*
X87772990Y-71047636D01*
X88096239Y-71909632D02*
X88203988Y-72017382D01*
X88203988Y-72017382D02*
X88284801Y-72044319D01*
X88284801Y-72044319D02*
X88338675Y-72044319D01*
X88338675Y-72044319D02*
X88473362Y-72017382D01*
X88473362Y-72017382D02*
X88608049Y-71936570D01*
X88608049Y-71936570D02*
X88823549Y-71721071D01*
X88823549Y-71721071D02*
X88850486Y-71640258D01*
X88850486Y-71640258D02*
X88850486Y-71586384D01*
X88850486Y-71586384D02*
X88823549Y-71505571D01*
X88823549Y-71505571D02*
X88715799Y-71397822D01*
X88715799Y-71397822D02*
X88634987Y-71370884D01*
X88634987Y-71370884D02*
X88581112Y-71370884D01*
X88581112Y-71370884D02*
X88500300Y-71397822D01*
X88500300Y-71397822D02*
X88365613Y-71532509D01*
X88365613Y-71532509D02*
X88338675Y-71613321D01*
X88338675Y-71613321D02*
X88338675Y-71667196D01*
X88338675Y-71667196D02*
X88365613Y-71748008D01*
X88365613Y-71748008D02*
X88473362Y-71855758D01*
X88473362Y-71855758D02*
X88554175Y-71882695D01*
X88554175Y-71882695D02*
X88608049Y-71882695D01*
X88608049Y-71882695D02*
X88688862Y-71855758D01*
X96963244Y-96147389D02*
X97232618Y-96416763D01*
X96747745Y-96255138D02*
X97501992Y-95878015D01*
X97501992Y-95878015D02*
X97124868Y-96632262D01*
X98148489Y-96578387D02*
X98121552Y-96497575D01*
X98121552Y-96497575D02*
X98040740Y-96416762D01*
X98040740Y-96416762D02*
X97932990Y-96362888D01*
X97932990Y-96362888D02*
X97825240Y-96362888D01*
X97825240Y-96362888D02*
X97744428Y-96389825D01*
X97744428Y-96389825D02*
X97609741Y-96470637D01*
X97609741Y-96470637D02*
X97528929Y-96551449D01*
X97528929Y-96551449D02*
X97448117Y-96686136D01*
X97448117Y-96686136D02*
X97421179Y-96766949D01*
X97421179Y-96766949D02*
X97421179Y-96874698D01*
X97421179Y-96874698D02*
X97475054Y-96982448D01*
X97475054Y-96982448D02*
X97528929Y-97036323D01*
X97528929Y-97036323D02*
X97636679Y-97090197D01*
X97636679Y-97090197D02*
X97690553Y-97090197D01*
X97690553Y-97090197D02*
X97879115Y-96901636D01*
X97879115Y-96901636D02*
X97771366Y-96793886D01*
X97879115Y-97386509D02*
X98444801Y-96820823D01*
X98444801Y-96820823D02*
X98202364Y-97709758D01*
X98202364Y-97709758D02*
X98768049Y-97144072D01*
X98471738Y-97979132D02*
X99037423Y-97413446D01*
X99037423Y-97413446D02*
X99172110Y-97548133D01*
X99172110Y-97548133D02*
X99225985Y-97655883D01*
X99225985Y-97655883D02*
X99225985Y-97763632D01*
X99225985Y-97763632D02*
X99199048Y-97844445D01*
X99199048Y-97844445D02*
X99118235Y-97979132D01*
X99118235Y-97979132D02*
X99037423Y-98059944D01*
X99037423Y-98059944D02*
X98902736Y-98140756D01*
X98902736Y-98140756D02*
X98821924Y-98167693D01*
X98821924Y-98167693D02*
X98714174Y-98167693D01*
X98714174Y-98167693D02*
X98606425Y-98113819D01*
X98606425Y-98113819D02*
X98471738Y-97979132D01*
X74803615Y-96093513D02*
X74776678Y-96012701D01*
X74776678Y-96012701D02*
X74695866Y-95931889D01*
X74695866Y-95931889D02*
X74588116Y-95878014D01*
X74588116Y-95878014D02*
X74480367Y-95878014D01*
X74480367Y-95878014D02*
X74399554Y-95904951D01*
X74399554Y-95904951D02*
X74264867Y-95985764D01*
X74264867Y-95985764D02*
X74184055Y-96066576D01*
X74184055Y-96066576D02*
X74103243Y-96201263D01*
X74103243Y-96201263D02*
X74076306Y-96282075D01*
X74076306Y-96282075D02*
X74076306Y-96389825D01*
X74076306Y-96389825D02*
X74130180Y-96497574D01*
X74130180Y-96497574D02*
X74184055Y-96551449D01*
X74184055Y-96551449D02*
X74291805Y-96605324D01*
X74291805Y-96605324D02*
X74345680Y-96605324D01*
X74345680Y-96605324D02*
X74534241Y-96416762D01*
X74534241Y-96416762D02*
X74426492Y-96309012D01*
X74534241Y-96901635D02*
X75099927Y-96335950D01*
X75099927Y-96335950D02*
X75315426Y-96551449D01*
X75315426Y-96551449D02*
X75342363Y-96632261D01*
X75342363Y-96632261D02*
X75342363Y-96686136D01*
X75342363Y-96686136D02*
X75315426Y-96766948D01*
X75315426Y-96766948D02*
X75234614Y-96847760D01*
X75234614Y-96847760D02*
X75153802Y-96874698D01*
X75153802Y-96874698D02*
X75099927Y-96874698D01*
X75099927Y-96874698D02*
X75019115Y-96847760D01*
X75019115Y-96847760D02*
X74803615Y-96632261D01*
X75396238Y-97763632D02*
X75072989Y-97440383D01*
X75234614Y-97602008D02*
X75800299Y-97036322D01*
X75800299Y-97036322D02*
X75665612Y-97063260D01*
X75665612Y-97063260D02*
X75557863Y-97063260D01*
X75557863Y-97063260D02*
X75477051Y-97036322D01*
X76042736Y-97763632D02*
X76015799Y-97682820D01*
X76015799Y-97682820D02*
X76015799Y-97628945D01*
X76015799Y-97628945D02*
X76042736Y-97548133D01*
X76042736Y-97548133D02*
X76069673Y-97521196D01*
X76069673Y-97521196D02*
X76150486Y-97494258D01*
X76150486Y-97494258D02*
X76204361Y-97494258D01*
X76204361Y-97494258D02*
X76285173Y-97521196D01*
X76285173Y-97521196D02*
X76392922Y-97628945D01*
X76392922Y-97628945D02*
X76419860Y-97709757D01*
X76419860Y-97709757D02*
X76419860Y-97763632D01*
X76419860Y-97763632D02*
X76392922Y-97844444D01*
X76392922Y-97844444D02*
X76365985Y-97871382D01*
X76365985Y-97871382D02*
X76285173Y-97898319D01*
X76285173Y-97898319D02*
X76231298Y-97898319D01*
X76231298Y-97898319D02*
X76150486Y-97871382D01*
X76150486Y-97871382D02*
X76042736Y-97763632D01*
X76042736Y-97763632D02*
X75961924Y-97736695D01*
X75961924Y-97736695D02*
X75908049Y-97736695D01*
X75908049Y-97736695D02*
X75827237Y-97763632D01*
X75827237Y-97763632D02*
X75719487Y-97871382D01*
X75719487Y-97871382D02*
X75692550Y-97952194D01*
X75692550Y-97952194D02*
X75692550Y-98006069D01*
X75692550Y-98006069D02*
X75719487Y-98086881D01*
X75719487Y-98086881D02*
X75827237Y-98194631D01*
X75827237Y-98194631D02*
X75908049Y-98221568D01*
X75908049Y-98221568D02*
X75961924Y-98221568D01*
X75961924Y-98221568D02*
X76042736Y-98194631D01*
X76042736Y-98194631D02*
X76150486Y-98086881D01*
X76150486Y-98086881D02*
X76177423Y-98006069D01*
X76177423Y-98006069D02*
X76177423Y-97952194D01*
X76177423Y-97952194D02*
X76150486Y-97871382D01*
X79883615Y-69839513D02*
X79856678Y-69758701D01*
X79856678Y-69758701D02*
X79775866Y-69677889D01*
X79775866Y-69677889D02*
X79668116Y-69624014D01*
X79668116Y-69624014D02*
X79560367Y-69624014D01*
X79560367Y-69624014D02*
X79479554Y-69650951D01*
X79479554Y-69650951D02*
X79344867Y-69731764D01*
X79344867Y-69731764D02*
X79264055Y-69812576D01*
X79264055Y-69812576D02*
X79183243Y-69947263D01*
X79183243Y-69947263D02*
X79156306Y-70028075D01*
X79156306Y-70028075D02*
X79156306Y-70135825D01*
X79156306Y-70135825D02*
X79210180Y-70243574D01*
X79210180Y-70243574D02*
X79264055Y-70297449D01*
X79264055Y-70297449D02*
X79371805Y-70351324D01*
X79371805Y-70351324D02*
X79425680Y-70351324D01*
X79425680Y-70351324D02*
X79614241Y-70162762D01*
X79614241Y-70162762D02*
X79506492Y-70055012D01*
X79614241Y-70647635D02*
X80179927Y-70081950D01*
X80179927Y-70081950D02*
X80395426Y-70297449D01*
X80395426Y-70297449D02*
X80422363Y-70378261D01*
X80422363Y-70378261D02*
X80422363Y-70432136D01*
X80422363Y-70432136D02*
X80395426Y-70512948D01*
X80395426Y-70512948D02*
X80314614Y-70593760D01*
X80314614Y-70593760D02*
X80233802Y-70620698D01*
X80233802Y-70620698D02*
X80179927Y-70620698D01*
X80179927Y-70620698D02*
X80099115Y-70593760D01*
X80099115Y-70593760D02*
X79883615Y-70378261D01*
X80476238Y-71509632D02*
X80152989Y-71186383D01*
X80314614Y-71348008D02*
X80880299Y-70782322D01*
X80880299Y-70782322D02*
X80745612Y-70809260D01*
X80745612Y-70809260D02*
X80637863Y-70809260D01*
X80637863Y-70809260D02*
X80557051Y-70782322D01*
X81014986Y-72048380D02*
X80691738Y-71725131D01*
X80853362Y-71886756D02*
X81419048Y-71321070D01*
X81419048Y-71321070D02*
X81284361Y-71348008D01*
X81284361Y-71348008D02*
X81176611Y-71348008D01*
X81176611Y-71348008D02*
X81095799Y-71321070D01*
X82413615Y-96093513D02*
X82386678Y-96012701D01*
X82386678Y-96012701D02*
X82305866Y-95931889D01*
X82305866Y-95931889D02*
X82198116Y-95878014D01*
X82198116Y-95878014D02*
X82090367Y-95878014D01*
X82090367Y-95878014D02*
X82009554Y-95904951D01*
X82009554Y-95904951D02*
X81874867Y-95985764D01*
X81874867Y-95985764D02*
X81794055Y-96066576D01*
X81794055Y-96066576D02*
X81713243Y-96201263D01*
X81713243Y-96201263D02*
X81686306Y-96282075D01*
X81686306Y-96282075D02*
X81686306Y-96389825D01*
X81686306Y-96389825D02*
X81740180Y-96497574D01*
X81740180Y-96497574D02*
X81794055Y-96551449D01*
X81794055Y-96551449D02*
X81901805Y-96605324D01*
X81901805Y-96605324D02*
X81955680Y-96605324D01*
X81955680Y-96605324D02*
X82144241Y-96416762D01*
X82144241Y-96416762D02*
X82036492Y-96309012D01*
X82144241Y-96901635D02*
X82709927Y-96335950D01*
X82709927Y-96335950D02*
X82925426Y-96551449D01*
X82925426Y-96551449D02*
X82952363Y-96632261D01*
X82952363Y-96632261D02*
X82952363Y-96686136D01*
X82952363Y-96686136D02*
X82925426Y-96766948D01*
X82925426Y-96766948D02*
X82844614Y-96847760D01*
X82844614Y-96847760D02*
X82763802Y-96874698D01*
X82763802Y-96874698D02*
X82709927Y-96874698D01*
X82709927Y-96874698D02*
X82629115Y-96847760D01*
X82629115Y-96847760D02*
X82413615Y-96632261D01*
X83194800Y-96928573D02*
X83248675Y-96928573D01*
X83248675Y-96928573D02*
X83329487Y-96955510D01*
X83329487Y-96955510D02*
X83464174Y-97090197D01*
X83464174Y-97090197D02*
X83491112Y-97171009D01*
X83491112Y-97171009D02*
X83491112Y-97224884D01*
X83491112Y-97224884D02*
X83464174Y-97305696D01*
X83464174Y-97305696D02*
X83410299Y-97359571D01*
X83410299Y-97359571D02*
X83302550Y-97413446D01*
X83302550Y-97413446D02*
X82656052Y-97413446D01*
X82656052Y-97413446D02*
X83006238Y-97763632D01*
X83544986Y-98302380D02*
X83221738Y-97979131D01*
X83383362Y-98140756D02*
X83949048Y-97575070D01*
X83949048Y-97575070D02*
X83814361Y-97602008D01*
X83814361Y-97602008D02*
X83706611Y-97602008D01*
X83706611Y-97602008D02*
X83625799Y-97575070D01*
X85206053Y-70481950D02*
X85179115Y-70401138D01*
X85179115Y-70401138D02*
X85098303Y-70320326D01*
X85098303Y-70320326D02*
X84990553Y-70266451D01*
X84990553Y-70266451D02*
X84882804Y-70266451D01*
X84882804Y-70266451D02*
X84801992Y-70293389D01*
X84801992Y-70293389D02*
X84667305Y-70374201D01*
X84667305Y-70374201D02*
X84586492Y-70455013D01*
X84586492Y-70455013D02*
X84505680Y-70589700D01*
X84505680Y-70589700D02*
X84478743Y-70670512D01*
X84478743Y-70670512D02*
X84478743Y-70778262D01*
X84478743Y-70778262D02*
X84532618Y-70886011D01*
X84532618Y-70886011D02*
X84586492Y-70939886D01*
X84586492Y-70939886D02*
X84694242Y-70993761D01*
X84694242Y-70993761D02*
X84748117Y-70993761D01*
X84748117Y-70993761D02*
X84936679Y-70805199D01*
X84936679Y-70805199D02*
X84828929Y-70697450D01*
X84936679Y-71290072D02*
X85502364Y-70724387D01*
X85502364Y-70724387D02*
X85259927Y-71613321D01*
X85259927Y-71613321D02*
X85825613Y-71047636D01*
X85529301Y-71882695D02*
X86094987Y-71317010D01*
X86094987Y-71317010D02*
X86229674Y-71451697D01*
X86229674Y-71451697D02*
X86283549Y-71559446D01*
X86283549Y-71559446D02*
X86283549Y-71667196D01*
X86283549Y-71667196D02*
X86256611Y-71748008D01*
X86256611Y-71748008D02*
X86175799Y-71882695D01*
X86175799Y-71882695D02*
X86094987Y-71963507D01*
X86094987Y-71963507D02*
X85960300Y-72044319D01*
X85960300Y-72044319D02*
X85879488Y-72071257D01*
X85879488Y-72071257D02*
X85771738Y-72071257D01*
X85771738Y-72071257D02*
X85663988Y-72017382D01*
X85663988Y-72017382D02*
X85529301Y-71882695D01*
X100472990Y-70508888D02*
X100446053Y-70428075D01*
X100446053Y-70428075D02*
X100365240Y-70347263D01*
X100365240Y-70347263D02*
X100257491Y-70293388D01*
X100257491Y-70293388D02*
X100149741Y-70293388D01*
X100149741Y-70293388D02*
X100068929Y-70320326D01*
X100068929Y-70320326D02*
X99934242Y-70401138D01*
X99934242Y-70401138D02*
X99853430Y-70481950D01*
X99853430Y-70481950D02*
X99772617Y-70616637D01*
X99772617Y-70616637D02*
X99745680Y-70697449D01*
X99745680Y-70697449D02*
X99745680Y-70805199D01*
X99745680Y-70805199D02*
X99799555Y-70912949D01*
X99799555Y-70912949D02*
X99853430Y-70966823D01*
X99853430Y-70966823D02*
X99961179Y-71020698D01*
X99961179Y-71020698D02*
X100015054Y-71020698D01*
X100015054Y-71020698D02*
X100203616Y-70832136D01*
X100203616Y-70832136D02*
X100095866Y-70724387D01*
X100203616Y-71317010D02*
X100769301Y-70751324D01*
X100769301Y-70751324D02*
X100984801Y-70966823D01*
X100984801Y-70966823D02*
X101011738Y-71047636D01*
X101011738Y-71047636D02*
X101011738Y-71101510D01*
X101011738Y-71101510D02*
X100984801Y-71182323D01*
X100984801Y-71182323D02*
X100903988Y-71263135D01*
X100903988Y-71263135D02*
X100823176Y-71290072D01*
X100823176Y-71290072D02*
X100769301Y-71290072D01*
X100769301Y-71290072D02*
X100688489Y-71263135D01*
X100688489Y-71263135D02*
X100472990Y-71047636D01*
X101604361Y-71586384D02*
X101334987Y-71317010D01*
X101334987Y-71317010D02*
X101038675Y-71559446D01*
X101038675Y-71559446D02*
X101092550Y-71559446D01*
X101092550Y-71559446D02*
X101173362Y-71586384D01*
X101173362Y-71586384D02*
X101308049Y-71721071D01*
X101308049Y-71721071D02*
X101334987Y-71801883D01*
X101334987Y-71801883D02*
X101334987Y-71855758D01*
X101334987Y-71855758D02*
X101308049Y-71936570D01*
X101308049Y-71936570D02*
X101173362Y-72071257D01*
X101173362Y-72071257D02*
X101092550Y-72098194D01*
X101092550Y-72098194D02*
X101038675Y-72098194D01*
X101038675Y-72098194D02*
X100957863Y-72071257D01*
X100957863Y-72071257D02*
X100823176Y-71936570D01*
X100823176Y-71936570D02*
X100796239Y-71855758D01*
X100796239Y-71855758D02*
X100796239Y-71801883D01*
X67183615Y-96093513D02*
X67156678Y-96012701D01*
X67156678Y-96012701D02*
X67075866Y-95931889D01*
X67075866Y-95931889D02*
X66968116Y-95878014D01*
X66968116Y-95878014D02*
X66860367Y-95878014D01*
X66860367Y-95878014D02*
X66779554Y-95904951D01*
X66779554Y-95904951D02*
X66644867Y-95985764D01*
X66644867Y-95985764D02*
X66564055Y-96066576D01*
X66564055Y-96066576D02*
X66483243Y-96201263D01*
X66483243Y-96201263D02*
X66456306Y-96282075D01*
X66456306Y-96282075D02*
X66456306Y-96389825D01*
X66456306Y-96389825D02*
X66510180Y-96497574D01*
X66510180Y-96497574D02*
X66564055Y-96551449D01*
X66564055Y-96551449D02*
X66671805Y-96605324D01*
X66671805Y-96605324D02*
X66725680Y-96605324D01*
X66725680Y-96605324D02*
X66914241Y-96416762D01*
X66914241Y-96416762D02*
X66806492Y-96309012D01*
X66914241Y-96901635D02*
X67479927Y-96335950D01*
X67479927Y-96335950D02*
X67695426Y-96551449D01*
X67695426Y-96551449D02*
X67722363Y-96632261D01*
X67722363Y-96632261D02*
X67722363Y-96686136D01*
X67722363Y-96686136D02*
X67695426Y-96766948D01*
X67695426Y-96766948D02*
X67614614Y-96847760D01*
X67614614Y-96847760D02*
X67533802Y-96874698D01*
X67533802Y-96874698D02*
X67479927Y-96874698D01*
X67479927Y-96874698D02*
X67399115Y-96847760D01*
X67399115Y-96847760D02*
X67183615Y-96632261D01*
X67776238Y-97763632D02*
X67452989Y-97440383D01*
X67614614Y-97602008D02*
X68180299Y-97036322D01*
X68180299Y-97036322D02*
X68045612Y-97063260D01*
X68045612Y-97063260D02*
X67937863Y-97063260D01*
X67937863Y-97063260D02*
X67857051Y-97036322D01*
X68826797Y-97682820D02*
X68719048Y-97575070D01*
X68719048Y-97575070D02*
X68638235Y-97548133D01*
X68638235Y-97548133D02*
X68584361Y-97548133D01*
X68584361Y-97548133D02*
X68449673Y-97575070D01*
X68449673Y-97575070D02*
X68314986Y-97655883D01*
X68314986Y-97655883D02*
X68099487Y-97871382D01*
X68099487Y-97871382D02*
X68072550Y-97952194D01*
X68072550Y-97952194D02*
X68072550Y-98006069D01*
X68072550Y-98006069D02*
X68099487Y-98086881D01*
X68099487Y-98086881D02*
X68207237Y-98194631D01*
X68207237Y-98194631D02*
X68288049Y-98221568D01*
X68288049Y-98221568D02*
X68341924Y-98221568D01*
X68341924Y-98221568D02*
X68422736Y-98194631D01*
X68422736Y-98194631D02*
X68557423Y-98059944D01*
X68557423Y-98059944D02*
X68584361Y-97979131D01*
X68584361Y-97979131D02*
X68584361Y-97925257D01*
X68584361Y-97925257D02*
X68557423Y-97844444D01*
X68557423Y-97844444D02*
X68449673Y-97736695D01*
X68449673Y-97736695D02*
X68368861Y-97709757D01*
X68368861Y-97709757D02*
X68314986Y-97709757D01*
X68314986Y-97709757D02*
X68234174Y-97736695D01*
X115712990Y-70508888D02*
X115686053Y-70428075D01*
X115686053Y-70428075D02*
X115605240Y-70347263D01*
X115605240Y-70347263D02*
X115497491Y-70293388D01*
X115497491Y-70293388D02*
X115389741Y-70293388D01*
X115389741Y-70293388D02*
X115308929Y-70320326D01*
X115308929Y-70320326D02*
X115174242Y-70401138D01*
X115174242Y-70401138D02*
X115093430Y-70481950D01*
X115093430Y-70481950D02*
X115012617Y-70616637D01*
X115012617Y-70616637D02*
X114985680Y-70697449D01*
X114985680Y-70697449D02*
X114985680Y-70805199D01*
X114985680Y-70805199D02*
X115039555Y-70912949D01*
X115039555Y-70912949D02*
X115093430Y-70966823D01*
X115093430Y-70966823D02*
X115201179Y-71020698D01*
X115201179Y-71020698D02*
X115255054Y-71020698D01*
X115255054Y-71020698D02*
X115443616Y-70832136D01*
X115443616Y-70832136D02*
X115335866Y-70724387D01*
X115443616Y-71317010D02*
X116009301Y-70751324D01*
X116009301Y-70751324D02*
X116224801Y-70966823D01*
X116224801Y-70966823D02*
X116251738Y-71047636D01*
X116251738Y-71047636D02*
X116251738Y-71101510D01*
X116251738Y-71101510D02*
X116224801Y-71182323D01*
X116224801Y-71182323D02*
X116143988Y-71263135D01*
X116143988Y-71263135D02*
X116063176Y-71290072D01*
X116063176Y-71290072D02*
X116009301Y-71290072D01*
X116009301Y-71290072D02*
X115928489Y-71263135D01*
X115928489Y-71263135D02*
X115712990Y-71047636D01*
X116682736Y-71424759D02*
X116736611Y-71478634D01*
X116736611Y-71478634D02*
X116763549Y-71559446D01*
X116763549Y-71559446D02*
X116763549Y-71613321D01*
X116763549Y-71613321D02*
X116736611Y-71694133D01*
X116736611Y-71694133D02*
X116655799Y-71828820D01*
X116655799Y-71828820D02*
X116521112Y-71963507D01*
X116521112Y-71963507D02*
X116386425Y-72044319D01*
X116386425Y-72044319D02*
X116305613Y-72071257D01*
X116305613Y-72071257D02*
X116251738Y-72071257D01*
X116251738Y-72071257D02*
X116170926Y-72044319D01*
X116170926Y-72044319D02*
X116117051Y-71990445D01*
X116117051Y-71990445D02*
X116090114Y-71909632D01*
X116090114Y-71909632D02*
X116090114Y-71855758D01*
X116090114Y-71855758D02*
X116117051Y-71774945D01*
X116117051Y-71774945D02*
X116197863Y-71640258D01*
X116197863Y-71640258D02*
X116332550Y-71505571D01*
X116332550Y-71505571D02*
X116467237Y-71424759D01*
X116467237Y-71424759D02*
X116548049Y-71397822D01*
X116548049Y-71397822D02*
X116601924Y-71397822D01*
X116601924Y-71397822D02*
X116682736Y-71424759D01*
X72506053Y-70481950D02*
X72479115Y-70401138D01*
X72479115Y-70401138D02*
X72398303Y-70320326D01*
X72398303Y-70320326D02*
X72290553Y-70266451D01*
X72290553Y-70266451D02*
X72182804Y-70266451D01*
X72182804Y-70266451D02*
X72101992Y-70293389D01*
X72101992Y-70293389D02*
X71967305Y-70374201D01*
X71967305Y-70374201D02*
X71886492Y-70455013D01*
X71886492Y-70455013D02*
X71805680Y-70589700D01*
X71805680Y-70589700D02*
X71778743Y-70670512D01*
X71778743Y-70670512D02*
X71778743Y-70778262D01*
X71778743Y-70778262D02*
X71832618Y-70886011D01*
X71832618Y-70886011D02*
X71886492Y-70939886D01*
X71886492Y-70939886D02*
X71994242Y-70993761D01*
X71994242Y-70993761D02*
X72048117Y-70993761D01*
X72048117Y-70993761D02*
X72236679Y-70805199D01*
X72236679Y-70805199D02*
X72128929Y-70697450D01*
X72236679Y-71290072D02*
X72802364Y-70724387D01*
X72802364Y-70724387D02*
X72559927Y-71613321D01*
X72559927Y-71613321D02*
X73125613Y-71047636D01*
X72829301Y-71882695D02*
X73394987Y-71317010D01*
X73394987Y-71317010D02*
X73529674Y-71451697D01*
X73529674Y-71451697D02*
X73583549Y-71559446D01*
X73583549Y-71559446D02*
X73583549Y-71667196D01*
X73583549Y-71667196D02*
X73556611Y-71748008D01*
X73556611Y-71748008D02*
X73475799Y-71882695D01*
X73475799Y-71882695D02*
X73394987Y-71963507D01*
X73394987Y-71963507D02*
X73260300Y-72044319D01*
X73260300Y-72044319D02*
X73179488Y-72071257D01*
X73179488Y-72071257D02*
X73071738Y-72071257D01*
X73071738Y-72071257D02*
X72963988Y-72017382D01*
X72963988Y-72017382D02*
X72829301Y-71882695D01*
X115176898Y-95948921D02*
X114799775Y-96703168D01*
X114799775Y-96703168D02*
X115554022Y-96326045D01*
X115661771Y-96972542D02*
X115715646Y-97080292D01*
X115715646Y-97080292D02*
X115715646Y-97134167D01*
X115715646Y-97134167D02*
X115688709Y-97214979D01*
X115688709Y-97214979D02*
X115607896Y-97295791D01*
X115607896Y-97295791D02*
X115527084Y-97322728D01*
X115527084Y-97322728D02*
X115473209Y-97322728D01*
X115473209Y-97322728D02*
X115392397Y-97295791D01*
X115392397Y-97295791D02*
X115176898Y-97080292D01*
X115176898Y-97080292D02*
X115742583Y-96514606D01*
X115742583Y-96514606D02*
X115931145Y-96703168D01*
X115931145Y-96703168D02*
X115958083Y-96783980D01*
X115958083Y-96783980D02*
X115958083Y-96837855D01*
X115958083Y-96837855D02*
X115931145Y-96918667D01*
X115931145Y-96918667D02*
X115877270Y-96972542D01*
X115877270Y-96972542D02*
X115796458Y-96999480D01*
X115796458Y-96999480D02*
X115742583Y-96999480D01*
X115742583Y-96999480D02*
X115661771Y-96972542D01*
X115661771Y-96972542D02*
X115473209Y-96783980D01*
X116308269Y-97080292D02*
X115850333Y-97538228D01*
X115850333Y-97538228D02*
X115823396Y-97619040D01*
X115823396Y-97619040D02*
X115823396Y-97672915D01*
X115823396Y-97672915D02*
X115850333Y-97753727D01*
X115850333Y-97753727D02*
X115958083Y-97861476D01*
X115958083Y-97861476D02*
X116038895Y-97888414D01*
X116038895Y-97888414D02*
X116092770Y-97888414D01*
X116092770Y-97888414D02*
X116173582Y-97861476D01*
X116173582Y-97861476D02*
X116631518Y-97403541D01*
X116335206Y-98184725D02*
X116389081Y-98292475D01*
X116389081Y-98292475D02*
X116523768Y-98427162D01*
X116523768Y-98427162D02*
X116604580Y-98454099D01*
X116604580Y-98454099D02*
X116658455Y-98454099D01*
X116658455Y-98454099D02*
X116739267Y-98427162D01*
X116739267Y-98427162D02*
X116793142Y-98373287D01*
X116793142Y-98373287D02*
X116820079Y-98292475D01*
X116820079Y-98292475D02*
X116820079Y-98238600D01*
X116820079Y-98238600D02*
X116793142Y-98157788D01*
X116793142Y-98157788D02*
X116712330Y-98023101D01*
X116712330Y-98023101D02*
X116685392Y-97942288D01*
X116685392Y-97942288D02*
X116685392Y-97888414D01*
X116685392Y-97888414D02*
X116712330Y-97807601D01*
X116712330Y-97807601D02*
X116766205Y-97753727D01*
X116766205Y-97753727D02*
X116847017Y-97726789D01*
X116847017Y-97726789D02*
X116900892Y-97726789D01*
X116900892Y-97726789D02*
X116981704Y-97753727D01*
X116981704Y-97753727D02*
X117116391Y-97888414D01*
X117116391Y-97888414D02*
X117170266Y-97996163D01*
X108092990Y-70408888D02*
X108066053Y-70328075D01*
X108066053Y-70328075D02*
X107985240Y-70247263D01*
X107985240Y-70247263D02*
X107877491Y-70193388D01*
X107877491Y-70193388D02*
X107769741Y-70193388D01*
X107769741Y-70193388D02*
X107688929Y-70220326D01*
X107688929Y-70220326D02*
X107554242Y-70301138D01*
X107554242Y-70301138D02*
X107473430Y-70381950D01*
X107473430Y-70381950D02*
X107392617Y-70516637D01*
X107392617Y-70516637D02*
X107365680Y-70597449D01*
X107365680Y-70597449D02*
X107365680Y-70705199D01*
X107365680Y-70705199D02*
X107419555Y-70812949D01*
X107419555Y-70812949D02*
X107473430Y-70866823D01*
X107473430Y-70866823D02*
X107581179Y-70920698D01*
X107581179Y-70920698D02*
X107635054Y-70920698D01*
X107635054Y-70920698D02*
X107823616Y-70732136D01*
X107823616Y-70732136D02*
X107715866Y-70624387D01*
X107823616Y-71217010D02*
X108389301Y-70651324D01*
X108389301Y-70651324D02*
X108604801Y-70866823D01*
X108604801Y-70866823D02*
X108631738Y-70947636D01*
X108631738Y-70947636D02*
X108631738Y-71001510D01*
X108631738Y-71001510D02*
X108604801Y-71082323D01*
X108604801Y-71082323D02*
X108523988Y-71163135D01*
X108523988Y-71163135D02*
X108443176Y-71190072D01*
X108443176Y-71190072D02*
X108389301Y-71190072D01*
X108389301Y-71190072D02*
X108308489Y-71163135D01*
X108308489Y-71163135D02*
X108092990Y-70947636D01*
X108874175Y-71243947D02*
X108928049Y-71243947D01*
X108928049Y-71243947D02*
X109008862Y-71270884D01*
X109008862Y-71270884D02*
X109143549Y-71405571D01*
X109143549Y-71405571D02*
X109170486Y-71486384D01*
X109170486Y-71486384D02*
X109170486Y-71540258D01*
X109170486Y-71540258D02*
X109143549Y-71621071D01*
X109143549Y-71621071D02*
X109089674Y-71674945D01*
X109089674Y-71674945D02*
X108981924Y-71728820D01*
X108981924Y-71728820D02*
X108335427Y-71728820D01*
X108335427Y-71728820D02*
X108685613Y-72079006D01*
X95113615Y-96093513D02*
X95086678Y-96012701D01*
X95086678Y-96012701D02*
X95005866Y-95931889D01*
X95005866Y-95931889D02*
X94898116Y-95878014D01*
X94898116Y-95878014D02*
X94790367Y-95878014D01*
X94790367Y-95878014D02*
X94709554Y-95904951D01*
X94709554Y-95904951D02*
X94574867Y-95985764D01*
X94574867Y-95985764D02*
X94494055Y-96066576D01*
X94494055Y-96066576D02*
X94413243Y-96201263D01*
X94413243Y-96201263D02*
X94386306Y-96282075D01*
X94386306Y-96282075D02*
X94386306Y-96389825D01*
X94386306Y-96389825D02*
X94440180Y-96497574D01*
X94440180Y-96497574D02*
X94494055Y-96551449D01*
X94494055Y-96551449D02*
X94601805Y-96605324D01*
X94601805Y-96605324D02*
X94655680Y-96605324D01*
X94655680Y-96605324D02*
X94844241Y-96416762D01*
X94844241Y-96416762D02*
X94736492Y-96309012D01*
X94844241Y-96901635D02*
X95409927Y-96335950D01*
X95409927Y-96335950D02*
X95625426Y-96551449D01*
X95625426Y-96551449D02*
X95652363Y-96632261D01*
X95652363Y-96632261D02*
X95652363Y-96686136D01*
X95652363Y-96686136D02*
X95625426Y-96766948D01*
X95625426Y-96766948D02*
X95544614Y-96847760D01*
X95544614Y-96847760D02*
X95463802Y-96874698D01*
X95463802Y-96874698D02*
X95409927Y-96874698D01*
X95409927Y-96874698D02*
X95329115Y-96847760D01*
X95329115Y-96847760D02*
X95113615Y-96632261D01*
X95894800Y-96928573D02*
X95948675Y-96928573D01*
X95948675Y-96928573D02*
X96029487Y-96955510D01*
X96029487Y-96955510D02*
X96164174Y-97090197D01*
X96164174Y-97090197D02*
X96191112Y-97171009D01*
X96191112Y-97171009D02*
X96191112Y-97224884D01*
X96191112Y-97224884D02*
X96164174Y-97305696D01*
X96164174Y-97305696D02*
X96110299Y-97359571D01*
X96110299Y-97359571D02*
X96002550Y-97413446D01*
X96002550Y-97413446D02*
X95356052Y-97413446D01*
X95356052Y-97413446D02*
X95706238Y-97763632D01*
X96460486Y-97386509D02*
X96837609Y-97763632D01*
X96837609Y-97763632D02*
X96029487Y-98086881D01*
X112634242Y-95916265D02*
X112257118Y-96670512D01*
X112257118Y-96670512D02*
X113011365Y-96293388D01*
X112634241Y-96993760D02*
X112688116Y-97101510D01*
X112688116Y-97101510D02*
X112822803Y-97236197D01*
X112822803Y-97236197D02*
X112903615Y-97263134D01*
X112903615Y-97263134D02*
X112957490Y-97263134D01*
X112957490Y-97263134D02*
X113038302Y-97236197D01*
X113038302Y-97236197D02*
X113092177Y-97182322D01*
X113092177Y-97182322D02*
X113119115Y-97101510D01*
X113119115Y-97101510D02*
X113119115Y-97047635D01*
X113119115Y-97047635D02*
X113092177Y-96966823D01*
X113092177Y-96966823D02*
X113011365Y-96832136D01*
X113011365Y-96832136D02*
X112984428Y-96751324D01*
X112984428Y-96751324D02*
X112984428Y-96697449D01*
X112984428Y-96697449D02*
X113011365Y-96616637D01*
X113011365Y-96616637D02*
X113065240Y-96562762D01*
X113065240Y-96562762D02*
X113146052Y-96535825D01*
X113146052Y-96535825D02*
X113199927Y-96535825D01*
X113199927Y-96535825D02*
X113280739Y-96562762D01*
X113280739Y-96562762D02*
X113415426Y-96697449D01*
X113415426Y-96697449D02*
X113469301Y-96805199D01*
X113550113Y-97424759D02*
X113280739Y-97694133D01*
X113657863Y-96939886D02*
X113550113Y-97424759D01*
X113550113Y-97424759D02*
X114034986Y-97317009D01*
X113657863Y-98017382D02*
X113711737Y-98125131D01*
X113711737Y-98125131D02*
X113846424Y-98259818D01*
X113846424Y-98259818D02*
X113927237Y-98286756D01*
X113927237Y-98286756D02*
X113981111Y-98286756D01*
X113981111Y-98286756D02*
X114061924Y-98259818D01*
X114061924Y-98259818D02*
X114115798Y-98205943D01*
X114115798Y-98205943D02*
X114142736Y-98125131D01*
X114142736Y-98125131D02*
X114142736Y-98071256D01*
X114142736Y-98071256D02*
X114115798Y-97990444D01*
X114115798Y-97990444D02*
X114034986Y-97855757D01*
X114034986Y-97855757D02*
X114008049Y-97774945D01*
X114008049Y-97774945D02*
X114008049Y-97721070D01*
X114008049Y-97721070D02*
X114034986Y-97640258D01*
X114034986Y-97640258D02*
X114088861Y-97586383D01*
X114088861Y-97586383D02*
X114169673Y-97559446D01*
X114169673Y-97559446D02*
X114223548Y-97559446D01*
X114223548Y-97559446D02*
X114304360Y-97586383D01*
X114304360Y-97586383D02*
X114439047Y-97721070D01*
X114439047Y-97721070D02*
X114492922Y-97828820D01*
X97906053Y-70481950D02*
X97879115Y-70401138D01*
X97879115Y-70401138D02*
X97798303Y-70320326D01*
X97798303Y-70320326D02*
X97690553Y-70266451D01*
X97690553Y-70266451D02*
X97582804Y-70266451D01*
X97582804Y-70266451D02*
X97501992Y-70293389D01*
X97501992Y-70293389D02*
X97367305Y-70374201D01*
X97367305Y-70374201D02*
X97286492Y-70455013D01*
X97286492Y-70455013D02*
X97205680Y-70589700D01*
X97205680Y-70589700D02*
X97178743Y-70670512D01*
X97178743Y-70670512D02*
X97178743Y-70778262D01*
X97178743Y-70778262D02*
X97232618Y-70886011D01*
X97232618Y-70886011D02*
X97286492Y-70939886D01*
X97286492Y-70939886D02*
X97394242Y-70993761D01*
X97394242Y-70993761D02*
X97448117Y-70993761D01*
X97448117Y-70993761D02*
X97636679Y-70805199D01*
X97636679Y-70805199D02*
X97528929Y-70697450D01*
X97636679Y-71290072D02*
X98202364Y-70724387D01*
X98202364Y-70724387D02*
X97959927Y-71613321D01*
X97959927Y-71613321D02*
X98525613Y-71047636D01*
X98229301Y-71882695D02*
X98794987Y-71317010D01*
X98794987Y-71317010D02*
X98929674Y-71451697D01*
X98929674Y-71451697D02*
X98983549Y-71559446D01*
X98983549Y-71559446D02*
X98983549Y-71667196D01*
X98983549Y-71667196D02*
X98956611Y-71748008D01*
X98956611Y-71748008D02*
X98875799Y-71882695D01*
X98875799Y-71882695D02*
X98794987Y-71963507D01*
X98794987Y-71963507D02*
X98660300Y-72044319D01*
X98660300Y-72044319D02*
X98579488Y-72071257D01*
X98579488Y-72071257D02*
X98471738Y-72071257D01*
X98471738Y-72071257D02*
X98363988Y-72017382D01*
X98363988Y-72017382D02*
X98229301Y-71882695D01*
X95392990Y-70508888D02*
X95366053Y-70428075D01*
X95366053Y-70428075D02*
X95285240Y-70347263D01*
X95285240Y-70347263D02*
X95177491Y-70293388D01*
X95177491Y-70293388D02*
X95069741Y-70293388D01*
X95069741Y-70293388D02*
X94988929Y-70320326D01*
X94988929Y-70320326D02*
X94854242Y-70401138D01*
X94854242Y-70401138D02*
X94773430Y-70481950D01*
X94773430Y-70481950D02*
X94692617Y-70616637D01*
X94692617Y-70616637D02*
X94665680Y-70697449D01*
X94665680Y-70697449D02*
X94665680Y-70805199D01*
X94665680Y-70805199D02*
X94719555Y-70912949D01*
X94719555Y-70912949D02*
X94773430Y-70966823D01*
X94773430Y-70966823D02*
X94881179Y-71020698D01*
X94881179Y-71020698D02*
X94935054Y-71020698D01*
X94935054Y-71020698D02*
X95123616Y-70832136D01*
X95123616Y-70832136D02*
X95015866Y-70724387D01*
X95123616Y-71317010D02*
X95689301Y-70751324D01*
X95689301Y-70751324D02*
X95904801Y-70966823D01*
X95904801Y-70966823D02*
X95931738Y-71047636D01*
X95931738Y-71047636D02*
X95931738Y-71101510D01*
X95931738Y-71101510D02*
X95904801Y-71182323D01*
X95904801Y-71182323D02*
X95823988Y-71263135D01*
X95823988Y-71263135D02*
X95743176Y-71290072D01*
X95743176Y-71290072D02*
X95689301Y-71290072D01*
X95689301Y-71290072D02*
X95608489Y-71263135D01*
X95608489Y-71263135D02*
X95392990Y-71047636D01*
X96497423Y-71559446D02*
X96389674Y-71451697D01*
X96389674Y-71451697D02*
X96308862Y-71424759D01*
X96308862Y-71424759D02*
X96254987Y-71424759D01*
X96254987Y-71424759D02*
X96120300Y-71451697D01*
X96120300Y-71451697D02*
X95985613Y-71532509D01*
X95985613Y-71532509D02*
X95770114Y-71748008D01*
X95770114Y-71748008D02*
X95743176Y-71828820D01*
X95743176Y-71828820D02*
X95743176Y-71882695D01*
X95743176Y-71882695D02*
X95770114Y-71963507D01*
X95770114Y-71963507D02*
X95877863Y-72071257D01*
X95877863Y-72071257D02*
X95958675Y-72098194D01*
X95958675Y-72098194D02*
X96012550Y-72098194D01*
X96012550Y-72098194D02*
X96093362Y-72071257D01*
X96093362Y-72071257D02*
X96228049Y-71936570D01*
X96228049Y-71936570D02*
X96254987Y-71855758D01*
X96254987Y-71855758D02*
X96254987Y-71801883D01*
X96254987Y-71801883D02*
X96228049Y-71721071D01*
X96228049Y-71721071D02*
X96120300Y-71613321D01*
X96120300Y-71613321D02*
X96039488Y-71586384D01*
X96039488Y-71586384D02*
X95985613Y-71586384D01*
X95985613Y-71586384D02*
X95904801Y-71613321D01*
X92583615Y-96093513D02*
X92556678Y-96012701D01*
X92556678Y-96012701D02*
X92475866Y-95931889D01*
X92475866Y-95931889D02*
X92368116Y-95878014D01*
X92368116Y-95878014D02*
X92260367Y-95878014D01*
X92260367Y-95878014D02*
X92179554Y-95904951D01*
X92179554Y-95904951D02*
X92044867Y-95985764D01*
X92044867Y-95985764D02*
X91964055Y-96066576D01*
X91964055Y-96066576D02*
X91883243Y-96201263D01*
X91883243Y-96201263D02*
X91856306Y-96282075D01*
X91856306Y-96282075D02*
X91856306Y-96389825D01*
X91856306Y-96389825D02*
X91910180Y-96497574D01*
X91910180Y-96497574D02*
X91964055Y-96551449D01*
X91964055Y-96551449D02*
X92071805Y-96605324D01*
X92071805Y-96605324D02*
X92125680Y-96605324D01*
X92125680Y-96605324D02*
X92314241Y-96416762D01*
X92314241Y-96416762D02*
X92206492Y-96309012D01*
X92314241Y-96901635D02*
X92879927Y-96335950D01*
X92879927Y-96335950D02*
X93095426Y-96551449D01*
X93095426Y-96551449D02*
X93122363Y-96632261D01*
X93122363Y-96632261D02*
X93122363Y-96686136D01*
X93122363Y-96686136D02*
X93095426Y-96766948D01*
X93095426Y-96766948D02*
X93014614Y-96847760D01*
X93014614Y-96847760D02*
X92933802Y-96874698D01*
X92933802Y-96874698D02*
X92879927Y-96874698D01*
X92879927Y-96874698D02*
X92799115Y-96847760D01*
X92799115Y-96847760D02*
X92583615Y-96632261D01*
X93364800Y-96928573D02*
X93418675Y-96928573D01*
X93418675Y-96928573D02*
X93499487Y-96955510D01*
X93499487Y-96955510D02*
X93634174Y-97090197D01*
X93634174Y-97090197D02*
X93661112Y-97171009D01*
X93661112Y-97171009D02*
X93661112Y-97224884D01*
X93661112Y-97224884D02*
X93634174Y-97305696D01*
X93634174Y-97305696D02*
X93580299Y-97359571D01*
X93580299Y-97359571D02*
X93472550Y-97413446D01*
X93472550Y-97413446D02*
X92826052Y-97413446D01*
X92826052Y-97413446D02*
X93176238Y-97763632D01*
X94226797Y-97682820D02*
X94119048Y-97575070D01*
X94119048Y-97575070D02*
X94038235Y-97548133D01*
X94038235Y-97548133D02*
X93984361Y-97548133D01*
X93984361Y-97548133D02*
X93849673Y-97575070D01*
X93849673Y-97575070D02*
X93714986Y-97655883D01*
X93714986Y-97655883D02*
X93499487Y-97871382D01*
X93499487Y-97871382D02*
X93472550Y-97952194D01*
X93472550Y-97952194D02*
X93472550Y-98006069D01*
X93472550Y-98006069D02*
X93499487Y-98086881D01*
X93499487Y-98086881D02*
X93607237Y-98194631D01*
X93607237Y-98194631D02*
X93688049Y-98221568D01*
X93688049Y-98221568D02*
X93741924Y-98221568D01*
X93741924Y-98221568D02*
X93822736Y-98194631D01*
X93822736Y-98194631D02*
X93957423Y-98059944D01*
X93957423Y-98059944D02*
X93984361Y-97979131D01*
X93984361Y-97979131D02*
X93984361Y-97925257D01*
X93984361Y-97925257D02*
X93957423Y-97844444D01*
X93957423Y-97844444D02*
X93849673Y-97736695D01*
X93849673Y-97736695D02*
X93768861Y-97709757D01*
X93768861Y-97709757D02*
X93714986Y-97709757D01*
X93714986Y-97709757D02*
X93634174Y-97736695D01*
X65842000Y-80099524D02*
X65880095Y-79985238D01*
X65880095Y-79985238D02*
X65880095Y-79794762D01*
X65880095Y-79794762D02*
X65842000Y-79718571D01*
X65842000Y-79718571D02*
X65803904Y-79680476D01*
X65803904Y-79680476D02*
X65727714Y-79642381D01*
X65727714Y-79642381D02*
X65651523Y-79642381D01*
X65651523Y-79642381D02*
X65575333Y-79680476D01*
X65575333Y-79680476D02*
X65537238Y-79718571D01*
X65537238Y-79718571D02*
X65499142Y-79794762D01*
X65499142Y-79794762D02*
X65461047Y-79947143D01*
X65461047Y-79947143D02*
X65422952Y-80023333D01*
X65422952Y-80023333D02*
X65384857Y-80061428D01*
X65384857Y-80061428D02*
X65308666Y-80099524D01*
X65308666Y-80099524D02*
X65232476Y-80099524D01*
X65232476Y-80099524D02*
X65156285Y-80061428D01*
X65156285Y-80061428D02*
X65118190Y-80023333D01*
X65118190Y-80023333D02*
X65080095Y-79947143D01*
X65080095Y-79947143D02*
X65080095Y-79756666D01*
X65080095Y-79756666D02*
X65118190Y-79642381D01*
X65080095Y-79375714D02*
X65880095Y-79185238D01*
X65880095Y-79185238D02*
X65308666Y-79032857D01*
X65308666Y-79032857D02*
X65880095Y-78880476D01*
X65880095Y-78880476D02*
X65080095Y-78690000D01*
X65803904Y-77928094D02*
X65842000Y-77966190D01*
X65842000Y-77966190D02*
X65880095Y-78080475D01*
X65880095Y-78080475D02*
X65880095Y-78156666D01*
X65880095Y-78156666D02*
X65842000Y-78270952D01*
X65842000Y-78270952D02*
X65765809Y-78347142D01*
X65765809Y-78347142D02*
X65689619Y-78385237D01*
X65689619Y-78385237D02*
X65537238Y-78423333D01*
X65537238Y-78423333D02*
X65422952Y-78423333D01*
X65422952Y-78423333D02*
X65270571Y-78385237D01*
X65270571Y-78385237D02*
X65194380Y-78347142D01*
X65194380Y-78347142D02*
X65118190Y-78270952D01*
X65118190Y-78270952D02*
X65080095Y-78156666D01*
X65080095Y-78156666D02*
X65080095Y-78080475D01*
X65080095Y-78080475D02*
X65118190Y-77966190D01*
X65118190Y-77966190D02*
X65156285Y-77928094D01*
X65880095Y-77204285D02*
X65880095Y-77585237D01*
X65880095Y-77585237D02*
X65080095Y-77585237D01*
X65880095Y-76937618D02*
X65080095Y-76937618D01*
X65880095Y-76480475D02*
X65422952Y-76823333D01*
X65080095Y-76480475D02*
X65537238Y-76937618D01*
X103012990Y-70508888D02*
X102986053Y-70428075D01*
X102986053Y-70428075D02*
X102905240Y-70347263D01*
X102905240Y-70347263D02*
X102797491Y-70293388D01*
X102797491Y-70293388D02*
X102689741Y-70293388D01*
X102689741Y-70293388D02*
X102608929Y-70320326D01*
X102608929Y-70320326D02*
X102474242Y-70401138D01*
X102474242Y-70401138D02*
X102393430Y-70481950D01*
X102393430Y-70481950D02*
X102312617Y-70616637D01*
X102312617Y-70616637D02*
X102285680Y-70697449D01*
X102285680Y-70697449D02*
X102285680Y-70805199D01*
X102285680Y-70805199D02*
X102339555Y-70912949D01*
X102339555Y-70912949D02*
X102393430Y-70966823D01*
X102393430Y-70966823D02*
X102501179Y-71020698D01*
X102501179Y-71020698D02*
X102555054Y-71020698D01*
X102555054Y-71020698D02*
X102743616Y-70832136D01*
X102743616Y-70832136D02*
X102635866Y-70724387D01*
X102743616Y-71317010D02*
X103309301Y-70751324D01*
X103309301Y-70751324D02*
X103524801Y-70966823D01*
X103524801Y-70966823D02*
X103551738Y-71047636D01*
X103551738Y-71047636D02*
X103551738Y-71101510D01*
X103551738Y-71101510D02*
X103524801Y-71182323D01*
X103524801Y-71182323D02*
X103443988Y-71263135D01*
X103443988Y-71263135D02*
X103363176Y-71290072D01*
X103363176Y-71290072D02*
X103309301Y-71290072D01*
X103309301Y-71290072D02*
X103228489Y-71263135D01*
X103228489Y-71263135D02*
X103012990Y-71047636D01*
X103928862Y-71748008D02*
X103551738Y-72125132D01*
X104009674Y-71397822D02*
X103470926Y-71667196D01*
X103470926Y-71667196D02*
X103821112Y-72017382D01*
X90312990Y-70508888D02*
X90286053Y-70428075D01*
X90286053Y-70428075D02*
X90205240Y-70347263D01*
X90205240Y-70347263D02*
X90097491Y-70293388D01*
X90097491Y-70293388D02*
X89989741Y-70293388D01*
X89989741Y-70293388D02*
X89908929Y-70320326D01*
X89908929Y-70320326D02*
X89774242Y-70401138D01*
X89774242Y-70401138D02*
X89693430Y-70481950D01*
X89693430Y-70481950D02*
X89612617Y-70616637D01*
X89612617Y-70616637D02*
X89585680Y-70697449D01*
X89585680Y-70697449D02*
X89585680Y-70805199D01*
X89585680Y-70805199D02*
X89639555Y-70912949D01*
X89639555Y-70912949D02*
X89693430Y-70966823D01*
X89693430Y-70966823D02*
X89801179Y-71020698D01*
X89801179Y-71020698D02*
X89855054Y-71020698D01*
X89855054Y-71020698D02*
X90043616Y-70832136D01*
X90043616Y-70832136D02*
X89935866Y-70724387D01*
X90043616Y-71317010D02*
X90609301Y-70751324D01*
X90609301Y-70751324D02*
X90824801Y-70966823D01*
X90824801Y-70966823D02*
X90851738Y-71047636D01*
X90851738Y-71047636D02*
X90851738Y-71101510D01*
X90851738Y-71101510D02*
X90824801Y-71182323D01*
X90824801Y-71182323D02*
X90743988Y-71263135D01*
X90743988Y-71263135D02*
X90663176Y-71290072D01*
X90663176Y-71290072D02*
X90609301Y-71290072D01*
X90609301Y-71290072D02*
X90528489Y-71263135D01*
X90528489Y-71263135D02*
X90312990Y-71047636D01*
X91013362Y-71640258D02*
X90986425Y-71559446D01*
X90986425Y-71559446D02*
X90986425Y-71505571D01*
X90986425Y-71505571D02*
X91013362Y-71424759D01*
X91013362Y-71424759D02*
X91040300Y-71397822D01*
X91040300Y-71397822D02*
X91121112Y-71370884D01*
X91121112Y-71370884D02*
X91174987Y-71370884D01*
X91174987Y-71370884D02*
X91255799Y-71397822D01*
X91255799Y-71397822D02*
X91363549Y-71505571D01*
X91363549Y-71505571D02*
X91390486Y-71586384D01*
X91390486Y-71586384D02*
X91390486Y-71640258D01*
X91390486Y-71640258D02*
X91363549Y-71721071D01*
X91363549Y-71721071D02*
X91336611Y-71748008D01*
X91336611Y-71748008D02*
X91255799Y-71774945D01*
X91255799Y-71774945D02*
X91201924Y-71774945D01*
X91201924Y-71774945D02*
X91121112Y-71748008D01*
X91121112Y-71748008D02*
X91013362Y-71640258D01*
X91013362Y-71640258D02*
X90932550Y-71613321D01*
X90932550Y-71613321D02*
X90878675Y-71613321D01*
X90878675Y-71613321D02*
X90797863Y-71640258D01*
X90797863Y-71640258D02*
X90690114Y-71748008D01*
X90690114Y-71748008D02*
X90663176Y-71828820D01*
X90663176Y-71828820D02*
X90663176Y-71882695D01*
X90663176Y-71882695D02*
X90690114Y-71963507D01*
X90690114Y-71963507D02*
X90797863Y-72071257D01*
X90797863Y-72071257D02*
X90878675Y-72098194D01*
X90878675Y-72098194D02*
X90932550Y-72098194D01*
X90932550Y-72098194D02*
X91013362Y-72071257D01*
X91013362Y-72071257D02*
X91121112Y-71963507D01*
X91121112Y-71963507D02*
X91148049Y-71882695D01*
X91148049Y-71882695D02*
X91148049Y-71828820D01*
X91148049Y-71828820D02*
X91121112Y-71748008D01*
X105552990Y-70508888D02*
X105526053Y-70428075D01*
X105526053Y-70428075D02*
X105445240Y-70347263D01*
X105445240Y-70347263D02*
X105337491Y-70293388D01*
X105337491Y-70293388D02*
X105229741Y-70293388D01*
X105229741Y-70293388D02*
X105148929Y-70320326D01*
X105148929Y-70320326D02*
X105014242Y-70401138D01*
X105014242Y-70401138D02*
X104933430Y-70481950D01*
X104933430Y-70481950D02*
X104852617Y-70616637D01*
X104852617Y-70616637D02*
X104825680Y-70697449D01*
X104825680Y-70697449D02*
X104825680Y-70805199D01*
X104825680Y-70805199D02*
X104879555Y-70912949D01*
X104879555Y-70912949D02*
X104933430Y-70966823D01*
X104933430Y-70966823D02*
X105041179Y-71020698D01*
X105041179Y-71020698D02*
X105095054Y-71020698D01*
X105095054Y-71020698D02*
X105283616Y-70832136D01*
X105283616Y-70832136D02*
X105175866Y-70724387D01*
X105283616Y-71317010D02*
X105849301Y-70751324D01*
X105849301Y-70751324D02*
X106064801Y-70966823D01*
X106064801Y-70966823D02*
X106091738Y-71047636D01*
X106091738Y-71047636D02*
X106091738Y-71101510D01*
X106091738Y-71101510D02*
X106064801Y-71182323D01*
X106064801Y-71182323D02*
X105983988Y-71263135D01*
X105983988Y-71263135D02*
X105903176Y-71290072D01*
X105903176Y-71290072D02*
X105849301Y-71290072D01*
X105849301Y-71290072D02*
X105768489Y-71263135D01*
X105768489Y-71263135D02*
X105552990Y-71047636D01*
X106361112Y-71263135D02*
X106711298Y-71613321D01*
X106711298Y-71613321D02*
X106307237Y-71640258D01*
X106307237Y-71640258D02*
X106388049Y-71721071D01*
X106388049Y-71721071D02*
X106414987Y-71801883D01*
X106414987Y-71801883D02*
X106414987Y-71855758D01*
X106414987Y-71855758D02*
X106388049Y-71936570D01*
X106388049Y-71936570D02*
X106253362Y-72071257D01*
X106253362Y-72071257D02*
X106172550Y-72098194D01*
X106172550Y-72098194D02*
X106118675Y-72098194D01*
X106118675Y-72098194D02*
X106037863Y-72071257D01*
X106037863Y-72071257D02*
X105876239Y-71909632D01*
X105876239Y-71909632D02*
X105849301Y-71828820D01*
X105849301Y-71828820D02*
X105849301Y-71774945D01*
X82423615Y-69985513D02*
X82396678Y-69904701D01*
X82396678Y-69904701D02*
X82315866Y-69823889D01*
X82315866Y-69823889D02*
X82208116Y-69770014D01*
X82208116Y-69770014D02*
X82100367Y-69770014D01*
X82100367Y-69770014D02*
X82019554Y-69796951D01*
X82019554Y-69796951D02*
X81884867Y-69877764D01*
X81884867Y-69877764D02*
X81804055Y-69958576D01*
X81804055Y-69958576D02*
X81723243Y-70093263D01*
X81723243Y-70093263D02*
X81696306Y-70174075D01*
X81696306Y-70174075D02*
X81696306Y-70281825D01*
X81696306Y-70281825D02*
X81750180Y-70389574D01*
X81750180Y-70389574D02*
X81804055Y-70443449D01*
X81804055Y-70443449D02*
X81911805Y-70497324D01*
X81911805Y-70497324D02*
X81965680Y-70497324D01*
X81965680Y-70497324D02*
X82154241Y-70308762D01*
X82154241Y-70308762D02*
X82046492Y-70201012D01*
X82154241Y-70793635D02*
X82719927Y-70227950D01*
X82719927Y-70227950D02*
X82935426Y-70443449D01*
X82935426Y-70443449D02*
X82962363Y-70524261D01*
X82962363Y-70524261D02*
X82962363Y-70578136D01*
X82962363Y-70578136D02*
X82935426Y-70658948D01*
X82935426Y-70658948D02*
X82854614Y-70739760D01*
X82854614Y-70739760D02*
X82773802Y-70766698D01*
X82773802Y-70766698D02*
X82719927Y-70766698D01*
X82719927Y-70766698D02*
X82639115Y-70739760D01*
X82639115Y-70739760D02*
X82423615Y-70524261D01*
X83016238Y-71655632D02*
X82692989Y-71332383D01*
X82854614Y-71494008D02*
X83420299Y-70928322D01*
X83420299Y-70928322D02*
X83285612Y-70955260D01*
X83285612Y-70955260D02*
X83177863Y-70955260D01*
X83177863Y-70955260D02*
X83097051Y-70928322D01*
X83932110Y-71440133D02*
X83985985Y-71494008D01*
X83985985Y-71494008D02*
X84012922Y-71574820D01*
X84012922Y-71574820D02*
X84012922Y-71628695D01*
X84012922Y-71628695D02*
X83985985Y-71709507D01*
X83985985Y-71709507D02*
X83905173Y-71844194D01*
X83905173Y-71844194D02*
X83770486Y-71978881D01*
X83770486Y-71978881D02*
X83635799Y-72059693D01*
X83635799Y-72059693D02*
X83554986Y-72086631D01*
X83554986Y-72086631D02*
X83501112Y-72086631D01*
X83501112Y-72086631D02*
X83420299Y-72059693D01*
X83420299Y-72059693D02*
X83366425Y-72005818D01*
X83366425Y-72005818D02*
X83339487Y-71925006D01*
X83339487Y-71925006D02*
X83339487Y-71871131D01*
X83339487Y-71871131D02*
X83366425Y-71790319D01*
X83366425Y-71790319D02*
X83447237Y-71655632D01*
X83447237Y-71655632D02*
X83581924Y-71520945D01*
X83581924Y-71520945D02*
X83716611Y-71440133D01*
X83716611Y-71440133D02*
X83797423Y-71413196D01*
X83797423Y-71413196D02*
X83851298Y-71413196D01*
X83851298Y-71413196D02*
X83932110Y-71440133D01*
X69723615Y-96093513D02*
X69696678Y-96012701D01*
X69696678Y-96012701D02*
X69615866Y-95931889D01*
X69615866Y-95931889D02*
X69508116Y-95878014D01*
X69508116Y-95878014D02*
X69400367Y-95878014D01*
X69400367Y-95878014D02*
X69319554Y-95904951D01*
X69319554Y-95904951D02*
X69184867Y-95985764D01*
X69184867Y-95985764D02*
X69104055Y-96066576D01*
X69104055Y-96066576D02*
X69023243Y-96201263D01*
X69023243Y-96201263D02*
X68996306Y-96282075D01*
X68996306Y-96282075D02*
X68996306Y-96389825D01*
X68996306Y-96389825D02*
X69050180Y-96497574D01*
X69050180Y-96497574D02*
X69104055Y-96551449D01*
X69104055Y-96551449D02*
X69211805Y-96605324D01*
X69211805Y-96605324D02*
X69265680Y-96605324D01*
X69265680Y-96605324D02*
X69454241Y-96416762D01*
X69454241Y-96416762D02*
X69346492Y-96309012D01*
X69454241Y-96901635D02*
X70019927Y-96335950D01*
X70019927Y-96335950D02*
X70235426Y-96551449D01*
X70235426Y-96551449D02*
X70262363Y-96632261D01*
X70262363Y-96632261D02*
X70262363Y-96686136D01*
X70262363Y-96686136D02*
X70235426Y-96766948D01*
X70235426Y-96766948D02*
X70154614Y-96847760D01*
X70154614Y-96847760D02*
X70073802Y-96874698D01*
X70073802Y-96874698D02*
X70019927Y-96874698D01*
X70019927Y-96874698D02*
X69939115Y-96847760D01*
X69939115Y-96847760D02*
X69723615Y-96632261D01*
X70316238Y-97763632D02*
X69992989Y-97440383D01*
X70154614Y-97602008D02*
X70720299Y-97036322D01*
X70720299Y-97036322D02*
X70585612Y-97063260D01*
X70585612Y-97063260D02*
X70477863Y-97063260D01*
X70477863Y-97063260D02*
X70397051Y-97036322D01*
X71070486Y-97386509D02*
X71447609Y-97763632D01*
X71447609Y-97763632D02*
X70639487Y-98086881D01*
X110606053Y-70481950D02*
X110579115Y-70401138D01*
X110579115Y-70401138D02*
X110498303Y-70320326D01*
X110498303Y-70320326D02*
X110390553Y-70266451D01*
X110390553Y-70266451D02*
X110282804Y-70266451D01*
X110282804Y-70266451D02*
X110201992Y-70293389D01*
X110201992Y-70293389D02*
X110067305Y-70374201D01*
X110067305Y-70374201D02*
X109986492Y-70455013D01*
X109986492Y-70455013D02*
X109905680Y-70589700D01*
X109905680Y-70589700D02*
X109878743Y-70670512D01*
X109878743Y-70670512D02*
X109878743Y-70778262D01*
X109878743Y-70778262D02*
X109932618Y-70886011D01*
X109932618Y-70886011D02*
X109986492Y-70939886D01*
X109986492Y-70939886D02*
X110094242Y-70993761D01*
X110094242Y-70993761D02*
X110148117Y-70993761D01*
X110148117Y-70993761D02*
X110336679Y-70805199D01*
X110336679Y-70805199D02*
X110228929Y-70697450D01*
X110336679Y-71290072D02*
X110902364Y-70724387D01*
X110902364Y-70724387D02*
X110659927Y-71613321D01*
X110659927Y-71613321D02*
X111225613Y-71047636D01*
X110929301Y-71882695D02*
X111494987Y-71317010D01*
X111494987Y-71317010D02*
X111629674Y-71451697D01*
X111629674Y-71451697D02*
X111683549Y-71559446D01*
X111683549Y-71559446D02*
X111683549Y-71667196D01*
X111683549Y-71667196D02*
X111656611Y-71748008D01*
X111656611Y-71748008D02*
X111575799Y-71882695D01*
X111575799Y-71882695D02*
X111494987Y-71963507D01*
X111494987Y-71963507D02*
X111360300Y-72044319D01*
X111360300Y-72044319D02*
X111279488Y-72071257D01*
X111279488Y-72071257D02*
X111171738Y-72071257D01*
X111171738Y-72071257D02*
X111063988Y-72017382D01*
X111063988Y-72017382D02*
X110929301Y-71882695D01*
X77343615Y-96093513D02*
X77316678Y-96012701D01*
X77316678Y-96012701D02*
X77235866Y-95931889D01*
X77235866Y-95931889D02*
X77128116Y-95878014D01*
X77128116Y-95878014D02*
X77020367Y-95878014D01*
X77020367Y-95878014D02*
X76939554Y-95904951D01*
X76939554Y-95904951D02*
X76804867Y-95985764D01*
X76804867Y-95985764D02*
X76724055Y-96066576D01*
X76724055Y-96066576D02*
X76643243Y-96201263D01*
X76643243Y-96201263D02*
X76616306Y-96282075D01*
X76616306Y-96282075D02*
X76616306Y-96389825D01*
X76616306Y-96389825D02*
X76670180Y-96497574D01*
X76670180Y-96497574D02*
X76724055Y-96551449D01*
X76724055Y-96551449D02*
X76831805Y-96605324D01*
X76831805Y-96605324D02*
X76885680Y-96605324D01*
X76885680Y-96605324D02*
X77074241Y-96416762D01*
X77074241Y-96416762D02*
X76966492Y-96309012D01*
X77074241Y-96901635D02*
X77639927Y-96335950D01*
X77639927Y-96335950D02*
X77855426Y-96551449D01*
X77855426Y-96551449D02*
X77882363Y-96632261D01*
X77882363Y-96632261D02*
X77882363Y-96686136D01*
X77882363Y-96686136D02*
X77855426Y-96766948D01*
X77855426Y-96766948D02*
X77774614Y-96847760D01*
X77774614Y-96847760D02*
X77693802Y-96874698D01*
X77693802Y-96874698D02*
X77639927Y-96874698D01*
X77639927Y-96874698D02*
X77559115Y-96847760D01*
X77559115Y-96847760D02*
X77343615Y-96632261D01*
X77936238Y-97763632D02*
X77612989Y-97440383D01*
X77774614Y-97602008D02*
X78340299Y-97036322D01*
X78340299Y-97036322D02*
X78205612Y-97063260D01*
X78205612Y-97063260D02*
X78097863Y-97063260D01*
X78097863Y-97063260D02*
X78017051Y-97036322D01*
X78205612Y-98033006D02*
X78313362Y-98140756D01*
X78313362Y-98140756D02*
X78394174Y-98167693D01*
X78394174Y-98167693D02*
X78448049Y-98167693D01*
X78448049Y-98167693D02*
X78582736Y-98140756D01*
X78582736Y-98140756D02*
X78717423Y-98059944D01*
X78717423Y-98059944D02*
X78932922Y-97844444D01*
X78932922Y-97844444D02*
X78959860Y-97763632D01*
X78959860Y-97763632D02*
X78959860Y-97709757D01*
X78959860Y-97709757D02*
X78932922Y-97628945D01*
X78932922Y-97628945D02*
X78825173Y-97521196D01*
X78825173Y-97521196D02*
X78744361Y-97494258D01*
X78744361Y-97494258D02*
X78690486Y-97494258D01*
X78690486Y-97494258D02*
X78609673Y-97521196D01*
X78609673Y-97521196D02*
X78474986Y-97655883D01*
X78474986Y-97655883D02*
X78448049Y-97736695D01*
X78448049Y-97736695D02*
X78448049Y-97790570D01*
X78448049Y-97790570D02*
X78474986Y-97871382D01*
X78474986Y-97871382D02*
X78582736Y-97979131D01*
X78582736Y-97979131D02*
X78663548Y-98006069D01*
X78663548Y-98006069D02*
X78717423Y-98006069D01*
X78717423Y-98006069D02*
X78798235Y-97979131D01*
X92882990Y-70608888D02*
X92856053Y-70528075D01*
X92856053Y-70528075D02*
X92775240Y-70447263D01*
X92775240Y-70447263D02*
X92667491Y-70393388D01*
X92667491Y-70393388D02*
X92559741Y-70393388D01*
X92559741Y-70393388D02*
X92478929Y-70420326D01*
X92478929Y-70420326D02*
X92344242Y-70501138D01*
X92344242Y-70501138D02*
X92263430Y-70581950D01*
X92263430Y-70581950D02*
X92182617Y-70716637D01*
X92182617Y-70716637D02*
X92155680Y-70797449D01*
X92155680Y-70797449D02*
X92155680Y-70905199D01*
X92155680Y-70905199D02*
X92209555Y-71012949D01*
X92209555Y-71012949D02*
X92263430Y-71066823D01*
X92263430Y-71066823D02*
X92371179Y-71120698D01*
X92371179Y-71120698D02*
X92425054Y-71120698D01*
X92425054Y-71120698D02*
X92613616Y-70932136D01*
X92613616Y-70932136D02*
X92505866Y-70824387D01*
X92613616Y-71417010D02*
X93179301Y-70851324D01*
X93179301Y-70851324D02*
X93394801Y-71066823D01*
X93394801Y-71066823D02*
X93421738Y-71147636D01*
X93421738Y-71147636D02*
X93421738Y-71201510D01*
X93421738Y-71201510D02*
X93394801Y-71282323D01*
X93394801Y-71282323D02*
X93313988Y-71363135D01*
X93313988Y-71363135D02*
X93233176Y-71390072D01*
X93233176Y-71390072D02*
X93179301Y-71390072D01*
X93179301Y-71390072D02*
X93098489Y-71363135D01*
X93098489Y-71363135D02*
X92882990Y-71147636D01*
X93691112Y-71363135D02*
X94068236Y-71740258D01*
X94068236Y-71740258D02*
X93260114Y-72063507D01*
X89760773Y-96834167D02*
X89841585Y-96376231D01*
X89437524Y-96510918D02*
X90003210Y-95945233D01*
X90003210Y-95945233D02*
X90218709Y-96160732D01*
X90218709Y-96160732D02*
X90245646Y-96241544D01*
X90245646Y-96241544D02*
X90245646Y-96295419D01*
X90245646Y-96295419D02*
X90218709Y-96376231D01*
X90218709Y-96376231D02*
X90137897Y-96457043D01*
X90137897Y-96457043D02*
X90057085Y-96483981D01*
X90057085Y-96483981D02*
X90003210Y-96483981D01*
X90003210Y-96483981D02*
X89922398Y-96457043D01*
X89922398Y-96457043D02*
X89706898Y-96241544D01*
X90568895Y-96510918D02*
X90110959Y-96968854D01*
X90110959Y-96968854D02*
X90084022Y-97049666D01*
X90084022Y-97049666D02*
X90084022Y-97103541D01*
X90084022Y-97103541D02*
X90110959Y-97184353D01*
X90110959Y-97184353D02*
X90218709Y-97292103D01*
X90218709Y-97292103D02*
X90299521Y-97319040D01*
X90299521Y-97319040D02*
X90353396Y-97319040D01*
X90353396Y-97319040D02*
X90434208Y-97292103D01*
X90434208Y-97292103D02*
X90892144Y-96834167D01*
X90595832Y-97669226D02*
X91161518Y-97103541D01*
X91161518Y-97103541D02*
X90919081Y-97992475D01*
X90919081Y-97992475D02*
X91484767Y-97426789D01*
X110606053Y-96081950D02*
X110579115Y-96001138D01*
X110579115Y-96001138D02*
X110498303Y-95920326D01*
X110498303Y-95920326D02*
X110390553Y-95866451D01*
X110390553Y-95866451D02*
X110282804Y-95866451D01*
X110282804Y-95866451D02*
X110201992Y-95893389D01*
X110201992Y-95893389D02*
X110067305Y-95974201D01*
X110067305Y-95974201D02*
X109986492Y-96055013D01*
X109986492Y-96055013D02*
X109905680Y-96189700D01*
X109905680Y-96189700D02*
X109878743Y-96270512D01*
X109878743Y-96270512D02*
X109878743Y-96378262D01*
X109878743Y-96378262D02*
X109932618Y-96486011D01*
X109932618Y-96486011D02*
X109986492Y-96539886D01*
X109986492Y-96539886D02*
X110094242Y-96593761D01*
X110094242Y-96593761D02*
X110148117Y-96593761D01*
X110148117Y-96593761D02*
X110336679Y-96405199D01*
X110336679Y-96405199D02*
X110228929Y-96297450D01*
X110336679Y-96890072D02*
X110902364Y-96324387D01*
X110902364Y-96324387D02*
X110659927Y-97213321D01*
X110659927Y-97213321D02*
X111225613Y-96647636D01*
X110929301Y-97482695D02*
X111494987Y-96917010D01*
X111494987Y-96917010D02*
X111629674Y-97051697D01*
X111629674Y-97051697D02*
X111683549Y-97159446D01*
X111683549Y-97159446D02*
X111683549Y-97267196D01*
X111683549Y-97267196D02*
X111656611Y-97348008D01*
X111656611Y-97348008D02*
X111575799Y-97482695D01*
X111575799Y-97482695D02*
X111494987Y-97563507D01*
X111494987Y-97563507D02*
X111360300Y-97644319D01*
X111360300Y-97644319D02*
X111279488Y-97671257D01*
X111279488Y-97671257D02*
X111171738Y-97671257D01*
X111171738Y-97671257D02*
X111063988Y-97617382D01*
X111063988Y-97617382D02*
X110929301Y-97482695D01*
X77343615Y-69839513D02*
X77316678Y-69758701D01*
X77316678Y-69758701D02*
X77235866Y-69677889D01*
X77235866Y-69677889D02*
X77128116Y-69624014D01*
X77128116Y-69624014D02*
X77020367Y-69624014D01*
X77020367Y-69624014D02*
X76939554Y-69650951D01*
X76939554Y-69650951D02*
X76804867Y-69731764D01*
X76804867Y-69731764D02*
X76724055Y-69812576D01*
X76724055Y-69812576D02*
X76643243Y-69947263D01*
X76643243Y-69947263D02*
X76616306Y-70028075D01*
X76616306Y-70028075D02*
X76616306Y-70135825D01*
X76616306Y-70135825D02*
X76670180Y-70243574D01*
X76670180Y-70243574D02*
X76724055Y-70297449D01*
X76724055Y-70297449D02*
X76831805Y-70351324D01*
X76831805Y-70351324D02*
X76885680Y-70351324D01*
X76885680Y-70351324D02*
X77074241Y-70162762D01*
X77074241Y-70162762D02*
X76966492Y-70055012D01*
X77074241Y-70647635D02*
X77639927Y-70081950D01*
X77639927Y-70081950D02*
X77855426Y-70297449D01*
X77855426Y-70297449D02*
X77882363Y-70378261D01*
X77882363Y-70378261D02*
X77882363Y-70432136D01*
X77882363Y-70432136D02*
X77855426Y-70512948D01*
X77855426Y-70512948D02*
X77774614Y-70593760D01*
X77774614Y-70593760D02*
X77693802Y-70620698D01*
X77693802Y-70620698D02*
X77639927Y-70620698D01*
X77639927Y-70620698D02*
X77559115Y-70593760D01*
X77559115Y-70593760D02*
X77343615Y-70378261D01*
X77936238Y-71509632D02*
X77612989Y-71186383D01*
X77774614Y-71348008D02*
X78340299Y-70782322D01*
X78340299Y-70782322D02*
X78205612Y-70809260D01*
X78205612Y-70809260D02*
X78097863Y-70809260D01*
X78097863Y-70809260D02*
X78017051Y-70782322D01*
X78663548Y-71213321D02*
X78717423Y-71213321D01*
X78717423Y-71213321D02*
X78798235Y-71240258D01*
X78798235Y-71240258D02*
X78932922Y-71374945D01*
X78932922Y-71374945D02*
X78959860Y-71455757D01*
X78959860Y-71455757D02*
X78959860Y-71509632D01*
X78959860Y-71509632D02*
X78932922Y-71590444D01*
X78932922Y-71590444D02*
X78879048Y-71644319D01*
X78879048Y-71644319D02*
X78771298Y-71698194D01*
X78771298Y-71698194D02*
X78124800Y-71698194D01*
X78124800Y-71698194D02*
X78474986Y-72048380D01*
X72506053Y-96081950D02*
X72479115Y-96001138D01*
X72479115Y-96001138D02*
X72398303Y-95920326D01*
X72398303Y-95920326D02*
X72290553Y-95866451D01*
X72290553Y-95866451D02*
X72182804Y-95866451D01*
X72182804Y-95866451D02*
X72101992Y-95893389D01*
X72101992Y-95893389D02*
X71967305Y-95974201D01*
X71967305Y-95974201D02*
X71886492Y-96055013D01*
X71886492Y-96055013D02*
X71805680Y-96189700D01*
X71805680Y-96189700D02*
X71778743Y-96270512D01*
X71778743Y-96270512D02*
X71778743Y-96378262D01*
X71778743Y-96378262D02*
X71832618Y-96486011D01*
X71832618Y-96486011D02*
X71886492Y-96539886D01*
X71886492Y-96539886D02*
X71994242Y-96593761D01*
X71994242Y-96593761D02*
X72048117Y-96593761D01*
X72048117Y-96593761D02*
X72236679Y-96405199D01*
X72236679Y-96405199D02*
X72128929Y-96297450D01*
X72236679Y-96890072D02*
X72802364Y-96324387D01*
X72802364Y-96324387D02*
X72559927Y-97213321D01*
X72559927Y-97213321D02*
X73125613Y-96647636D01*
X72829301Y-97482695D02*
X73394987Y-96917010D01*
X73394987Y-96917010D02*
X73529674Y-97051697D01*
X73529674Y-97051697D02*
X73583549Y-97159446D01*
X73583549Y-97159446D02*
X73583549Y-97267196D01*
X73583549Y-97267196D02*
X73556611Y-97348008D01*
X73556611Y-97348008D02*
X73475799Y-97482695D01*
X73475799Y-97482695D02*
X73394987Y-97563507D01*
X73394987Y-97563507D02*
X73260300Y-97644319D01*
X73260300Y-97644319D02*
X73179488Y-97671257D01*
X73179488Y-97671257D02*
X73071738Y-97671257D01*
X73071738Y-97671257D02*
X72963988Y-97617382D01*
X72963988Y-97617382D02*
X72829301Y-97482695D01*
X85206053Y-96081950D02*
X85179115Y-96001138D01*
X85179115Y-96001138D02*
X85098303Y-95920326D01*
X85098303Y-95920326D02*
X84990553Y-95866451D01*
X84990553Y-95866451D02*
X84882804Y-95866451D01*
X84882804Y-95866451D02*
X84801992Y-95893389D01*
X84801992Y-95893389D02*
X84667305Y-95974201D01*
X84667305Y-95974201D02*
X84586492Y-96055013D01*
X84586492Y-96055013D02*
X84505680Y-96189700D01*
X84505680Y-96189700D02*
X84478743Y-96270512D01*
X84478743Y-96270512D02*
X84478743Y-96378262D01*
X84478743Y-96378262D02*
X84532618Y-96486011D01*
X84532618Y-96486011D02*
X84586492Y-96539886D01*
X84586492Y-96539886D02*
X84694242Y-96593761D01*
X84694242Y-96593761D02*
X84748117Y-96593761D01*
X84748117Y-96593761D02*
X84936679Y-96405199D01*
X84936679Y-96405199D02*
X84828929Y-96297450D01*
X84936679Y-96890072D02*
X85502364Y-96324387D01*
X85502364Y-96324387D02*
X85259927Y-97213321D01*
X85259927Y-97213321D02*
X85825613Y-96647636D01*
X85529301Y-97482695D02*
X86094987Y-96917010D01*
X86094987Y-96917010D02*
X86229674Y-97051697D01*
X86229674Y-97051697D02*
X86283549Y-97159446D01*
X86283549Y-97159446D02*
X86283549Y-97267196D01*
X86283549Y-97267196D02*
X86256611Y-97348008D01*
X86256611Y-97348008D02*
X86175799Y-97482695D01*
X86175799Y-97482695D02*
X86094987Y-97563507D01*
X86094987Y-97563507D02*
X85960300Y-97644319D01*
X85960300Y-97644319D02*
X85879488Y-97671257D01*
X85879488Y-97671257D02*
X85771738Y-97671257D01*
X85771738Y-97671257D02*
X85663988Y-97617382D01*
X85663988Y-97617382D02*
X85529301Y-97482695D01*
X74803615Y-69985513D02*
X74776678Y-69904701D01*
X74776678Y-69904701D02*
X74695866Y-69823889D01*
X74695866Y-69823889D02*
X74588116Y-69770014D01*
X74588116Y-69770014D02*
X74480367Y-69770014D01*
X74480367Y-69770014D02*
X74399554Y-69796951D01*
X74399554Y-69796951D02*
X74264867Y-69877764D01*
X74264867Y-69877764D02*
X74184055Y-69958576D01*
X74184055Y-69958576D02*
X74103243Y-70093263D01*
X74103243Y-70093263D02*
X74076306Y-70174075D01*
X74076306Y-70174075D02*
X74076306Y-70281825D01*
X74076306Y-70281825D02*
X74130180Y-70389574D01*
X74130180Y-70389574D02*
X74184055Y-70443449D01*
X74184055Y-70443449D02*
X74291805Y-70497324D01*
X74291805Y-70497324D02*
X74345680Y-70497324D01*
X74345680Y-70497324D02*
X74534241Y-70308762D01*
X74534241Y-70308762D02*
X74426492Y-70201012D01*
X74534241Y-70793635D02*
X75099927Y-70227950D01*
X75099927Y-70227950D02*
X75315426Y-70443449D01*
X75315426Y-70443449D02*
X75342363Y-70524261D01*
X75342363Y-70524261D02*
X75342363Y-70578136D01*
X75342363Y-70578136D02*
X75315426Y-70658948D01*
X75315426Y-70658948D02*
X75234614Y-70739760D01*
X75234614Y-70739760D02*
X75153802Y-70766698D01*
X75153802Y-70766698D02*
X75099927Y-70766698D01*
X75099927Y-70766698D02*
X75019115Y-70739760D01*
X75019115Y-70739760D02*
X74803615Y-70524261D01*
X75396238Y-71655632D02*
X75072989Y-71332383D01*
X75234614Y-71494008D02*
X75800299Y-70928322D01*
X75800299Y-70928322D02*
X75665612Y-70955260D01*
X75665612Y-70955260D02*
X75557863Y-70955260D01*
X75557863Y-70955260D02*
X75477051Y-70928322D01*
X76150486Y-71278509D02*
X76500672Y-71628695D01*
X76500672Y-71628695D02*
X76096611Y-71655632D01*
X76096611Y-71655632D02*
X76177423Y-71736444D01*
X76177423Y-71736444D02*
X76204361Y-71817257D01*
X76204361Y-71817257D02*
X76204361Y-71871131D01*
X76204361Y-71871131D02*
X76177423Y-71951944D01*
X76177423Y-71951944D02*
X76042736Y-72086631D01*
X76042736Y-72086631D02*
X75961924Y-72113568D01*
X75961924Y-72113568D02*
X75908049Y-72113568D01*
X75908049Y-72113568D02*
X75827237Y-72086631D01*
X75827237Y-72086631D02*
X75665612Y-71925006D01*
X75665612Y-71925006D02*
X75638675Y-71844194D01*
X75638675Y-71844194D02*
X75638675Y-71790319D01*
X65842000Y-91285238D02*
X65880095Y-91170952D01*
X65880095Y-91170952D02*
X65880095Y-90980476D01*
X65880095Y-90980476D02*
X65842000Y-90904285D01*
X65842000Y-90904285D02*
X65803904Y-90866190D01*
X65803904Y-90866190D02*
X65727714Y-90828095D01*
X65727714Y-90828095D02*
X65651523Y-90828095D01*
X65651523Y-90828095D02*
X65575333Y-90866190D01*
X65575333Y-90866190D02*
X65537238Y-90904285D01*
X65537238Y-90904285D02*
X65499142Y-90980476D01*
X65499142Y-90980476D02*
X65461047Y-91132857D01*
X65461047Y-91132857D02*
X65422952Y-91209047D01*
X65422952Y-91209047D02*
X65384857Y-91247142D01*
X65384857Y-91247142D02*
X65308666Y-91285238D01*
X65308666Y-91285238D02*
X65232476Y-91285238D01*
X65232476Y-91285238D02*
X65156285Y-91247142D01*
X65156285Y-91247142D02*
X65118190Y-91209047D01*
X65118190Y-91209047D02*
X65080095Y-91132857D01*
X65080095Y-91132857D02*
X65080095Y-90942380D01*
X65080095Y-90942380D02*
X65118190Y-90828095D01*
X65080095Y-90561428D02*
X65880095Y-90370952D01*
X65880095Y-90370952D02*
X65308666Y-90218571D01*
X65308666Y-90218571D02*
X65880095Y-90066190D01*
X65880095Y-90066190D02*
X65080095Y-89875714D01*
X65880095Y-89570951D02*
X65080095Y-89570951D01*
X65080095Y-89570951D02*
X65080095Y-89380475D01*
X65080095Y-89380475D02*
X65118190Y-89266189D01*
X65118190Y-89266189D02*
X65194380Y-89189999D01*
X65194380Y-89189999D02*
X65270571Y-89151904D01*
X65270571Y-89151904D02*
X65422952Y-89113808D01*
X65422952Y-89113808D02*
X65537238Y-89113808D01*
X65537238Y-89113808D02*
X65689619Y-89151904D01*
X65689619Y-89151904D02*
X65765809Y-89189999D01*
X65765809Y-89189999D02*
X65842000Y-89266189D01*
X65842000Y-89266189D02*
X65880095Y-89380475D01*
X65880095Y-89380475D02*
X65880095Y-89570951D01*
X65880095Y-88770951D02*
X65080095Y-88770951D01*
X65080095Y-88237618D02*
X65080095Y-88085237D01*
X65080095Y-88085237D02*
X65118190Y-88009047D01*
X65118190Y-88009047D02*
X65194380Y-87932856D01*
X65194380Y-87932856D02*
X65346761Y-87894761D01*
X65346761Y-87894761D02*
X65613428Y-87894761D01*
X65613428Y-87894761D02*
X65765809Y-87932856D01*
X65765809Y-87932856D02*
X65842000Y-88009047D01*
X65842000Y-88009047D02*
X65880095Y-88085237D01*
X65880095Y-88085237D02*
X65880095Y-88237618D01*
X65880095Y-88237618D02*
X65842000Y-88313809D01*
X65842000Y-88313809D02*
X65765809Y-88389999D01*
X65765809Y-88389999D02*
X65613428Y-88428095D01*
X65613428Y-88428095D02*
X65346761Y-88428095D01*
X65346761Y-88428095D02*
X65194380Y-88389999D01*
X65194380Y-88389999D02*
X65118190Y-88313809D01*
X65118190Y-88313809D02*
X65080095Y-88237618D01*
X105213616Y-95885638D02*
X105563802Y-96235825D01*
X105563802Y-96235825D02*
X105159741Y-96262762D01*
X105159741Y-96262762D02*
X105240553Y-96343574D01*
X105240553Y-96343574D02*
X105267490Y-96424386D01*
X105267490Y-96424386D02*
X105267490Y-96478261D01*
X105267490Y-96478261D02*
X105240553Y-96559073D01*
X105240553Y-96559073D02*
X105105866Y-96693760D01*
X105105866Y-96693760D02*
X105025054Y-96720698D01*
X105025054Y-96720698D02*
X104971179Y-96720698D01*
X104971179Y-96720698D02*
X104890367Y-96693760D01*
X104890367Y-96693760D02*
X104728742Y-96532136D01*
X104728742Y-96532136D02*
X104701805Y-96451324D01*
X104701805Y-96451324D02*
X104701805Y-96397449D01*
X105725426Y-96397449D02*
X105348303Y-97151696D01*
X105348303Y-97151696D02*
X106102550Y-96774573D01*
X106237237Y-96909260D02*
X106587423Y-97259446D01*
X106587423Y-97259446D02*
X106183362Y-97286383D01*
X106183362Y-97286383D02*
X106264174Y-97367195D01*
X106264174Y-97367195D02*
X106291112Y-97448008D01*
X106291112Y-97448008D02*
X106291112Y-97501882D01*
X106291112Y-97501882D02*
X106264174Y-97582695D01*
X106264174Y-97582695D02*
X106129487Y-97717382D01*
X106129487Y-97717382D02*
X106048675Y-97744319D01*
X106048675Y-97744319D02*
X105994800Y-97744319D01*
X105994800Y-97744319D02*
X105913988Y-97717382D01*
X105913988Y-97717382D02*
X105752364Y-97555757D01*
X105752364Y-97555757D02*
X105725426Y-97474945D01*
X105725426Y-97474945D02*
X105725426Y-97421070D01*
X87503615Y-96093513D02*
X87476678Y-96012701D01*
X87476678Y-96012701D02*
X87395866Y-95931889D01*
X87395866Y-95931889D02*
X87288116Y-95878014D01*
X87288116Y-95878014D02*
X87180367Y-95878014D01*
X87180367Y-95878014D02*
X87099554Y-95904951D01*
X87099554Y-95904951D02*
X86964867Y-95985764D01*
X86964867Y-95985764D02*
X86884055Y-96066576D01*
X86884055Y-96066576D02*
X86803243Y-96201263D01*
X86803243Y-96201263D02*
X86776306Y-96282075D01*
X86776306Y-96282075D02*
X86776306Y-96389825D01*
X86776306Y-96389825D02*
X86830180Y-96497574D01*
X86830180Y-96497574D02*
X86884055Y-96551449D01*
X86884055Y-96551449D02*
X86991805Y-96605324D01*
X86991805Y-96605324D02*
X87045680Y-96605324D01*
X87045680Y-96605324D02*
X87234241Y-96416762D01*
X87234241Y-96416762D02*
X87126492Y-96309012D01*
X87234241Y-96901635D02*
X87799927Y-96335950D01*
X87799927Y-96335950D02*
X88015426Y-96551449D01*
X88015426Y-96551449D02*
X88042363Y-96632261D01*
X88042363Y-96632261D02*
X88042363Y-96686136D01*
X88042363Y-96686136D02*
X88015426Y-96766948D01*
X88015426Y-96766948D02*
X87934614Y-96847760D01*
X87934614Y-96847760D02*
X87853802Y-96874698D01*
X87853802Y-96874698D02*
X87799927Y-96874698D01*
X87799927Y-96874698D02*
X87719115Y-96847760D01*
X87719115Y-96847760D02*
X87503615Y-96632261D01*
X88284800Y-96928573D02*
X88338675Y-96928573D01*
X88338675Y-96928573D02*
X88419487Y-96955510D01*
X88419487Y-96955510D02*
X88554174Y-97090197D01*
X88554174Y-97090197D02*
X88581112Y-97171009D01*
X88581112Y-97171009D02*
X88581112Y-97224884D01*
X88581112Y-97224884D02*
X88554174Y-97305696D01*
X88554174Y-97305696D02*
X88500299Y-97359571D01*
X88500299Y-97359571D02*
X88392550Y-97413446D01*
X88392550Y-97413446D02*
X87746052Y-97413446D01*
X87746052Y-97413446D02*
X88096238Y-97763632D01*
X88823548Y-97467321D02*
X88877423Y-97467321D01*
X88877423Y-97467321D02*
X88958235Y-97494258D01*
X88958235Y-97494258D02*
X89092922Y-97628945D01*
X89092922Y-97628945D02*
X89119860Y-97709757D01*
X89119860Y-97709757D02*
X89119860Y-97763632D01*
X89119860Y-97763632D02*
X89092922Y-97844444D01*
X89092922Y-97844444D02*
X89039048Y-97898319D01*
X89039048Y-97898319D02*
X88931298Y-97952194D01*
X88931298Y-97952194D02*
X88284800Y-97952194D01*
X88284800Y-97952194D02*
X88634986Y-98302380D01*
X102170434Y-96150579D02*
X102439808Y-96419953D01*
X101954935Y-96258329D02*
X102709182Y-95881205D01*
X102709182Y-95881205D02*
X102332059Y-96635452D01*
X102520620Y-96824014D02*
X103086306Y-96258329D01*
X103086306Y-96258329D02*
X103220993Y-96393016D01*
X103220993Y-96393016D02*
X103274867Y-96500765D01*
X103274867Y-96500765D02*
X103274867Y-96608515D01*
X103274867Y-96608515D02*
X103247930Y-96689327D01*
X103247930Y-96689327D02*
X103167118Y-96824014D01*
X103167118Y-96824014D02*
X103086306Y-96904826D01*
X103086306Y-96904826D02*
X102951619Y-96985638D01*
X102951619Y-96985638D02*
X102870806Y-97012576D01*
X102870806Y-97012576D02*
X102763057Y-97012576D01*
X102763057Y-97012576D02*
X102655307Y-96958701D01*
X102655307Y-96958701D02*
X102520620Y-96824014D01*
X103463429Y-97659073D02*
X103409554Y-97659073D01*
X103409554Y-97659073D02*
X103301805Y-97605199D01*
X103301805Y-97605199D02*
X103247930Y-97551324D01*
X103247930Y-97551324D02*
X103194055Y-97443574D01*
X103194055Y-97443574D02*
X103194055Y-97335825D01*
X103194055Y-97335825D02*
X103220993Y-97255012D01*
X103220993Y-97255012D02*
X103301805Y-97120325D01*
X103301805Y-97120325D02*
X103382617Y-97039513D01*
X103382617Y-97039513D02*
X103517304Y-96958701D01*
X103517304Y-96958701D02*
X103598116Y-96931764D01*
X103598116Y-96931764D02*
X103705866Y-96931764D01*
X103705866Y-96931764D02*
X103813616Y-96985638D01*
X103813616Y-96985638D02*
X103867490Y-97039513D01*
X103867490Y-97039513D02*
X103921365Y-97147263D01*
X103921365Y-97147263D02*
X103921365Y-97201138D01*
X103463429Y-97874573D02*
X103894428Y-98305571D01*
X104567863Y-97739886D02*
X104190739Y-98494133D01*
X104190739Y-98494133D02*
X104944986Y-98117009D01*
X104891111Y-99194505D02*
X104971924Y-98736569D01*
X104567863Y-98871256D02*
X105133548Y-98305571D01*
X105133548Y-98305571D02*
X105349047Y-98521070D01*
X105349047Y-98521070D02*
X105375985Y-98601882D01*
X105375985Y-98601882D02*
X105375985Y-98655757D01*
X105375985Y-98655757D02*
X105349047Y-98736569D01*
X105349047Y-98736569D02*
X105268235Y-98817382D01*
X105268235Y-98817382D02*
X105187423Y-98844319D01*
X105187423Y-98844319D02*
X105133548Y-98844319D01*
X105133548Y-98844319D02*
X105052736Y-98817382D01*
X105052736Y-98817382D02*
X104837237Y-98601882D01*
X105429860Y-99140630D02*
X105618421Y-99329192D01*
X105402922Y-99706316D02*
X105133548Y-99436942D01*
X105133548Y-99436942D02*
X105699234Y-98871256D01*
X105699234Y-98871256D02*
X105968608Y-99140630D01*
X106130232Y-99841003D02*
X105941670Y-99652441D01*
X105645359Y-99948753D02*
X106211044Y-99383067D01*
X106211044Y-99383067D02*
X106480418Y-99652441D01*
X69723615Y-69939513D02*
X69696678Y-69858701D01*
X69696678Y-69858701D02*
X69615866Y-69777889D01*
X69615866Y-69777889D02*
X69508116Y-69724014D01*
X69508116Y-69724014D02*
X69400367Y-69724014D01*
X69400367Y-69724014D02*
X69319554Y-69750951D01*
X69319554Y-69750951D02*
X69184867Y-69831764D01*
X69184867Y-69831764D02*
X69104055Y-69912576D01*
X69104055Y-69912576D02*
X69023243Y-70047263D01*
X69023243Y-70047263D02*
X68996306Y-70128075D01*
X68996306Y-70128075D02*
X68996306Y-70235825D01*
X68996306Y-70235825D02*
X69050180Y-70343574D01*
X69050180Y-70343574D02*
X69104055Y-70397449D01*
X69104055Y-70397449D02*
X69211805Y-70451324D01*
X69211805Y-70451324D02*
X69265680Y-70451324D01*
X69265680Y-70451324D02*
X69454241Y-70262762D01*
X69454241Y-70262762D02*
X69346492Y-70155012D01*
X69454241Y-70747635D02*
X70019927Y-70181950D01*
X70019927Y-70181950D02*
X70235426Y-70397449D01*
X70235426Y-70397449D02*
X70262363Y-70478261D01*
X70262363Y-70478261D02*
X70262363Y-70532136D01*
X70262363Y-70532136D02*
X70235426Y-70612948D01*
X70235426Y-70612948D02*
X70154614Y-70693760D01*
X70154614Y-70693760D02*
X70073802Y-70720698D01*
X70073802Y-70720698D02*
X70019927Y-70720698D01*
X70019927Y-70720698D02*
X69939115Y-70693760D01*
X69939115Y-70693760D02*
X69723615Y-70478261D01*
X70316238Y-71609632D02*
X69992989Y-71286383D01*
X70154614Y-71448008D02*
X70720299Y-70882322D01*
X70720299Y-70882322D02*
X70585612Y-70909260D01*
X70585612Y-70909260D02*
X70477863Y-70909260D01*
X70477863Y-70909260D02*
X70397051Y-70882322D01*
X71178235Y-71717382D02*
X70801112Y-72094505D01*
X71259048Y-71367196D02*
X70720299Y-71636570D01*
X70720299Y-71636570D02*
X71070486Y-71986756D01*
%TO.C,R1*%
X99592619Y-47476666D02*
X99116428Y-47809999D01*
X99592619Y-48048094D02*
X98592619Y-48048094D01*
X98592619Y-48048094D02*
X98592619Y-47667142D01*
X98592619Y-47667142D02*
X98640238Y-47571904D01*
X98640238Y-47571904D02*
X98687857Y-47524285D01*
X98687857Y-47524285D02*
X98783095Y-47476666D01*
X98783095Y-47476666D02*
X98925952Y-47476666D01*
X98925952Y-47476666D02*
X99021190Y-47524285D01*
X99021190Y-47524285D02*
X99068809Y-47571904D01*
X99068809Y-47571904D02*
X99116428Y-47667142D01*
X99116428Y-47667142D02*
X99116428Y-48048094D01*
X99592619Y-46524285D02*
X99592619Y-47095713D01*
X99592619Y-46809999D02*
X98592619Y-46809999D01*
X98592619Y-46809999D02*
X98735476Y-46905237D01*
X98735476Y-46905237D02*
X98830714Y-47000475D01*
X98830714Y-47000475D02*
X98878333Y-47095713D01*
%TO.C,J2*%
X96766666Y-67872619D02*
X96766666Y-68586904D01*
X96766666Y-68586904D02*
X96719047Y-68729761D01*
X96719047Y-68729761D02*
X96623809Y-68825000D01*
X96623809Y-68825000D02*
X96480952Y-68872619D01*
X96480952Y-68872619D02*
X96385714Y-68872619D01*
X97195238Y-67967857D02*
X97242857Y-67920238D01*
X97242857Y-67920238D02*
X97338095Y-67872619D01*
X97338095Y-67872619D02*
X97576190Y-67872619D01*
X97576190Y-67872619D02*
X97671428Y-67920238D01*
X97671428Y-67920238D02*
X97719047Y-67967857D01*
X97719047Y-67967857D02*
X97766666Y-68063095D01*
X97766666Y-68063095D02*
X97766666Y-68158333D01*
X97766666Y-68158333D02*
X97719047Y-68301190D01*
X97719047Y-68301190D02*
X97147619Y-68872619D01*
X97147619Y-68872619D02*
X97766666Y-68872619D01*
D11*
%TO.C,U3*%
X117210000Y-73490000D02*
X116910000Y-73490000D01*
X117210000Y-73490000D02*
X117210000Y-94490000D01*
X114810000Y-73490000D02*
X114410000Y-73490000D01*
X114543000Y-73490000D02*
X114543000Y-76497000D01*
X112210000Y-73490000D02*
X111810000Y-73490000D01*
X109710000Y-73490000D02*
X109310000Y-73490000D01*
X107110000Y-73490000D02*
X106710000Y-73490000D01*
X104610000Y-73490000D02*
X104210000Y-73490000D01*
X102110000Y-73490000D02*
X101710000Y-73490000D01*
X99510000Y-73490000D02*
X99110000Y-73490000D01*
X97010000Y-73490000D02*
X96610000Y-73490000D01*
X94410000Y-73490000D02*
X94010000Y-73490000D01*
X91910000Y-73490000D02*
X91510000Y-73490000D01*
X89410000Y-73490000D02*
X89010000Y-73490000D01*
X86810000Y-73490000D02*
X86410000Y-73490000D01*
X84310000Y-73490000D02*
X83910000Y-73490000D01*
X81710000Y-73490000D02*
X81310000Y-73490000D01*
X79210000Y-73490000D02*
X78810000Y-73490000D01*
X76610000Y-73490000D02*
X76210000Y-73490000D01*
X74110000Y-73490000D02*
X73710000Y-73490000D01*
X71610000Y-73490000D02*
X71210000Y-73490000D01*
X69010000Y-73490000D02*
X68610000Y-73490000D01*
X114543000Y-76497000D02*
X117210000Y-76497000D01*
X66210000Y-80290000D02*
X66210000Y-73490000D01*
X66210000Y-82490000D02*
X66210000Y-82890000D01*
X66210000Y-85090000D02*
X66210000Y-85490000D01*
X117210000Y-94490000D02*
X116910000Y-94490000D01*
X114810000Y-94490000D02*
X114410000Y-94490000D01*
X112210000Y-94490000D02*
X111810000Y-94490000D01*
X109710000Y-94490000D02*
X109310000Y-94490000D01*
X107110000Y-94490000D02*
X106710000Y-94490000D01*
X104610000Y-94490000D02*
X104210000Y-94490000D01*
X102110000Y-94490000D02*
X101710000Y-94490000D01*
X99510000Y-94490000D02*
X99110000Y-94490000D01*
X97010000Y-94490000D02*
X96610000Y-94490000D01*
X94410000Y-94490000D02*
X94010000Y-94490000D01*
X91910000Y-94490000D02*
X91510000Y-94490000D01*
X89410000Y-94490000D02*
X89010000Y-94490000D01*
X86810000Y-94490000D02*
X86410000Y-94490000D01*
X84310000Y-94490000D02*
X83910000Y-94490000D01*
X81710000Y-94490000D02*
X81310000Y-94490000D01*
X79210000Y-94490000D02*
X78810000Y-94490000D01*
X76610000Y-94490000D02*
X76210000Y-94490000D01*
X74110000Y-94490000D02*
X73710000Y-94490000D01*
X71610000Y-94490000D02*
X71210000Y-94490000D01*
X69010000Y-94490000D02*
X68610000Y-94490000D01*
X66210000Y-94490000D02*
X66210000Y-87690000D01*
%TO.C,J1*%
X83870000Y-64670000D02*
X83870000Y-66000000D01*
X82540000Y-64670000D02*
X83870000Y-64670000D01*
X81270000Y-64670000D02*
X68510000Y-64670000D01*
X81270000Y-64670000D02*
X81270000Y-67330000D01*
X68510000Y-64670000D02*
X68510000Y-67330000D01*
X81270000Y-67330000D02*
X68510000Y-67330000D01*
%TO.C,R1*%
X100130000Y-50580000D02*
X100130000Y-44040000D01*
X100460000Y-50580000D02*
X100130000Y-50580000D01*
X102540000Y-50580000D02*
X102870000Y-50580000D01*
X102870000Y-50580000D02*
X102870000Y-44040000D01*
X100130000Y-44040000D02*
X100460000Y-44040000D01*
X102870000Y-44040000D02*
X102540000Y-44040000D01*
%TO.C,J2*%
X98430000Y-67410000D02*
X97100000Y-67410000D01*
X98430000Y-66080000D02*
X98430000Y-67410000D01*
X98430000Y-64810000D02*
X98430000Y-59670000D01*
X98430000Y-64810000D02*
X95770000Y-64810000D01*
X98430000Y-59670000D02*
X95770000Y-59670000D01*
X95770000Y-64810000D02*
X95770000Y-59670000D01*
%TD*%
M02*
